%TF.GenerationSoftware,KiCad,Pcbnew,5.1.4-e60b266~84~ubuntu18.04.1*%
%TF.CreationDate,2019-12-31T08:18:33+01:00*%
%TF.ProjectId,clock-dashboard,636c6f63-6b2d-4646-9173-68626f617264,rev?*%
%TF.SameCoordinates,Original*%
%TF.FileFunction,Copper,L2,Bot*%
%TF.FilePolarity,Positive*%
%FSLAX46Y46*%
G04 Gerber Fmt 4.6, Leading zero omitted, Abs format (unit mm)*
G04 Created by KiCad (PCBNEW 5.1.4-e60b266~84~ubuntu18.04.1) date 2019-12-31 08:18:33*
%MOMM*%
%LPD*%
G04 APERTURE LIST*
%ADD10R,2.000000X2.000000*%
%ADD11R,1.700000X1.700000*%
%ADD12O,1.700000X1.700000*%
%ADD13C,0.600000*%
%ADD14C,0.200000*%
%ADD15C,0.300000*%
%ADD16C,0.250000*%
%ADD17C,0.254000*%
G04 APERTURE END LIST*
D10*
X122720000Y-102080000D03*
X122720000Y-105170000D03*
D11*
X132260000Y-93230000D03*
D12*
X132260000Y-95770000D03*
X134800000Y-93230000D03*
X134800000Y-95770000D03*
X137340000Y-93230000D03*
X137340000Y-95770000D03*
X139880000Y-93230000D03*
X139880000Y-95770000D03*
X142420000Y-93230000D03*
X142420000Y-95770000D03*
X144960000Y-93230000D03*
X144960000Y-95770000D03*
X147500000Y-93230000D03*
X147500000Y-95770000D03*
X150040000Y-93230000D03*
X150040000Y-95770000D03*
X152580000Y-93230000D03*
X152580000Y-95770000D03*
X155120000Y-93230000D03*
X155120000Y-95770000D03*
X157660000Y-93230000D03*
X157660000Y-95770000D03*
X160200000Y-93230000D03*
X160200000Y-95770000D03*
X162740000Y-93230000D03*
X162740000Y-95770000D03*
X165280000Y-93230000D03*
X165280000Y-95770000D03*
X167820000Y-93230000D03*
X167820000Y-95770000D03*
X170360000Y-93230000D03*
X170360000Y-95770000D03*
X172900000Y-93230000D03*
X172900000Y-95770000D03*
X175440000Y-93230000D03*
X175440000Y-95770000D03*
X177980000Y-93230000D03*
X177980000Y-95770000D03*
X180520000Y-93230000D03*
X180520000Y-95770000D03*
X184330000Y-61790000D03*
X184330000Y-64330000D03*
X181790000Y-61790000D03*
X181790000Y-64330000D03*
X179250000Y-61790000D03*
X179250000Y-64330000D03*
X176710000Y-61790000D03*
X176710000Y-64330000D03*
X174170000Y-61790000D03*
X174170000Y-64330000D03*
X171630000Y-61790000D03*
X171630000Y-64330000D03*
X169090000Y-61790000D03*
X169090000Y-64330000D03*
X166550000Y-61790000D03*
X166550000Y-64330000D03*
X164010000Y-61790000D03*
X164010000Y-64330000D03*
X161470000Y-61790000D03*
X161470000Y-64330000D03*
X158930000Y-61790000D03*
X158930000Y-64330000D03*
X156390000Y-61790000D03*
X156390000Y-64330000D03*
X153850000Y-61790000D03*
X153850000Y-64330000D03*
X151310000Y-61790000D03*
X151310000Y-64330000D03*
X148770000Y-61790000D03*
X148770000Y-64330000D03*
X146230000Y-61790000D03*
X146230000Y-64330000D03*
X143690000Y-61790000D03*
X143690000Y-64330000D03*
X141150000Y-61790000D03*
X141150000Y-64330000D03*
X138610000Y-61790000D03*
X138610000Y-64330000D03*
X136070000Y-61790000D03*
X136070000Y-64330000D03*
X133530000Y-61790000D03*
X133530000Y-64330000D03*
X130990000Y-61790000D03*
X130990000Y-64330000D03*
X128450000Y-61790000D03*
D11*
X128450000Y-64330000D03*
X128450000Y-112590000D03*
D12*
X128450000Y-110050000D03*
X130990000Y-112590000D03*
X130990000Y-110050000D03*
X133530000Y-112590000D03*
X133530000Y-110050000D03*
X136070000Y-112590000D03*
X136070000Y-110050000D03*
X138610000Y-112590000D03*
X138610000Y-110050000D03*
X141150000Y-112590000D03*
X141150000Y-110050000D03*
X143690000Y-112590000D03*
X143690000Y-110050000D03*
X146230000Y-112590000D03*
X146230000Y-110050000D03*
X148770000Y-112590000D03*
X148770000Y-110050000D03*
X151310000Y-112590000D03*
X151310000Y-110050000D03*
X153850000Y-112590000D03*
X153850000Y-110050000D03*
X156390000Y-112590000D03*
X156390000Y-110050000D03*
X158930000Y-112590000D03*
X158930000Y-110050000D03*
X161470000Y-112590000D03*
X161470000Y-110050000D03*
X164010000Y-112590000D03*
X164010000Y-110050000D03*
X166550000Y-112590000D03*
X166550000Y-110050000D03*
X169090000Y-112590000D03*
X169090000Y-110050000D03*
X171630000Y-112590000D03*
X171630000Y-110050000D03*
X174170000Y-112590000D03*
X174170000Y-110050000D03*
X176710000Y-112590000D03*
X176710000Y-110050000D03*
X179250000Y-112590000D03*
X179250000Y-110050000D03*
X181790000Y-112590000D03*
X181790000Y-110050000D03*
X184330000Y-112590000D03*
X184330000Y-110050000D03*
D13*
X181711792Y-67435548D03*
X178860000Y-86840000D03*
X180590000Y-76720000D03*
X180590000Y-68550000D03*
X178130000Y-71430000D03*
X178130000Y-75410000D03*
X179290000Y-84620000D03*
X179290000Y-67410000D03*
X171660000Y-85480000D03*
X171650000Y-78370000D03*
X175450000Y-69310000D03*
X160190000Y-88960008D03*
X172120000Y-66280000D03*
X190815000Y-72635000D03*
X172900000Y-84450000D03*
X172920000Y-73750000D03*
X170360000Y-86390000D03*
X171264904Y-77724846D03*
X163210000Y-69220000D03*
X168880000Y-88820000D03*
X167480000Y-86290000D03*
X167800000Y-74190000D03*
X157660000Y-87930000D03*
X168280000Y-70750000D03*
X167030000Y-72400000D03*
X161470000Y-88940000D03*
X166470000Y-88980000D03*
X166470000Y-73720000D03*
X137330000Y-87880000D03*
X141340000Y-80050000D03*
X155940000Y-76530000D03*
X165300000Y-90660000D03*
X134800000Y-87870000D03*
X141810000Y-78640000D03*
X150565000Y-89975000D03*
X142280004Y-86980000D03*
X152050000Y-89960000D03*
X142470007Y-85491080D03*
X142340000Y-88309996D03*
X174250000Y-91300000D03*
D14*
X185179999Y-62639999D02*
X184330000Y-61790000D01*
X185630000Y-63090000D02*
X185179999Y-62639999D01*
X146110001Y-94619999D02*
X146110001Y-90739999D01*
X144960000Y-95770000D02*
X146110001Y-94619999D01*
X146110001Y-90739999D02*
X152589990Y-84260010D01*
X152589990Y-84260010D02*
X167869990Y-84260010D01*
X167869990Y-84260010D02*
X185630000Y-66500000D01*
X185630000Y-66500000D02*
X185630000Y-63090000D01*
X184330000Y-65532081D02*
X184330000Y-64330000D01*
X184330000Y-66920000D02*
X184330000Y-65532081D01*
X167390000Y-83860000D02*
X184330000Y-66920000D01*
X152480000Y-83860000D02*
X167390000Y-83860000D01*
X144960000Y-93230000D02*
X144960000Y-91380000D01*
X144960000Y-91380000D02*
X152480000Y-83860000D01*
X181790000Y-61790000D02*
X183080000Y-63080000D01*
X182011791Y-67135549D02*
X181711792Y-67435548D01*
X183080000Y-66067340D02*
X182011791Y-67135549D01*
X183080000Y-63080000D02*
X183080000Y-66067340D01*
X176720000Y-94530000D02*
X176720000Y-88980000D01*
X176720000Y-88980000D02*
X178860000Y-86840000D01*
X177980000Y-95770000D02*
X177960000Y-95770000D01*
X177960000Y-95770000D02*
X176720000Y-94530000D01*
X180590000Y-76720000D02*
X180590000Y-76720000D01*
X180590000Y-65530000D02*
X180590000Y-68550000D01*
X181790000Y-64330000D02*
X180590000Y-65530000D01*
X180590000Y-81520000D02*
X180590000Y-76720000D01*
X175440000Y-93230000D02*
X175440000Y-86670000D01*
X175440000Y-86670000D02*
X180590000Y-81520000D01*
X178130000Y-71005736D02*
X178130000Y-71430000D01*
X179250000Y-61790000D02*
X178130000Y-62910000D01*
X178130000Y-62910000D02*
X178130000Y-71005736D01*
X168879979Y-84660021D02*
X177830001Y-75709999D01*
X157349979Y-84660021D02*
X168879979Y-84660021D01*
X177830001Y-75709999D02*
X178130000Y-75410000D01*
X155120000Y-93230000D02*
X155120000Y-86890000D01*
X155120000Y-86890000D02*
X157349979Y-84660021D01*
X179290000Y-84620000D02*
X179290000Y-84620000D01*
X179290000Y-64370000D02*
X179250000Y-64330000D01*
X179290000Y-67410000D02*
X179290000Y-64370000D01*
X192783779Y-93386221D02*
X192783779Y-85513779D01*
X188000000Y-98170000D02*
X192783779Y-93386221D01*
X182920000Y-98170000D02*
X188000000Y-98170000D01*
X180520000Y-95770000D02*
X182920000Y-98170000D01*
X179714264Y-84620000D02*
X179290000Y-84620000D01*
X191890000Y-84620000D02*
X179714264Y-84620000D01*
X192783779Y-85513779D02*
X191890000Y-84620000D01*
X170360000Y-95770000D02*
X171660000Y-94470000D01*
X171660000Y-94470000D02*
X171660000Y-93830000D01*
X171660000Y-93830000D02*
X171660000Y-85480000D01*
X171660000Y-85480000D02*
X171660000Y-85480000D01*
X176710000Y-61790000D02*
X175559999Y-62940001D01*
X175559999Y-62940001D02*
X175559999Y-64882001D01*
X175559999Y-64882001D02*
X174849999Y-65592001D01*
X174849999Y-75170001D02*
X171949999Y-78070001D01*
X171949999Y-78070001D02*
X171650000Y-78370000D01*
X174849999Y-65592001D02*
X174849999Y-75170001D01*
X175450000Y-65590000D02*
X176710000Y-64330000D01*
X175450000Y-69310000D02*
X175450000Y-65590000D01*
X160200000Y-93230000D02*
X160200000Y-88970008D01*
X160200000Y-88970008D02*
X160190000Y-88960008D01*
X172880000Y-64930000D02*
X172880000Y-63080000D01*
X173320001Y-62639999D02*
X174170000Y-61790000D01*
X172880000Y-63080000D02*
X173320001Y-62639999D01*
X172419999Y-65390001D02*
X172880000Y-64930000D01*
X172120000Y-66280000D02*
X172419999Y-65980001D01*
X172419999Y-65980001D02*
X172419999Y-65390001D01*
X141427929Y-98520010D02*
X188144980Y-98520010D01*
X193133790Y-74953790D02*
X191114999Y-72934999D01*
X191114999Y-72934999D02*
X190815000Y-72635000D01*
X193133790Y-93531200D02*
X193133790Y-74953790D01*
X188144980Y-98520010D02*
X193133790Y-93531200D01*
X139880000Y-96972081D02*
X141427929Y-98520010D01*
X139880000Y-95770000D02*
X139880000Y-96972081D01*
X172900000Y-93230000D02*
X172900000Y-84450000D01*
X172900000Y-84450000D02*
X172900000Y-84450000D01*
X172920000Y-65580000D02*
X174170000Y-64330000D01*
X172920000Y-73750000D02*
X172920000Y-65580000D01*
X143700000Y-94490000D02*
X143700000Y-92110000D01*
X142420000Y-95770000D02*
X143700000Y-94490000D01*
X143700000Y-92110000D02*
X152300000Y-83510000D01*
X152300000Y-83510000D02*
X163160000Y-83510000D01*
X163160000Y-83510000D02*
X170420000Y-76250000D01*
X170420000Y-63000000D02*
X171630000Y-61790000D01*
X170420000Y-76250000D02*
X170420000Y-63000000D01*
X170360000Y-93230000D02*
X170360000Y-86390000D01*
X170360000Y-86390000D02*
X170360000Y-86390000D01*
X171264904Y-65897177D02*
X171264904Y-77300582D01*
X171630000Y-64330000D02*
X171630000Y-65532081D01*
X171630000Y-65532081D02*
X171264904Y-65897177D01*
X171264904Y-77300582D02*
X171264904Y-77724846D01*
X162880001Y-68890001D02*
X162910001Y-68920001D01*
X167800000Y-60500000D02*
X163550000Y-60500000D01*
X163550000Y-60500000D02*
X162880001Y-61169999D01*
X162880001Y-61169999D02*
X162880001Y-68890001D01*
X169090000Y-61790000D02*
X167800000Y-60500000D01*
X162910001Y-68920001D02*
X163210000Y-69220000D01*
X168880000Y-92170000D02*
X167820000Y-93230000D01*
X168880000Y-88820000D02*
X168880000Y-92170000D01*
X162740000Y-95770000D02*
X164020000Y-94490000D01*
X164020000Y-94490000D02*
X164020000Y-89900000D01*
X164020000Y-89900000D02*
X164020000Y-89900000D01*
X164020000Y-89900000D02*
X164020000Y-87410000D01*
X164020000Y-87410000D02*
X164330000Y-87100000D01*
X164330000Y-87100000D02*
X167030000Y-87100000D01*
X167030000Y-87100000D02*
X167480000Y-86650000D01*
X167480000Y-86650000D02*
X167480000Y-86290000D01*
X167480000Y-86290000D02*
X167480000Y-86290000D01*
X169090000Y-72900000D02*
X169090000Y-64330000D01*
X167800000Y-74190000D02*
X169090000Y-72900000D01*
X157660000Y-93230000D02*
X157660000Y-87930000D01*
X157660000Y-87930000D02*
X157660000Y-87930000D01*
X167399999Y-62639999D02*
X166550000Y-61790000D01*
X168290000Y-70740000D02*
X168290000Y-65290000D01*
X168280000Y-70750000D02*
X168290000Y-70740000D01*
X167890000Y-64890000D02*
X167890000Y-63650000D01*
X167890000Y-63650000D02*
X167399999Y-63159999D01*
X168290000Y-65290000D02*
X167890000Y-64890000D01*
X167399999Y-63159999D02*
X167399999Y-62639999D01*
X167588901Y-65368901D02*
X167399999Y-65179999D01*
X167588901Y-71841099D02*
X167588901Y-65368901D01*
X167399999Y-65179999D02*
X166550000Y-64330000D01*
X167030000Y-72400000D02*
X167588901Y-71841099D01*
X161470000Y-94500000D02*
X161470000Y-89364264D01*
X160200000Y-95770000D02*
X161470000Y-94500000D01*
X161470000Y-89364264D02*
X161470000Y-88940000D01*
X165280000Y-95770000D02*
X166470000Y-94580000D01*
X166470000Y-94580000D02*
X166470000Y-88980000D01*
X166470000Y-88980000D02*
X166470000Y-88980000D01*
X164859999Y-62639999D02*
X164010000Y-61790000D01*
X165290000Y-63070000D02*
X164859999Y-62639999D01*
X166470000Y-73720000D02*
X165290000Y-72540000D01*
X165290000Y-72540000D02*
X165290000Y-63070000D01*
X137340000Y-92027919D02*
X137330000Y-92017919D01*
X137340000Y-93230000D02*
X137340000Y-92027919D01*
X137330000Y-92017919D02*
X137330000Y-87880000D01*
X137330000Y-87880000D02*
X137330000Y-87880000D01*
X164010000Y-65532081D02*
X164010000Y-64330000D01*
X164010000Y-73183550D02*
X164010000Y-65532081D01*
X141340000Y-80050000D02*
X157143550Y-80050000D01*
X157143550Y-80050000D02*
X164010000Y-73183550D01*
X159673570Y-76530000D02*
X161510010Y-74693560D01*
X155940000Y-76530000D02*
X159673570Y-76530000D01*
X160620001Y-62639999D02*
X161470000Y-61790000D01*
X161510010Y-74693560D02*
X161510010Y-66410010D01*
X160220000Y-65120000D02*
X160220000Y-63040000D01*
X161510010Y-66410010D02*
X160220000Y-65120000D01*
X160220000Y-63040000D02*
X160620001Y-62639999D01*
X165280000Y-93230000D02*
X165280000Y-90680000D01*
X165280000Y-90680000D02*
X165300000Y-90660000D01*
X134800000Y-93230000D02*
X134800000Y-87870000D01*
X134800000Y-87870000D02*
X134800000Y-87870000D01*
X161470000Y-64330000D02*
X162319999Y-65179999D01*
X158058560Y-78640000D02*
X142234264Y-78640000D01*
X162319999Y-74378561D02*
X158058560Y-78640000D01*
X162319999Y-65179999D02*
X162319999Y-74378561D01*
X142234264Y-78640000D02*
X141810000Y-78640000D01*
X150565000Y-89975000D02*
X150580000Y-89960000D01*
X148770000Y-91770000D02*
X150565000Y-89975000D01*
X150040000Y-95770000D02*
X148770000Y-94500000D01*
X148770000Y-94500000D02*
X148770000Y-91770000D01*
X141570000Y-86970000D02*
X142270004Y-86970000D01*
X142270004Y-86970000D02*
X142280004Y-86980000D01*
X135360000Y-69271440D02*
X135360000Y-80760000D01*
X137961460Y-66669980D02*
X135360000Y-69271440D01*
X135360000Y-80760000D02*
X141570000Y-86970000D01*
X149870001Y-63229999D02*
X148241999Y-63229999D01*
X151310000Y-61790000D02*
X149870001Y-63229999D01*
X145518023Y-66669979D02*
X137961460Y-66669980D01*
X148241999Y-63229999D02*
X147330001Y-64141997D01*
X147330001Y-64141997D02*
X147330001Y-64858001D01*
X147330001Y-64858001D02*
X145518023Y-66669979D01*
X152050000Y-89960000D02*
X152050000Y-89960000D01*
X153870000Y-91780000D02*
X152050000Y-89960000D01*
X152580000Y-95770000D02*
X153870000Y-94480000D01*
X153870000Y-94480000D02*
X153870000Y-91780000D01*
X142461087Y-85500000D02*
X142470007Y-85491080D01*
X151310000Y-64330000D02*
X148620010Y-67019990D01*
X135740000Y-69386430D02*
X135740000Y-80620000D01*
X148620010Y-67019990D02*
X138106440Y-67019990D01*
X138106440Y-67019990D02*
X135740000Y-69386430D01*
X140620000Y-85500000D02*
X142461087Y-85500000D01*
X135740000Y-80620000D02*
X140620000Y-85500000D01*
X145380001Y-62639999D02*
X146230000Y-61790000D01*
X144082603Y-65969959D02*
X145129999Y-64922563D01*
X137671501Y-65969959D02*
X144082603Y-65969959D01*
X145129999Y-62890001D02*
X145380001Y-62639999D01*
X139880000Y-86380000D02*
X134568901Y-81068901D01*
X139880000Y-93230000D02*
X139880000Y-86380000D01*
X134568901Y-81068901D02*
X134568901Y-69071099D01*
X137651460Y-65990000D02*
X137671501Y-65969959D01*
X134568901Y-69071099D02*
X137650000Y-65990000D01*
X145129999Y-64922563D02*
X145129999Y-62890001D01*
X137650000Y-65990000D02*
X137651460Y-65990000D01*
X144240030Y-66319970D02*
X137816480Y-66319970D01*
X137816480Y-66319970D02*
X134950000Y-69186450D01*
X134950000Y-69186450D02*
X134950000Y-80919996D01*
X134950000Y-80919996D02*
X142040001Y-88009997D01*
X142040001Y-88009997D02*
X142340000Y-88309996D01*
X146230000Y-64330000D02*
X144240030Y-66319970D01*
X175440000Y-95770000D02*
X174250000Y-94580000D01*
X174250000Y-91724264D02*
X174250000Y-91300000D01*
X174250000Y-94580000D02*
X174250000Y-91724264D01*
D15*
X162740000Y-93230000D02*
X162740000Y-93930000D01*
X161410000Y-97340000D02*
X156690000Y-97340000D01*
X156690000Y-97340000D02*
X155969999Y-96619999D01*
X161460000Y-97290000D02*
X161410000Y-97340000D01*
X161460000Y-95210000D02*
X161460000Y-97290000D01*
X155969999Y-96619999D02*
X155120000Y-95770000D01*
X162740000Y-93930000D02*
X161460000Y-95210000D01*
X138189999Y-94920001D02*
X137340000Y-95770000D01*
X141219999Y-94430001D02*
X138679999Y-94430001D01*
X138679999Y-94430001D02*
X138189999Y-94920001D01*
X131530001Y-94569999D02*
X124020000Y-102080000D01*
X124020000Y-102080000D02*
X122720000Y-102080000D01*
X136139999Y-94569999D02*
X131530001Y-94569999D01*
X137340000Y-95770000D02*
X136139999Y-94569999D01*
X180520000Y-93230000D02*
X179260000Y-94490000D01*
X179260000Y-94490000D02*
X179260000Y-97340002D01*
X174470002Y-97340002D02*
X172900000Y-95770000D01*
X179260000Y-97340002D02*
X174470002Y-97340002D01*
X142420000Y-93230000D02*
X141219999Y-94430001D01*
X142230000Y-97560000D02*
X145710000Y-97560000D01*
X141140000Y-96470000D02*
X142230000Y-97560000D01*
X141140000Y-94510000D02*
X141140000Y-96470000D01*
X141219999Y-94430001D02*
X141140000Y-94510000D01*
X146650001Y-96619999D02*
X147500000Y-95770000D01*
X145710000Y-97560000D02*
X146650001Y-96619999D01*
X132260000Y-108780000D02*
X133530000Y-110050000D01*
X132260000Y-95770000D02*
X134800000Y-95770000D01*
D16*
X132190000Y-105170000D02*
X132260000Y-105240000D01*
D15*
X122720000Y-105170000D02*
X132190000Y-105170000D01*
X132260000Y-95770000D02*
X132260000Y-105240000D01*
X132260000Y-105240000D02*
X132260000Y-108780000D01*
D17*
G36*
X127620986Y-60549294D02*
G01*
X127394866Y-60734866D01*
X127209294Y-60960986D01*
X127071401Y-61218966D01*
X126986487Y-61498889D01*
X126957815Y-61790000D01*
X126986487Y-62081111D01*
X127071401Y-62361034D01*
X127209294Y-62619014D01*
X127394866Y-62845134D01*
X127424687Y-62869607D01*
X127355820Y-62890498D01*
X127245506Y-62949463D01*
X127148815Y-63028815D01*
X127069463Y-63125506D01*
X127010498Y-63235820D01*
X126974188Y-63355518D01*
X126961928Y-63480000D01*
X126961928Y-65180000D01*
X126974188Y-65304482D01*
X127010498Y-65424180D01*
X127069463Y-65534494D01*
X127148815Y-65631185D01*
X127245506Y-65710537D01*
X127355820Y-65769502D01*
X127475518Y-65805812D01*
X127600000Y-65818072D01*
X129300000Y-65818072D01*
X129424482Y-65805812D01*
X129544180Y-65769502D01*
X129654494Y-65710537D01*
X129751185Y-65631185D01*
X129830537Y-65534494D01*
X129889502Y-65424180D01*
X129910393Y-65355313D01*
X129934866Y-65385134D01*
X130160986Y-65570706D01*
X130418966Y-65708599D01*
X130698889Y-65793513D01*
X130917050Y-65815000D01*
X131062950Y-65815000D01*
X131281111Y-65793513D01*
X131561034Y-65708599D01*
X131819014Y-65570706D01*
X132045134Y-65385134D01*
X132230706Y-65159014D01*
X132260000Y-65104209D01*
X132289294Y-65159014D01*
X132474866Y-65385134D01*
X132700986Y-65570706D01*
X132958966Y-65708599D01*
X133238889Y-65793513D01*
X133457050Y-65815000D01*
X133602950Y-65815000D01*
X133821111Y-65793513D01*
X134101034Y-65708599D01*
X134359014Y-65570706D01*
X134585134Y-65385134D01*
X134770706Y-65159014D01*
X134800000Y-65104209D01*
X134829294Y-65159014D01*
X135014866Y-65385134D01*
X135240986Y-65570706D01*
X135498966Y-65708599D01*
X135778889Y-65793513D01*
X135997050Y-65815000D01*
X136142950Y-65815000D01*
X136361111Y-65793513D01*
X136641034Y-65708599D01*
X136899014Y-65570706D01*
X137125134Y-65385134D01*
X137310706Y-65159014D01*
X137340000Y-65104209D01*
X137369294Y-65159014D01*
X137457703Y-65266741D01*
X137388868Y-65287622D01*
X137261181Y-65355872D01*
X137149263Y-65447721D01*
X137143241Y-65455058D01*
X137127762Y-65467762D01*
X137104746Y-65495807D01*
X134074709Y-68525845D01*
X134046664Y-68548861D01*
X133954815Y-68660779D01*
X133886565Y-68788466D01*
X133844536Y-68927014D01*
X133830345Y-69071099D01*
X133833902Y-69107214D01*
X133833901Y-81032796D01*
X133830345Y-81068901D01*
X133833901Y-81105005D01*
X133844536Y-81212985D01*
X133886564Y-81351533D01*
X133954814Y-81479220D01*
X134046663Y-81591138D01*
X134074709Y-81614155D01*
X139145001Y-86684448D01*
X139145000Y-91939042D01*
X139050986Y-91989294D01*
X138824866Y-92174866D01*
X138639294Y-92400986D01*
X138610000Y-92455791D01*
X138580706Y-92400986D01*
X138395134Y-92174866D01*
X138169014Y-91989294D01*
X138069514Y-91936110D01*
X138065000Y-91890281D01*
X138065000Y-88462951D01*
X138158586Y-88322889D01*
X138229068Y-88152729D01*
X138265000Y-87972089D01*
X138265000Y-87787911D01*
X138229068Y-87607271D01*
X138158586Y-87437111D01*
X138056262Y-87283972D01*
X137926028Y-87153738D01*
X137772889Y-87051414D01*
X137602729Y-86980932D01*
X137422089Y-86945000D01*
X137237911Y-86945000D01*
X137057271Y-86980932D01*
X136887111Y-87051414D01*
X136733972Y-87153738D01*
X136603738Y-87283972D01*
X136501414Y-87437111D01*
X136430932Y-87607271D01*
X136395000Y-87787911D01*
X136395000Y-87972089D01*
X136430932Y-88152729D01*
X136501414Y-88322889D01*
X136595001Y-88462952D01*
X136595000Y-91944388D01*
X136510986Y-91989294D01*
X136284866Y-92174866D01*
X136099294Y-92400986D01*
X136070000Y-92455791D01*
X136040706Y-92400986D01*
X135855134Y-92174866D01*
X135629014Y-91989294D01*
X135535000Y-91939043D01*
X135535000Y-88452951D01*
X135628586Y-88312889D01*
X135699068Y-88142729D01*
X135735000Y-87962089D01*
X135735000Y-87777911D01*
X135699068Y-87597271D01*
X135628586Y-87427111D01*
X135526262Y-87273972D01*
X135396028Y-87143738D01*
X135242889Y-87041414D01*
X135072729Y-86970932D01*
X134892089Y-86935000D01*
X134707911Y-86935000D01*
X134527271Y-86970932D01*
X134357111Y-87041414D01*
X134203972Y-87143738D01*
X134073738Y-87273972D01*
X133971414Y-87427111D01*
X133900932Y-87597271D01*
X133865000Y-87777911D01*
X133865000Y-87962089D01*
X133900932Y-88142729D01*
X133971414Y-88312889D01*
X134065001Y-88452952D01*
X134065000Y-91939042D01*
X133970986Y-91989294D01*
X133744866Y-92174866D01*
X133720393Y-92204687D01*
X133699502Y-92135820D01*
X133640537Y-92025506D01*
X133561185Y-91928815D01*
X133464494Y-91849463D01*
X133354180Y-91790498D01*
X133234482Y-91754188D01*
X133110000Y-91741928D01*
X131410000Y-91741928D01*
X131285518Y-91754188D01*
X131165820Y-91790498D01*
X131055506Y-91849463D01*
X130958815Y-91928815D01*
X130879463Y-92025506D01*
X130820498Y-92135820D01*
X130784188Y-92255518D01*
X130771928Y-92380000D01*
X130771928Y-94080000D01*
X130784188Y-94204482D01*
X130820498Y-94324180D01*
X130879463Y-94434494D01*
X130958815Y-94531185D01*
X131055506Y-94610537D01*
X131165820Y-94669502D01*
X131234687Y-94690393D01*
X131204866Y-94714866D01*
X131019294Y-94940986D01*
X130881401Y-95198966D01*
X130796487Y-95478889D01*
X130767815Y-95770000D01*
X130796487Y-96061111D01*
X130881401Y-96341034D01*
X131019294Y-96599014D01*
X131204866Y-96825134D01*
X131430986Y-97010706D01*
X131475000Y-97034232D01*
X131475001Y-104385000D01*
X124358072Y-104385000D01*
X124358072Y-104170000D01*
X124345812Y-104045518D01*
X124309502Y-103925820D01*
X124250537Y-103815506D01*
X124171185Y-103718815D01*
X124074494Y-103639463D01*
X124047436Y-103625000D01*
X124074494Y-103610537D01*
X124171185Y-103531185D01*
X124250537Y-103434494D01*
X124309502Y-103324180D01*
X124345812Y-103204482D01*
X124358072Y-103080000D01*
X124355000Y-102365750D01*
X124196250Y-102207000D01*
X122847000Y-102207000D01*
X122847000Y-102227000D01*
X122593000Y-102227000D01*
X122593000Y-102207000D01*
X121243750Y-102207000D01*
X121085000Y-102365750D01*
X121081928Y-103080000D01*
X121094188Y-103204482D01*
X121130498Y-103324180D01*
X121189463Y-103434494D01*
X121268815Y-103531185D01*
X121365506Y-103610537D01*
X121392564Y-103625000D01*
X121365506Y-103639463D01*
X121268815Y-103718815D01*
X121189463Y-103815506D01*
X121130498Y-103925820D01*
X121094188Y-104045518D01*
X121081928Y-104170000D01*
X121081928Y-106170000D01*
X121094188Y-106294482D01*
X121130498Y-106414180D01*
X121189463Y-106524494D01*
X121268815Y-106621185D01*
X121365506Y-106700537D01*
X121475820Y-106759502D01*
X121595518Y-106795812D01*
X121720000Y-106808072D01*
X123720000Y-106808072D01*
X123844482Y-106795812D01*
X123964180Y-106759502D01*
X124074494Y-106700537D01*
X124171185Y-106621185D01*
X124250537Y-106524494D01*
X124309502Y-106414180D01*
X124345812Y-106294482D01*
X124358072Y-106170000D01*
X124358072Y-105955000D01*
X131475000Y-105955000D01*
X131475001Y-108645303D01*
X131281111Y-108586487D01*
X131062950Y-108565000D01*
X130917050Y-108565000D01*
X130698889Y-108586487D01*
X130418966Y-108671401D01*
X130160986Y-108809294D01*
X129934866Y-108994866D01*
X129749294Y-109220986D01*
X129714799Y-109285523D01*
X129645178Y-109168645D01*
X129450269Y-108952412D01*
X129216920Y-108778359D01*
X128954099Y-108653175D01*
X128806890Y-108608524D01*
X128577000Y-108729845D01*
X128577000Y-109923000D01*
X128597000Y-109923000D01*
X128597000Y-110177000D01*
X128577000Y-110177000D01*
X128577000Y-112463000D01*
X128597000Y-112463000D01*
X128597000Y-112717000D01*
X128577000Y-112717000D01*
X128577000Y-112737000D01*
X128323000Y-112737000D01*
X128323000Y-112717000D01*
X127123750Y-112717000D01*
X126965000Y-112875750D01*
X126961928Y-113440000D01*
X126974188Y-113564482D01*
X127010498Y-113684180D01*
X127069463Y-113794494D01*
X127126946Y-113864537D01*
X118293498Y-113864537D01*
X118293498Y-111144495D01*
X120745000Y-111144495D01*
X120745000Y-111535505D01*
X120821282Y-111919003D01*
X120970915Y-112280250D01*
X121188149Y-112605364D01*
X121464636Y-112881851D01*
X121789750Y-113099085D01*
X122150997Y-113248718D01*
X122534495Y-113325000D01*
X122925505Y-113325000D01*
X123309003Y-113248718D01*
X123670250Y-113099085D01*
X123995364Y-112881851D01*
X124271851Y-112605364D01*
X124489085Y-112280250D01*
X124638718Y-111919003D01*
X124674323Y-111740000D01*
X126961928Y-111740000D01*
X126965000Y-112304250D01*
X127123750Y-112463000D01*
X128323000Y-112463000D01*
X128323000Y-110177000D01*
X127129186Y-110177000D01*
X127008519Y-110406891D01*
X127105843Y-110681252D01*
X127254822Y-110931355D01*
X127431626Y-111127502D01*
X127355820Y-111150498D01*
X127245506Y-111209463D01*
X127148815Y-111288815D01*
X127069463Y-111385506D01*
X127010498Y-111495820D01*
X126974188Y-111615518D01*
X126961928Y-111740000D01*
X124674323Y-111740000D01*
X124715000Y-111535505D01*
X124715000Y-111144495D01*
X124638718Y-110760997D01*
X124489085Y-110399750D01*
X124271851Y-110074636D01*
X123995364Y-109798149D01*
X123838161Y-109693109D01*
X127008519Y-109693109D01*
X127129186Y-109923000D01*
X128323000Y-109923000D01*
X128323000Y-108729845D01*
X128093110Y-108608524D01*
X127945901Y-108653175D01*
X127683080Y-108778359D01*
X127449731Y-108952412D01*
X127254822Y-109168645D01*
X127105843Y-109418748D01*
X127008519Y-109693109D01*
X123838161Y-109693109D01*
X123670250Y-109580915D01*
X123309003Y-109431282D01*
X122925505Y-109355000D01*
X122534495Y-109355000D01*
X122150997Y-109431282D01*
X121789750Y-109580915D01*
X121464636Y-109798149D01*
X121188149Y-110074636D01*
X120970915Y-110399750D01*
X120821282Y-110760997D01*
X120745000Y-111144495D01*
X118293498Y-111144495D01*
X118293498Y-101080000D01*
X121081928Y-101080000D01*
X121085000Y-101794250D01*
X121243750Y-101953000D01*
X122593000Y-101953000D01*
X122593000Y-100603750D01*
X122847000Y-100603750D01*
X122847000Y-101953000D01*
X124196250Y-101953000D01*
X124355000Y-101794250D01*
X124358072Y-101080000D01*
X124345812Y-100955518D01*
X124309502Y-100835820D01*
X124250537Y-100725506D01*
X124171185Y-100628815D01*
X124074494Y-100549463D01*
X123964180Y-100490498D01*
X123844482Y-100454188D01*
X123720000Y-100441928D01*
X123005750Y-100445000D01*
X122847000Y-100603750D01*
X122593000Y-100603750D01*
X122434250Y-100445000D01*
X121720000Y-100441928D01*
X121595518Y-100454188D01*
X121475820Y-100490498D01*
X121365506Y-100549463D01*
X121268815Y-100628815D01*
X121189463Y-100725506D01*
X121130498Y-100835820D01*
X121094188Y-100955518D01*
X121081928Y-101080000D01*
X118293498Y-101080000D01*
X118293498Y-94304495D01*
X125395000Y-94304495D01*
X125395000Y-94695505D01*
X125471282Y-95079003D01*
X125620915Y-95440250D01*
X125838149Y-95765364D01*
X126114636Y-96041851D01*
X126439750Y-96259085D01*
X126800997Y-96408718D01*
X127184495Y-96485000D01*
X127575505Y-96485000D01*
X127959003Y-96408718D01*
X128320250Y-96259085D01*
X128645364Y-96041851D01*
X128921851Y-95765364D01*
X129139085Y-95440250D01*
X129288718Y-95079003D01*
X129365000Y-94695505D01*
X129365000Y-94304495D01*
X129288718Y-93920997D01*
X129139085Y-93559750D01*
X128921851Y-93234636D01*
X128645364Y-92958149D01*
X128320250Y-92740915D01*
X127959003Y-92591282D01*
X127575505Y-92515000D01*
X127184495Y-92515000D01*
X126800997Y-92591282D01*
X126439750Y-92740915D01*
X126114636Y-92958149D01*
X125838149Y-93234636D01*
X125620915Y-93559750D01*
X125471282Y-93920997D01*
X125395000Y-94304495D01*
X118293498Y-94304495D01*
X118293498Y-93091896D01*
X118303963Y-92947382D01*
X118326598Y-92820990D01*
X118361705Y-92719377D01*
X118422444Y-92602772D01*
X118493855Y-92493108D01*
X118574567Y-92399024D01*
X118658237Y-92323114D01*
X118767443Y-92255125D01*
X118890016Y-92191220D01*
X118993098Y-92155542D01*
X119112217Y-92133537D01*
X119262315Y-92122600D01*
X120503301Y-92122600D01*
X120525472Y-92123239D01*
X120534670Y-92122600D01*
X120543912Y-92122600D01*
X120566033Y-92120421D01*
X120707452Y-92110597D01*
X120712583Y-92111169D01*
X120770296Y-92106231D01*
X120796543Y-92104408D01*
X120801596Y-92103553D01*
X120806721Y-92103115D01*
X120832690Y-92098295D01*
X120889703Y-92088653D01*
X120894519Y-92086819D01*
X120993193Y-92068504D01*
X121009779Y-92067862D01*
X121055022Y-92057028D01*
X121069741Y-92054296D01*
X121085615Y-92049702D01*
X121101664Y-92045859D01*
X121115793Y-92040969D01*
X121160499Y-92028031D01*
X121175240Y-92020393D01*
X121270393Y-91987459D01*
X121275868Y-91986609D01*
X121329873Y-91966872D01*
X121354420Y-91958376D01*
X121359428Y-91956071D01*
X121364610Y-91954177D01*
X121388020Y-91942910D01*
X121440247Y-91918870D01*
X121444734Y-91915614D01*
X121533755Y-91872769D01*
X121545896Y-91869126D01*
X121590472Y-91845472D01*
X121607455Y-91837298D01*
X121618205Y-91830755D01*
X121629356Y-91824838D01*
X121645101Y-91814386D01*
X121688165Y-91788176D01*
X121697493Y-91779605D01*
X121789033Y-91718838D01*
X121796859Y-91715378D01*
X121841483Y-91684019D01*
X121860603Y-91671326D01*
X121867190Y-91665953D01*
X121874163Y-91661053D01*
X121891590Y-91646051D01*
X121933819Y-91611607D01*
X121939266Y-91605010D01*
X122018774Y-91536567D01*
X122032762Y-91527684D01*
X122066451Y-91495526D01*
X122077807Y-91485750D01*
X122089179Y-91473830D01*
X122101106Y-91462445D01*
X122110885Y-91451079D01*
X122143027Y-91417388D01*
X122151906Y-91403397D01*
X122216274Y-91328580D01*
X122218059Y-91327163D01*
X122257359Y-91280825D01*
X122276394Y-91258700D01*
X122277695Y-91256847D01*
X122279172Y-91255106D01*
X122295882Y-91230952D01*
X122330698Y-91181381D01*
X122331618Y-91179298D01*
X122390556Y-91094107D01*
X122403185Y-91080377D01*
X122426336Y-91042389D01*
X122433681Y-91031772D01*
X122442691Y-91015551D01*
X122452354Y-90999696D01*
X122457962Y-90988060D01*
X122479562Y-90949176D01*
X122485266Y-90931414D01*
X122532412Y-90833598D01*
X122537834Y-90825945D01*
X122559743Y-90776893D01*
X122569353Y-90756955D01*
X122572557Y-90748203D01*
X122576366Y-90739676D01*
X122583378Y-90718648D01*
X122601837Y-90668233D01*
X122603281Y-90658966D01*
X122637383Y-90556705D01*
X122643330Y-90545230D01*
X122657280Y-90497040D01*
X122663174Y-90479367D01*
X122666029Y-90466821D01*
X122669603Y-90454473D01*
X122673001Y-90436176D01*
X122684135Y-90387238D01*
X122684489Y-90374312D01*
X122702105Y-90279446D01*
X122703908Y-90274718D01*
X122713596Y-90217567D01*
X122718428Y-90191546D01*
X122718858Y-90186525D01*
X122719699Y-90181564D01*
X122721542Y-90155181D01*
X122726490Y-90097408D01*
X122725930Y-90092380D01*
X122735820Y-89950831D01*
X122738010Y-89928592D01*
X122738010Y-89919480D01*
X122738644Y-89910406D01*
X122738010Y-89888105D01*
X122738010Y-80063235D01*
X122738644Y-80040959D01*
X122738010Y-80031880D01*
X122738010Y-80022754D01*
X122735820Y-80000516D01*
X122725929Y-79858883D01*
X122726490Y-79853850D01*
X122721547Y-79796127D01*
X122719702Y-79769712D01*
X122718858Y-79764733D01*
X122718428Y-79759711D01*
X122713603Y-79733727D01*
X122703913Y-79676557D01*
X122702107Y-79671820D01*
X122684527Y-79577152D01*
X122684188Y-79564444D01*
X122673041Y-79515298D01*
X122669603Y-79496783D01*
X122666087Y-79484636D01*
X122663289Y-79472301D01*
X122657343Y-79454433D01*
X122643331Y-79406027D01*
X122637480Y-79394737D01*
X122603333Y-79292113D01*
X122601866Y-79282691D01*
X122583463Y-79232399D01*
X122576520Y-79211532D01*
X122572658Y-79202870D01*
X122569399Y-79193963D01*
X122559856Y-79174154D01*
X122538047Y-79125237D01*
X122532538Y-79117450D01*
X122485080Y-79018941D01*
X122479187Y-79000682D01*
X122457785Y-78962285D01*
X122452410Y-78951129D01*
X122442480Y-78934827D01*
X122433186Y-78918154D01*
X122426126Y-78907982D01*
X122403257Y-78870439D01*
X122390270Y-78856315D01*
X122331741Y-78771978D01*
X122331233Y-78770824D01*
X122295819Y-78720217D01*
X122278601Y-78695408D01*
X122277789Y-78694454D01*
X122277061Y-78693413D01*
X122257159Y-78670200D01*
X122217383Y-78623440D01*
X122216399Y-78622661D01*
X122151785Y-78547300D01*
X122142243Y-78532331D01*
X122110843Y-78499548D01*
X122101853Y-78489063D01*
X122089104Y-78476852D01*
X122076888Y-78464098D01*
X122066398Y-78455104D01*
X122033620Y-78423709D01*
X122018654Y-78414169D01*
X121939371Y-78346193D01*
X121934766Y-78340592D01*
X121891585Y-78305222D01*
X121873162Y-78289426D01*
X121867253Y-78285291D01*
X121861674Y-78280721D01*
X121841482Y-78267256D01*
X121795752Y-78235254D01*
X121789116Y-78232336D01*
X121697464Y-78171219D01*
X121687161Y-78161790D01*
X121645141Y-78136328D01*
X121630499Y-78126564D01*
X121618226Y-78120019D01*
X121606356Y-78112826D01*
X121590511Y-78105238D01*
X121547131Y-78082103D01*
X121533759Y-78078060D01*
X121444224Y-78035183D01*
X121440247Y-78032297D01*
X121387458Y-78007999D01*
X121363458Y-77996505D01*
X121358860Y-77994835D01*
X121354420Y-77992791D01*
X121329273Y-77984087D01*
X121274652Y-77964246D01*
X121269798Y-77963502D01*
X121175109Y-77930729D01*
X121160243Y-77923034D01*
X121115668Y-77910155D01*
X121101664Y-77905308D01*
X121085473Y-77901431D01*
X121069473Y-77896808D01*
X121054896Y-77894109D01*
X121009779Y-77883305D01*
X120993053Y-77882658D01*
X120895207Y-77864540D01*
X120891291Y-77863037D01*
X120833329Y-77853082D01*
X120806449Y-77848105D01*
X120802285Y-77847750D01*
X120798171Y-77847044D01*
X120770939Y-77845082D01*
X120712308Y-77840091D01*
X120708137Y-77840558D01*
X120566837Y-77830378D01*
X120543912Y-77828120D01*
X120535496Y-77828120D01*
X120527112Y-77827516D01*
X120504118Y-77828120D01*
X119262178Y-77828120D01*
X119123428Y-77818069D01*
X119003717Y-77791543D01*
X118879748Y-77748693D01*
X118758987Y-77690776D01*
X118658662Y-77628017D01*
X118574230Y-77551462D01*
X118493555Y-77457635D01*
X118422406Y-77348489D01*
X118361854Y-77232184D01*
X118326639Y-77129976D01*
X118304103Y-77004194D01*
X118293498Y-76852477D01*
X118293498Y-71314495D01*
X125395000Y-71314495D01*
X125395000Y-71705505D01*
X125471282Y-72089003D01*
X125620915Y-72450250D01*
X125838149Y-72775364D01*
X126114636Y-73051851D01*
X126439750Y-73269085D01*
X126800997Y-73418718D01*
X127184495Y-73495000D01*
X127575505Y-73495000D01*
X127959003Y-73418718D01*
X128320250Y-73269085D01*
X128645364Y-73051851D01*
X128921851Y-72775364D01*
X129139085Y-72450250D01*
X129288718Y-72089003D01*
X129365000Y-71705505D01*
X129365000Y-71314495D01*
X129288718Y-70930997D01*
X129139085Y-70569750D01*
X128921851Y-70244636D01*
X128645364Y-69968149D01*
X128320250Y-69750915D01*
X127959003Y-69601282D01*
X127575505Y-69525000D01*
X127184495Y-69525000D01*
X126800997Y-69601282D01*
X126439750Y-69750915D01*
X126114636Y-69968149D01*
X125838149Y-70244636D01*
X125620915Y-70569750D01*
X125471282Y-70930997D01*
X125395000Y-71314495D01*
X118293498Y-71314495D01*
X118293498Y-62864495D01*
X120745000Y-62864495D01*
X120745000Y-63255505D01*
X120821282Y-63639003D01*
X120970915Y-64000250D01*
X121188149Y-64325364D01*
X121464636Y-64601851D01*
X121789750Y-64819085D01*
X122150997Y-64968718D01*
X122534495Y-65045000D01*
X122925505Y-65045000D01*
X123309003Y-64968718D01*
X123670250Y-64819085D01*
X123995364Y-64601851D01*
X124271851Y-64325364D01*
X124489085Y-64000250D01*
X124638718Y-63639003D01*
X124715000Y-63255505D01*
X124715000Y-62864495D01*
X124638718Y-62480997D01*
X124489085Y-62119750D01*
X124271851Y-61794636D01*
X123995364Y-61518149D01*
X123670250Y-61300915D01*
X123309003Y-61151282D01*
X122925505Y-61075000D01*
X122534495Y-61075000D01*
X122150997Y-61151282D01*
X121789750Y-61300915D01*
X121464636Y-61518149D01*
X121188149Y-61794636D01*
X120970915Y-62119750D01*
X120821282Y-62480997D01*
X120745000Y-62864495D01*
X118293498Y-62864495D01*
X118293498Y-60531678D01*
X127653943Y-60531678D01*
X127620986Y-60549294D01*
X127620986Y-60549294D01*
G37*
X127620986Y-60549294D02*
X127394866Y-60734866D01*
X127209294Y-60960986D01*
X127071401Y-61218966D01*
X126986487Y-61498889D01*
X126957815Y-61790000D01*
X126986487Y-62081111D01*
X127071401Y-62361034D01*
X127209294Y-62619014D01*
X127394866Y-62845134D01*
X127424687Y-62869607D01*
X127355820Y-62890498D01*
X127245506Y-62949463D01*
X127148815Y-63028815D01*
X127069463Y-63125506D01*
X127010498Y-63235820D01*
X126974188Y-63355518D01*
X126961928Y-63480000D01*
X126961928Y-65180000D01*
X126974188Y-65304482D01*
X127010498Y-65424180D01*
X127069463Y-65534494D01*
X127148815Y-65631185D01*
X127245506Y-65710537D01*
X127355820Y-65769502D01*
X127475518Y-65805812D01*
X127600000Y-65818072D01*
X129300000Y-65818072D01*
X129424482Y-65805812D01*
X129544180Y-65769502D01*
X129654494Y-65710537D01*
X129751185Y-65631185D01*
X129830537Y-65534494D01*
X129889502Y-65424180D01*
X129910393Y-65355313D01*
X129934866Y-65385134D01*
X130160986Y-65570706D01*
X130418966Y-65708599D01*
X130698889Y-65793513D01*
X130917050Y-65815000D01*
X131062950Y-65815000D01*
X131281111Y-65793513D01*
X131561034Y-65708599D01*
X131819014Y-65570706D01*
X132045134Y-65385134D01*
X132230706Y-65159014D01*
X132260000Y-65104209D01*
X132289294Y-65159014D01*
X132474866Y-65385134D01*
X132700986Y-65570706D01*
X132958966Y-65708599D01*
X133238889Y-65793513D01*
X133457050Y-65815000D01*
X133602950Y-65815000D01*
X133821111Y-65793513D01*
X134101034Y-65708599D01*
X134359014Y-65570706D01*
X134585134Y-65385134D01*
X134770706Y-65159014D01*
X134800000Y-65104209D01*
X134829294Y-65159014D01*
X135014866Y-65385134D01*
X135240986Y-65570706D01*
X135498966Y-65708599D01*
X135778889Y-65793513D01*
X135997050Y-65815000D01*
X136142950Y-65815000D01*
X136361111Y-65793513D01*
X136641034Y-65708599D01*
X136899014Y-65570706D01*
X137125134Y-65385134D01*
X137310706Y-65159014D01*
X137340000Y-65104209D01*
X137369294Y-65159014D01*
X137457703Y-65266741D01*
X137388868Y-65287622D01*
X137261181Y-65355872D01*
X137149263Y-65447721D01*
X137143241Y-65455058D01*
X137127762Y-65467762D01*
X137104746Y-65495807D01*
X134074709Y-68525845D01*
X134046664Y-68548861D01*
X133954815Y-68660779D01*
X133886565Y-68788466D01*
X133844536Y-68927014D01*
X133830345Y-69071099D01*
X133833902Y-69107214D01*
X133833901Y-81032796D01*
X133830345Y-81068901D01*
X133833901Y-81105005D01*
X133844536Y-81212985D01*
X133886564Y-81351533D01*
X133954814Y-81479220D01*
X134046663Y-81591138D01*
X134074709Y-81614155D01*
X139145001Y-86684448D01*
X139145000Y-91939042D01*
X139050986Y-91989294D01*
X138824866Y-92174866D01*
X138639294Y-92400986D01*
X138610000Y-92455791D01*
X138580706Y-92400986D01*
X138395134Y-92174866D01*
X138169014Y-91989294D01*
X138069514Y-91936110D01*
X138065000Y-91890281D01*
X138065000Y-88462951D01*
X138158586Y-88322889D01*
X138229068Y-88152729D01*
X138265000Y-87972089D01*
X138265000Y-87787911D01*
X138229068Y-87607271D01*
X138158586Y-87437111D01*
X138056262Y-87283972D01*
X137926028Y-87153738D01*
X137772889Y-87051414D01*
X137602729Y-86980932D01*
X137422089Y-86945000D01*
X137237911Y-86945000D01*
X137057271Y-86980932D01*
X136887111Y-87051414D01*
X136733972Y-87153738D01*
X136603738Y-87283972D01*
X136501414Y-87437111D01*
X136430932Y-87607271D01*
X136395000Y-87787911D01*
X136395000Y-87972089D01*
X136430932Y-88152729D01*
X136501414Y-88322889D01*
X136595001Y-88462952D01*
X136595000Y-91944388D01*
X136510986Y-91989294D01*
X136284866Y-92174866D01*
X136099294Y-92400986D01*
X136070000Y-92455791D01*
X136040706Y-92400986D01*
X135855134Y-92174866D01*
X135629014Y-91989294D01*
X135535000Y-91939043D01*
X135535000Y-88452951D01*
X135628586Y-88312889D01*
X135699068Y-88142729D01*
X135735000Y-87962089D01*
X135735000Y-87777911D01*
X135699068Y-87597271D01*
X135628586Y-87427111D01*
X135526262Y-87273972D01*
X135396028Y-87143738D01*
X135242889Y-87041414D01*
X135072729Y-86970932D01*
X134892089Y-86935000D01*
X134707911Y-86935000D01*
X134527271Y-86970932D01*
X134357111Y-87041414D01*
X134203972Y-87143738D01*
X134073738Y-87273972D01*
X133971414Y-87427111D01*
X133900932Y-87597271D01*
X133865000Y-87777911D01*
X133865000Y-87962089D01*
X133900932Y-88142729D01*
X133971414Y-88312889D01*
X134065001Y-88452952D01*
X134065000Y-91939042D01*
X133970986Y-91989294D01*
X133744866Y-92174866D01*
X133720393Y-92204687D01*
X133699502Y-92135820D01*
X133640537Y-92025506D01*
X133561185Y-91928815D01*
X133464494Y-91849463D01*
X133354180Y-91790498D01*
X133234482Y-91754188D01*
X133110000Y-91741928D01*
X131410000Y-91741928D01*
X131285518Y-91754188D01*
X131165820Y-91790498D01*
X131055506Y-91849463D01*
X130958815Y-91928815D01*
X130879463Y-92025506D01*
X130820498Y-92135820D01*
X130784188Y-92255518D01*
X130771928Y-92380000D01*
X130771928Y-94080000D01*
X130784188Y-94204482D01*
X130820498Y-94324180D01*
X130879463Y-94434494D01*
X130958815Y-94531185D01*
X131055506Y-94610537D01*
X131165820Y-94669502D01*
X131234687Y-94690393D01*
X131204866Y-94714866D01*
X131019294Y-94940986D01*
X130881401Y-95198966D01*
X130796487Y-95478889D01*
X130767815Y-95770000D01*
X130796487Y-96061111D01*
X130881401Y-96341034D01*
X131019294Y-96599014D01*
X131204866Y-96825134D01*
X131430986Y-97010706D01*
X131475000Y-97034232D01*
X131475001Y-104385000D01*
X124358072Y-104385000D01*
X124358072Y-104170000D01*
X124345812Y-104045518D01*
X124309502Y-103925820D01*
X124250537Y-103815506D01*
X124171185Y-103718815D01*
X124074494Y-103639463D01*
X124047436Y-103625000D01*
X124074494Y-103610537D01*
X124171185Y-103531185D01*
X124250537Y-103434494D01*
X124309502Y-103324180D01*
X124345812Y-103204482D01*
X124358072Y-103080000D01*
X124355000Y-102365750D01*
X124196250Y-102207000D01*
X122847000Y-102207000D01*
X122847000Y-102227000D01*
X122593000Y-102227000D01*
X122593000Y-102207000D01*
X121243750Y-102207000D01*
X121085000Y-102365750D01*
X121081928Y-103080000D01*
X121094188Y-103204482D01*
X121130498Y-103324180D01*
X121189463Y-103434494D01*
X121268815Y-103531185D01*
X121365506Y-103610537D01*
X121392564Y-103625000D01*
X121365506Y-103639463D01*
X121268815Y-103718815D01*
X121189463Y-103815506D01*
X121130498Y-103925820D01*
X121094188Y-104045518D01*
X121081928Y-104170000D01*
X121081928Y-106170000D01*
X121094188Y-106294482D01*
X121130498Y-106414180D01*
X121189463Y-106524494D01*
X121268815Y-106621185D01*
X121365506Y-106700537D01*
X121475820Y-106759502D01*
X121595518Y-106795812D01*
X121720000Y-106808072D01*
X123720000Y-106808072D01*
X123844482Y-106795812D01*
X123964180Y-106759502D01*
X124074494Y-106700537D01*
X124171185Y-106621185D01*
X124250537Y-106524494D01*
X124309502Y-106414180D01*
X124345812Y-106294482D01*
X124358072Y-106170000D01*
X124358072Y-105955000D01*
X131475000Y-105955000D01*
X131475001Y-108645303D01*
X131281111Y-108586487D01*
X131062950Y-108565000D01*
X130917050Y-108565000D01*
X130698889Y-108586487D01*
X130418966Y-108671401D01*
X130160986Y-108809294D01*
X129934866Y-108994866D01*
X129749294Y-109220986D01*
X129714799Y-109285523D01*
X129645178Y-109168645D01*
X129450269Y-108952412D01*
X129216920Y-108778359D01*
X128954099Y-108653175D01*
X128806890Y-108608524D01*
X128577000Y-108729845D01*
X128577000Y-109923000D01*
X128597000Y-109923000D01*
X128597000Y-110177000D01*
X128577000Y-110177000D01*
X128577000Y-112463000D01*
X128597000Y-112463000D01*
X128597000Y-112717000D01*
X128577000Y-112717000D01*
X128577000Y-112737000D01*
X128323000Y-112737000D01*
X128323000Y-112717000D01*
X127123750Y-112717000D01*
X126965000Y-112875750D01*
X126961928Y-113440000D01*
X126974188Y-113564482D01*
X127010498Y-113684180D01*
X127069463Y-113794494D01*
X127126946Y-113864537D01*
X118293498Y-113864537D01*
X118293498Y-111144495D01*
X120745000Y-111144495D01*
X120745000Y-111535505D01*
X120821282Y-111919003D01*
X120970915Y-112280250D01*
X121188149Y-112605364D01*
X121464636Y-112881851D01*
X121789750Y-113099085D01*
X122150997Y-113248718D01*
X122534495Y-113325000D01*
X122925505Y-113325000D01*
X123309003Y-113248718D01*
X123670250Y-113099085D01*
X123995364Y-112881851D01*
X124271851Y-112605364D01*
X124489085Y-112280250D01*
X124638718Y-111919003D01*
X124674323Y-111740000D01*
X126961928Y-111740000D01*
X126965000Y-112304250D01*
X127123750Y-112463000D01*
X128323000Y-112463000D01*
X128323000Y-110177000D01*
X127129186Y-110177000D01*
X127008519Y-110406891D01*
X127105843Y-110681252D01*
X127254822Y-110931355D01*
X127431626Y-111127502D01*
X127355820Y-111150498D01*
X127245506Y-111209463D01*
X127148815Y-111288815D01*
X127069463Y-111385506D01*
X127010498Y-111495820D01*
X126974188Y-111615518D01*
X126961928Y-111740000D01*
X124674323Y-111740000D01*
X124715000Y-111535505D01*
X124715000Y-111144495D01*
X124638718Y-110760997D01*
X124489085Y-110399750D01*
X124271851Y-110074636D01*
X123995364Y-109798149D01*
X123838161Y-109693109D01*
X127008519Y-109693109D01*
X127129186Y-109923000D01*
X128323000Y-109923000D01*
X128323000Y-108729845D01*
X128093110Y-108608524D01*
X127945901Y-108653175D01*
X127683080Y-108778359D01*
X127449731Y-108952412D01*
X127254822Y-109168645D01*
X127105843Y-109418748D01*
X127008519Y-109693109D01*
X123838161Y-109693109D01*
X123670250Y-109580915D01*
X123309003Y-109431282D01*
X122925505Y-109355000D01*
X122534495Y-109355000D01*
X122150997Y-109431282D01*
X121789750Y-109580915D01*
X121464636Y-109798149D01*
X121188149Y-110074636D01*
X120970915Y-110399750D01*
X120821282Y-110760997D01*
X120745000Y-111144495D01*
X118293498Y-111144495D01*
X118293498Y-101080000D01*
X121081928Y-101080000D01*
X121085000Y-101794250D01*
X121243750Y-101953000D01*
X122593000Y-101953000D01*
X122593000Y-100603750D01*
X122847000Y-100603750D01*
X122847000Y-101953000D01*
X124196250Y-101953000D01*
X124355000Y-101794250D01*
X124358072Y-101080000D01*
X124345812Y-100955518D01*
X124309502Y-100835820D01*
X124250537Y-100725506D01*
X124171185Y-100628815D01*
X124074494Y-100549463D01*
X123964180Y-100490498D01*
X123844482Y-100454188D01*
X123720000Y-100441928D01*
X123005750Y-100445000D01*
X122847000Y-100603750D01*
X122593000Y-100603750D01*
X122434250Y-100445000D01*
X121720000Y-100441928D01*
X121595518Y-100454188D01*
X121475820Y-100490498D01*
X121365506Y-100549463D01*
X121268815Y-100628815D01*
X121189463Y-100725506D01*
X121130498Y-100835820D01*
X121094188Y-100955518D01*
X121081928Y-101080000D01*
X118293498Y-101080000D01*
X118293498Y-94304495D01*
X125395000Y-94304495D01*
X125395000Y-94695505D01*
X125471282Y-95079003D01*
X125620915Y-95440250D01*
X125838149Y-95765364D01*
X126114636Y-96041851D01*
X126439750Y-96259085D01*
X126800997Y-96408718D01*
X127184495Y-96485000D01*
X127575505Y-96485000D01*
X127959003Y-96408718D01*
X128320250Y-96259085D01*
X128645364Y-96041851D01*
X128921851Y-95765364D01*
X129139085Y-95440250D01*
X129288718Y-95079003D01*
X129365000Y-94695505D01*
X129365000Y-94304495D01*
X129288718Y-93920997D01*
X129139085Y-93559750D01*
X128921851Y-93234636D01*
X128645364Y-92958149D01*
X128320250Y-92740915D01*
X127959003Y-92591282D01*
X127575505Y-92515000D01*
X127184495Y-92515000D01*
X126800997Y-92591282D01*
X126439750Y-92740915D01*
X126114636Y-92958149D01*
X125838149Y-93234636D01*
X125620915Y-93559750D01*
X125471282Y-93920997D01*
X125395000Y-94304495D01*
X118293498Y-94304495D01*
X118293498Y-93091896D01*
X118303963Y-92947382D01*
X118326598Y-92820990D01*
X118361705Y-92719377D01*
X118422444Y-92602772D01*
X118493855Y-92493108D01*
X118574567Y-92399024D01*
X118658237Y-92323114D01*
X118767443Y-92255125D01*
X118890016Y-92191220D01*
X118993098Y-92155542D01*
X119112217Y-92133537D01*
X119262315Y-92122600D01*
X120503301Y-92122600D01*
X120525472Y-92123239D01*
X120534670Y-92122600D01*
X120543912Y-92122600D01*
X120566033Y-92120421D01*
X120707452Y-92110597D01*
X120712583Y-92111169D01*
X120770296Y-92106231D01*
X120796543Y-92104408D01*
X120801596Y-92103553D01*
X120806721Y-92103115D01*
X120832690Y-92098295D01*
X120889703Y-92088653D01*
X120894519Y-92086819D01*
X120993193Y-92068504D01*
X121009779Y-92067862D01*
X121055022Y-92057028D01*
X121069741Y-92054296D01*
X121085615Y-92049702D01*
X121101664Y-92045859D01*
X121115793Y-92040969D01*
X121160499Y-92028031D01*
X121175240Y-92020393D01*
X121270393Y-91987459D01*
X121275868Y-91986609D01*
X121329873Y-91966872D01*
X121354420Y-91958376D01*
X121359428Y-91956071D01*
X121364610Y-91954177D01*
X121388020Y-91942910D01*
X121440247Y-91918870D01*
X121444734Y-91915614D01*
X121533755Y-91872769D01*
X121545896Y-91869126D01*
X121590472Y-91845472D01*
X121607455Y-91837298D01*
X121618205Y-91830755D01*
X121629356Y-91824838D01*
X121645101Y-91814386D01*
X121688165Y-91788176D01*
X121697493Y-91779605D01*
X121789033Y-91718838D01*
X121796859Y-91715378D01*
X121841483Y-91684019D01*
X121860603Y-91671326D01*
X121867190Y-91665953D01*
X121874163Y-91661053D01*
X121891590Y-91646051D01*
X121933819Y-91611607D01*
X121939266Y-91605010D01*
X122018774Y-91536567D01*
X122032762Y-91527684D01*
X122066451Y-91495526D01*
X122077807Y-91485750D01*
X122089179Y-91473830D01*
X122101106Y-91462445D01*
X122110885Y-91451079D01*
X122143027Y-91417388D01*
X122151906Y-91403397D01*
X122216274Y-91328580D01*
X122218059Y-91327163D01*
X122257359Y-91280825D01*
X122276394Y-91258700D01*
X122277695Y-91256847D01*
X122279172Y-91255106D01*
X122295882Y-91230952D01*
X122330698Y-91181381D01*
X122331618Y-91179298D01*
X122390556Y-91094107D01*
X122403185Y-91080377D01*
X122426336Y-91042389D01*
X122433681Y-91031772D01*
X122442691Y-91015551D01*
X122452354Y-90999696D01*
X122457962Y-90988060D01*
X122479562Y-90949176D01*
X122485266Y-90931414D01*
X122532412Y-90833598D01*
X122537834Y-90825945D01*
X122559743Y-90776893D01*
X122569353Y-90756955D01*
X122572557Y-90748203D01*
X122576366Y-90739676D01*
X122583378Y-90718648D01*
X122601837Y-90668233D01*
X122603281Y-90658966D01*
X122637383Y-90556705D01*
X122643330Y-90545230D01*
X122657280Y-90497040D01*
X122663174Y-90479367D01*
X122666029Y-90466821D01*
X122669603Y-90454473D01*
X122673001Y-90436176D01*
X122684135Y-90387238D01*
X122684489Y-90374312D01*
X122702105Y-90279446D01*
X122703908Y-90274718D01*
X122713596Y-90217567D01*
X122718428Y-90191546D01*
X122718858Y-90186525D01*
X122719699Y-90181564D01*
X122721542Y-90155181D01*
X122726490Y-90097408D01*
X122725930Y-90092380D01*
X122735820Y-89950831D01*
X122738010Y-89928592D01*
X122738010Y-89919480D01*
X122738644Y-89910406D01*
X122738010Y-89888105D01*
X122738010Y-80063235D01*
X122738644Y-80040959D01*
X122738010Y-80031880D01*
X122738010Y-80022754D01*
X122735820Y-80000516D01*
X122725929Y-79858883D01*
X122726490Y-79853850D01*
X122721547Y-79796127D01*
X122719702Y-79769712D01*
X122718858Y-79764733D01*
X122718428Y-79759711D01*
X122713603Y-79733727D01*
X122703913Y-79676557D01*
X122702107Y-79671820D01*
X122684527Y-79577152D01*
X122684188Y-79564444D01*
X122673041Y-79515298D01*
X122669603Y-79496783D01*
X122666087Y-79484636D01*
X122663289Y-79472301D01*
X122657343Y-79454433D01*
X122643331Y-79406027D01*
X122637480Y-79394737D01*
X122603333Y-79292113D01*
X122601866Y-79282691D01*
X122583463Y-79232399D01*
X122576520Y-79211532D01*
X122572658Y-79202870D01*
X122569399Y-79193963D01*
X122559856Y-79174154D01*
X122538047Y-79125237D01*
X122532538Y-79117450D01*
X122485080Y-79018941D01*
X122479187Y-79000682D01*
X122457785Y-78962285D01*
X122452410Y-78951129D01*
X122442480Y-78934827D01*
X122433186Y-78918154D01*
X122426126Y-78907982D01*
X122403257Y-78870439D01*
X122390270Y-78856315D01*
X122331741Y-78771978D01*
X122331233Y-78770824D01*
X122295819Y-78720217D01*
X122278601Y-78695408D01*
X122277789Y-78694454D01*
X122277061Y-78693413D01*
X122257159Y-78670200D01*
X122217383Y-78623440D01*
X122216399Y-78622661D01*
X122151785Y-78547300D01*
X122142243Y-78532331D01*
X122110843Y-78499548D01*
X122101853Y-78489063D01*
X122089104Y-78476852D01*
X122076888Y-78464098D01*
X122066398Y-78455104D01*
X122033620Y-78423709D01*
X122018654Y-78414169D01*
X121939371Y-78346193D01*
X121934766Y-78340592D01*
X121891585Y-78305222D01*
X121873162Y-78289426D01*
X121867253Y-78285291D01*
X121861674Y-78280721D01*
X121841482Y-78267256D01*
X121795752Y-78235254D01*
X121789116Y-78232336D01*
X121697464Y-78171219D01*
X121687161Y-78161790D01*
X121645141Y-78136328D01*
X121630499Y-78126564D01*
X121618226Y-78120019D01*
X121606356Y-78112826D01*
X121590511Y-78105238D01*
X121547131Y-78082103D01*
X121533759Y-78078060D01*
X121444224Y-78035183D01*
X121440247Y-78032297D01*
X121387458Y-78007999D01*
X121363458Y-77996505D01*
X121358860Y-77994835D01*
X121354420Y-77992791D01*
X121329273Y-77984087D01*
X121274652Y-77964246D01*
X121269798Y-77963502D01*
X121175109Y-77930729D01*
X121160243Y-77923034D01*
X121115668Y-77910155D01*
X121101664Y-77905308D01*
X121085473Y-77901431D01*
X121069473Y-77896808D01*
X121054896Y-77894109D01*
X121009779Y-77883305D01*
X120993053Y-77882658D01*
X120895207Y-77864540D01*
X120891291Y-77863037D01*
X120833329Y-77853082D01*
X120806449Y-77848105D01*
X120802285Y-77847750D01*
X120798171Y-77847044D01*
X120770939Y-77845082D01*
X120712308Y-77840091D01*
X120708137Y-77840558D01*
X120566837Y-77830378D01*
X120543912Y-77828120D01*
X120535496Y-77828120D01*
X120527112Y-77827516D01*
X120504118Y-77828120D01*
X119262178Y-77828120D01*
X119123428Y-77818069D01*
X119003717Y-77791543D01*
X118879748Y-77748693D01*
X118758987Y-77690776D01*
X118658662Y-77628017D01*
X118574230Y-77551462D01*
X118493555Y-77457635D01*
X118422406Y-77348489D01*
X118361854Y-77232184D01*
X118326639Y-77129976D01*
X118304103Y-77004194D01*
X118293498Y-76852477D01*
X118293498Y-71314495D01*
X125395000Y-71314495D01*
X125395000Y-71705505D01*
X125471282Y-72089003D01*
X125620915Y-72450250D01*
X125838149Y-72775364D01*
X126114636Y-73051851D01*
X126439750Y-73269085D01*
X126800997Y-73418718D01*
X127184495Y-73495000D01*
X127575505Y-73495000D01*
X127959003Y-73418718D01*
X128320250Y-73269085D01*
X128645364Y-73051851D01*
X128921851Y-72775364D01*
X129139085Y-72450250D01*
X129288718Y-72089003D01*
X129365000Y-71705505D01*
X129365000Y-71314495D01*
X129288718Y-70930997D01*
X129139085Y-70569750D01*
X128921851Y-70244636D01*
X128645364Y-69968149D01*
X128320250Y-69750915D01*
X127959003Y-69601282D01*
X127575505Y-69525000D01*
X127184495Y-69525000D01*
X126800997Y-69601282D01*
X126439750Y-69750915D01*
X126114636Y-69968149D01*
X125838149Y-70244636D01*
X125620915Y-70569750D01*
X125471282Y-70930997D01*
X125395000Y-71314495D01*
X118293498Y-71314495D01*
X118293498Y-62864495D01*
X120745000Y-62864495D01*
X120745000Y-63255505D01*
X120821282Y-63639003D01*
X120970915Y-64000250D01*
X121188149Y-64325364D01*
X121464636Y-64601851D01*
X121789750Y-64819085D01*
X122150997Y-64968718D01*
X122534495Y-65045000D01*
X122925505Y-65045000D01*
X123309003Y-64968718D01*
X123670250Y-64819085D01*
X123995364Y-64601851D01*
X124271851Y-64325364D01*
X124489085Y-64000250D01*
X124638718Y-63639003D01*
X124715000Y-63255505D01*
X124715000Y-62864495D01*
X124638718Y-62480997D01*
X124489085Y-62119750D01*
X124271851Y-61794636D01*
X123995364Y-61518149D01*
X123670250Y-61300915D01*
X123309003Y-61151282D01*
X122925505Y-61075000D01*
X122534495Y-61075000D01*
X122150997Y-61151282D01*
X121789750Y-61300915D01*
X121464636Y-61518149D01*
X121188149Y-61794636D01*
X120970915Y-62119750D01*
X120821282Y-62480997D01*
X120745000Y-62864495D01*
X118293498Y-62864495D01*
X118293498Y-60531678D01*
X127653943Y-60531678D01*
X127620986Y-60549294D01*
G36*
X192748800Y-102903264D02*
G01*
X192734160Y-103455978D01*
X192699709Y-103988039D01*
X192629142Y-104519819D01*
X192536880Y-105053735D01*
X192425300Y-105578077D01*
X192278499Y-106088777D01*
X192108139Y-106606842D01*
X191918515Y-107105680D01*
X191701567Y-107594188D01*
X191454386Y-108075299D01*
X191192935Y-108547687D01*
X190906258Y-108995946D01*
X190595923Y-109440140D01*
X190265786Y-109861317D01*
X189914506Y-110268616D01*
X189540902Y-110656539D01*
X189153133Y-111030422D01*
X188746050Y-111381180D01*
X188324745Y-111711183D01*
X187880383Y-112021502D01*
X187432267Y-112308707D01*
X186959742Y-112569510D01*
X186478587Y-112817478D01*
X185990379Y-113033623D01*
X185701762Y-113143433D01*
X185771481Y-112946891D01*
X185650814Y-112717000D01*
X184457000Y-112717000D01*
X184457000Y-112737000D01*
X184203000Y-112737000D01*
X184203000Y-112717000D01*
X184183000Y-112717000D01*
X184183000Y-112463000D01*
X184203000Y-112463000D01*
X184203000Y-110177000D01*
X184457000Y-110177000D01*
X184457000Y-112463000D01*
X185650814Y-112463000D01*
X185771481Y-112233109D01*
X185674157Y-111958748D01*
X185525178Y-111708645D01*
X185330269Y-111492412D01*
X185099120Y-111320000D01*
X185330269Y-111147588D01*
X185525178Y-110931355D01*
X185674157Y-110681252D01*
X185771481Y-110406891D01*
X185650814Y-110177000D01*
X184457000Y-110177000D01*
X184203000Y-110177000D01*
X181917000Y-110177000D01*
X181917000Y-110197000D01*
X181663000Y-110197000D01*
X181663000Y-110177000D01*
X181643000Y-110177000D01*
X181643000Y-109923000D01*
X181663000Y-109923000D01*
X181663000Y-108729845D01*
X181917000Y-108729845D01*
X181917000Y-109923000D01*
X184203000Y-109923000D01*
X184203000Y-108729845D01*
X184457000Y-108729845D01*
X184457000Y-109923000D01*
X185650814Y-109923000D01*
X185771481Y-109693109D01*
X185674157Y-109418748D01*
X185525178Y-109168645D01*
X185330269Y-108952412D01*
X185096920Y-108778359D01*
X184834099Y-108653175D01*
X184686890Y-108608524D01*
X184457000Y-108729845D01*
X184203000Y-108729845D01*
X183973110Y-108608524D01*
X183825901Y-108653175D01*
X183563080Y-108778359D01*
X183329731Y-108952412D01*
X183134822Y-109168645D01*
X183060000Y-109294255D01*
X182985178Y-109168645D01*
X182790269Y-108952412D01*
X182556920Y-108778359D01*
X182294099Y-108653175D01*
X182146890Y-108608524D01*
X181917000Y-108729845D01*
X181663000Y-108729845D01*
X181433110Y-108608524D01*
X181285901Y-108653175D01*
X181023080Y-108778359D01*
X180789731Y-108952412D01*
X180594822Y-109168645D01*
X180525201Y-109285523D01*
X180490706Y-109220986D01*
X180305134Y-108994866D01*
X180079014Y-108809294D01*
X179821034Y-108671401D01*
X179541111Y-108586487D01*
X179322950Y-108565000D01*
X179177050Y-108565000D01*
X178958889Y-108586487D01*
X178678966Y-108671401D01*
X178420986Y-108809294D01*
X178194866Y-108994866D01*
X178009294Y-109220986D01*
X177980000Y-109275791D01*
X177950706Y-109220986D01*
X177765134Y-108994866D01*
X177539014Y-108809294D01*
X177281034Y-108671401D01*
X177001111Y-108586487D01*
X176782950Y-108565000D01*
X176637050Y-108565000D01*
X176418889Y-108586487D01*
X176138966Y-108671401D01*
X175880986Y-108809294D01*
X175654866Y-108994866D01*
X175469294Y-109220986D01*
X175440000Y-109275791D01*
X175410706Y-109220986D01*
X175225134Y-108994866D01*
X174999014Y-108809294D01*
X174741034Y-108671401D01*
X174461111Y-108586487D01*
X174242950Y-108565000D01*
X174097050Y-108565000D01*
X173878889Y-108586487D01*
X173598966Y-108671401D01*
X173340986Y-108809294D01*
X173114866Y-108994866D01*
X172929294Y-109220986D01*
X172900000Y-109275791D01*
X172870706Y-109220986D01*
X172685134Y-108994866D01*
X172459014Y-108809294D01*
X172201034Y-108671401D01*
X171921111Y-108586487D01*
X171702950Y-108565000D01*
X171557050Y-108565000D01*
X171338889Y-108586487D01*
X171058966Y-108671401D01*
X170800986Y-108809294D01*
X170574866Y-108994866D01*
X170389294Y-109220986D01*
X170360000Y-109275791D01*
X170330706Y-109220986D01*
X170145134Y-108994866D01*
X169919014Y-108809294D01*
X169661034Y-108671401D01*
X169381111Y-108586487D01*
X169162950Y-108565000D01*
X169017050Y-108565000D01*
X168798889Y-108586487D01*
X168518966Y-108671401D01*
X168260986Y-108809294D01*
X168034866Y-108994866D01*
X167849294Y-109220986D01*
X167820000Y-109275791D01*
X167790706Y-109220986D01*
X167605134Y-108994866D01*
X167379014Y-108809294D01*
X167121034Y-108671401D01*
X166841111Y-108586487D01*
X166622950Y-108565000D01*
X166477050Y-108565000D01*
X166258889Y-108586487D01*
X165978966Y-108671401D01*
X165720986Y-108809294D01*
X165494866Y-108994866D01*
X165309294Y-109220986D01*
X165280000Y-109275791D01*
X165250706Y-109220986D01*
X165065134Y-108994866D01*
X164839014Y-108809294D01*
X164581034Y-108671401D01*
X164301111Y-108586487D01*
X164082950Y-108565000D01*
X163937050Y-108565000D01*
X163718889Y-108586487D01*
X163438966Y-108671401D01*
X163180986Y-108809294D01*
X162954866Y-108994866D01*
X162769294Y-109220986D01*
X162740000Y-109275791D01*
X162710706Y-109220986D01*
X162525134Y-108994866D01*
X162299014Y-108809294D01*
X162041034Y-108671401D01*
X161761111Y-108586487D01*
X161542950Y-108565000D01*
X161397050Y-108565000D01*
X161178889Y-108586487D01*
X160898966Y-108671401D01*
X160640986Y-108809294D01*
X160414866Y-108994866D01*
X160229294Y-109220986D01*
X160200000Y-109275791D01*
X160170706Y-109220986D01*
X159985134Y-108994866D01*
X159759014Y-108809294D01*
X159501034Y-108671401D01*
X159221111Y-108586487D01*
X159002950Y-108565000D01*
X158857050Y-108565000D01*
X158638889Y-108586487D01*
X158358966Y-108671401D01*
X158100986Y-108809294D01*
X157874866Y-108994866D01*
X157689294Y-109220986D01*
X157660000Y-109275791D01*
X157630706Y-109220986D01*
X157445134Y-108994866D01*
X157219014Y-108809294D01*
X156961034Y-108671401D01*
X156681111Y-108586487D01*
X156462950Y-108565000D01*
X156317050Y-108565000D01*
X156098889Y-108586487D01*
X155818966Y-108671401D01*
X155560986Y-108809294D01*
X155334866Y-108994866D01*
X155149294Y-109220986D01*
X155120000Y-109275791D01*
X155090706Y-109220986D01*
X154905134Y-108994866D01*
X154679014Y-108809294D01*
X154421034Y-108671401D01*
X154141111Y-108586487D01*
X153922950Y-108565000D01*
X153777050Y-108565000D01*
X153558889Y-108586487D01*
X153278966Y-108671401D01*
X153020986Y-108809294D01*
X152794866Y-108994866D01*
X152609294Y-109220986D01*
X152580000Y-109275791D01*
X152550706Y-109220986D01*
X152365134Y-108994866D01*
X152139014Y-108809294D01*
X151881034Y-108671401D01*
X151601111Y-108586487D01*
X151382950Y-108565000D01*
X151237050Y-108565000D01*
X151018889Y-108586487D01*
X150738966Y-108671401D01*
X150480986Y-108809294D01*
X150254866Y-108994866D01*
X150069294Y-109220986D01*
X150040000Y-109275791D01*
X150010706Y-109220986D01*
X149825134Y-108994866D01*
X149599014Y-108809294D01*
X149341034Y-108671401D01*
X149061111Y-108586487D01*
X148842950Y-108565000D01*
X148697050Y-108565000D01*
X148478889Y-108586487D01*
X148198966Y-108671401D01*
X147940986Y-108809294D01*
X147714866Y-108994866D01*
X147529294Y-109220986D01*
X147500000Y-109275791D01*
X147470706Y-109220986D01*
X147285134Y-108994866D01*
X147059014Y-108809294D01*
X146801034Y-108671401D01*
X146521111Y-108586487D01*
X146302950Y-108565000D01*
X146157050Y-108565000D01*
X145938889Y-108586487D01*
X145658966Y-108671401D01*
X145400986Y-108809294D01*
X145174866Y-108994866D01*
X144989294Y-109220986D01*
X144960000Y-109275791D01*
X144930706Y-109220986D01*
X144745134Y-108994866D01*
X144519014Y-108809294D01*
X144261034Y-108671401D01*
X143981111Y-108586487D01*
X143762950Y-108565000D01*
X143617050Y-108565000D01*
X143398889Y-108586487D01*
X143118966Y-108671401D01*
X142860986Y-108809294D01*
X142634866Y-108994866D01*
X142449294Y-109220986D01*
X142420000Y-109275791D01*
X142390706Y-109220986D01*
X142205134Y-108994866D01*
X141979014Y-108809294D01*
X141721034Y-108671401D01*
X141441111Y-108586487D01*
X141222950Y-108565000D01*
X141077050Y-108565000D01*
X140858889Y-108586487D01*
X140578966Y-108671401D01*
X140320986Y-108809294D01*
X140094866Y-108994866D01*
X139909294Y-109220986D01*
X139880000Y-109275791D01*
X139850706Y-109220986D01*
X139665134Y-108994866D01*
X139439014Y-108809294D01*
X139181034Y-108671401D01*
X138901111Y-108586487D01*
X138682950Y-108565000D01*
X138537050Y-108565000D01*
X138318889Y-108586487D01*
X138038966Y-108671401D01*
X137780986Y-108809294D01*
X137554866Y-108994866D01*
X137369294Y-109220986D01*
X137340000Y-109275791D01*
X137310706Y-109220986D01*
X137125134Y-108994866D01*
X136899014Y-108809294D01*
X136641034Y-108671401D01*
X136361111Y-108586487D01*
X136142950Y-108565000D01*
X135997050Y-108565000D01*
X135778889Y-108586487D01*
X135498966Y-108671401D01*
X135240986Y-108809294D01*
X135014866Y-108994866D01*
X134829294Y-109220986D01*
X134800000Y-109275791D01*
X134770706Y-109220986D01*
X134585134Y-108994866D01*
X134359014Y-108809294D01*
X134101034Y-108671401D01*
X133821111Y-108586487D01*
X133602950Y-108565000D01*
X133457050Y-108565000D01*
X133238889Y-108586487D01*
X133191131Y-108600974D01*
X133045000Y-108454843D01*
X133045000Y-107954495D01*
X186805000Y-107954495D01*
X186805000Y-108345505D01*
X186881282Y-108729003D01*
X187030915Y-109090250D01*
X187248149Y-109415364D01*
X187524636Y-109691851D01*
X187849750Y-109909085D01*
X188210997Y-110058718D01*
X188594495Y-110135000D01*
X188985505Y-110135000D01*
X189369003Y-110058718D01*
X189730250Y-109909085D01*
X190055364Y-109691851D01*
X190331851Y-109415364D01*
X190549085Y-109090250D01*
X190698718Y-108729003D01*
X190775000Y-108345505D01*
X190775000Y-107954495D01*
X190698718Y-107570997D01*
X190549085Y-107209750D01*
X190331851Y-106884636D01*
X190055364Y-106608149D01*
X189730250Y-106390915D01*
X189369003Y-106241282D01*
X188985505Y-106165000D01*
X188594495Y-106165000D01*
X188210997Y-106241282D01*
X187849750Y-106390915D01*
X187524636Y-106608149D01*
X187248149Y-106884636D01*
X187030915Y-107209750D01*
X186881282Y-107570997D01*
X186805000Y-107954495D01*
X133045000Y-107954495D01*
X133045000Y-97034232D01*
X133089014Y-97010706D01*
X133315134Y-96825134D01*
X133500706Y-96599014D01*
X133524232Y-96555000D01*
X133535768Y-96555000D01*
X133559294Y-96599014D01*
X133744866Y-96825134D01*
X133970986Y-97010706D01*
X134228966Y-97148599D01*
X134508889Y-97233513D01*
X134727050Y-97255000D01*
X134872950Y-97255000D01*
X135091111Y-97233513D01*
X135371034Y-97148599D01*
X135629014Y-97010706D01*
X135855134Y-96825134D01*
X136040706Y-96599014D01*
X136075201Y-96534477D01*
X136144822Y-96651355D01*
X136339731Y-96867588D01*
X136573080Y-97041641D01*
X136835901Y-97166825D01*
X136983110Y-97211476D01*
X137213000Y-97090155D01*
X137213000Y-95897000D01*
X137193000Y-95897000D01*
X137193000Y-95643000D01*
X137213000Y-95643000D01*
X137213000Y-95623000D01*
X137467000Y-95623000D01*
X137467000Y-95643000D01*
X137487000Y-95643000D01*
X137487000Y-95897000D01*
X137467000Y-95897000D01*
X137467000Y-97090155D01*
X137696890Y-97211476D01*
X137844099Y-97166825D01*
X138106920Y-97041641D01*
X138340269Y-96867588D01*
X138535178Y-96651355D01*
X138604799Y-96534477D01*
X138639294Y-96599014D01*
X138824866Y-96825134D01*
X139050986Y-97010706D01*
X139150486Y-97063890D01*
X139155635Y-97116166D01*
X139165474Y-97148599D01*
X139197664Y-97254714D01*
X139265914Y-97382401D01*
X139357763Y-97494319D01*
X139385808Y-97517335D01*
X140882675Y-99014203D01*
X140905691Y-99042248D01*
X141017609Y-99134097D01*
X141145296Y-99202347D01*
X141241815Y-99231626D01*
X141283843Y-99244375D01*
X141298061Y-99245775D01*
X141391824Y-99255010D01*
X141391831Y-99255010D01*
X141427928Y-99258565D01*
X141464025Y-99255010D01*
X188108875Y-99255010D01*
X188144980Y-99258566D01*
X188181085Y-99255010D01*
X188289065Y-99244375D01*
X188427613Y-99202347D01*
X188555300Y-99134097D01*
X188667218Y-99042248D01*
X188690239Y-99014197D01*
X192748800Y-94955637D01*
X192748800Y-102903264D01*
X192748800Y-102903264D01*
G37*
X192748800Y-102903264D02*
X192734160Y-103455978D01*
X192699709Y-103988039D01*
X192629142Y-104519819D01*
X192536880Y-105053735D01*
X192425300Y-105578077D01*
X192278499Y-106088777D01*
X192108139Y-106606842D01*
X191918515Y-107105680D01*
X191701567Y-107594188D01*
X191454386Y-108075299D01*
X191192935Y-108547687D01*
X190906258Y-108995946D01*
X190595923Y-109440140D01*
X190265786Y-109861317D01*
X189914506Y-110268616D01*
X189540902Y-110656539D01*
X189153133Y-111030422D01*
X188746050Y-111381180D01*
X188324745Y-111711183D01*
X187880383Y-112021502D01*
X187432267Y-112308707D01*
X186959742Y-112569510D01*
X186478587Y-112817478D01*
X185990379Y-113033623D01*
X185701762Y-113143433D01*
X185771481Y-112946891D01*
X185650814Y-112717000D01*
X184457000Y-112717000D01*
X184457000Y-112737000D01*
X184203000Y-112737000D01*
X184203000Y-112717000D01*
X184183000Y-112717000D01*
X184183000Y-112463000D01*
X184203000Y-112463000D01*
X184203000Y-110177000D01*
X184457000Y-110177000D01*
X184457000Y-112463000D01*
X185650814Y-112463000D01*
X185771481Y-112233109D01*
X185674157Y-111958748D01*
X185525178Y-111708645D01*
X185330269Y-111492412D01*
X185099120Y-111320000D01*
X185330269Y-111147588D01*
X185525178Y-110931355D01*
X185674157Y-110681252D01*
X185771481Y-110406891D01*
X185650814Y-110177000D01*
X184457000Y-110177000D01*
X184203000Y-110177000D01*
X181917000Y-110177000D01*
X181917000Y-110197000D01*
X181663000Y-110197000D01*
X181663000Y-110177000D01*
X181643000Y-110177000D01*
X181643000Y-109923000D01*
X181663000Y-109923000D01*
X181663000Y-108729845D01*
X181917000Y-108729845D01*
X181917000Y-109923000D01*
X184203000Y-109923000D01*
X184203000Y-108729845D01*
X184457000Y-108729845D01*
X184457000Y-109923000D01*
X185650814Y-109923000D01*
X185771481Y-109693109D01*
X185674157Y-109418748D01*
X185525178Y-109168645D01*
X185330269Y-108952412D01*
X185096920Y-108778359D01*
X184834099Y-108653175D01*
X184686890Y-108608524D01*
X184457000Y-108729845D01*
X184203000Y-108729845D01*
X183973110Y-108608524D01*
X183825901Y-108653175D01*
X183563080Y-108778359D01*
X183329731Y-108952412D01*
X183134822Y-109168645D01*
X183060000Y-109294255D01*
X182985178Y-109168645D01*
X182790269Y-108952412D01*
X182556920Y-108778359D01*
X182294099Y-108653175D01*
X182146890Y-108608524D01*
X181917000Y-108729845D01*
X181663000Y-108729845D01*
X181433110Y-108608524D01*
X181285901Y-108653175D01*
X181023080Y-108778359D01*
X180789731Y-108952412D01*
X180594822Y-109168645D01*
X180525201Y-109285523D01*
X180490706Y-109220986D01*
X180305134Y-108994866D01*
X180079014Y-108809294D01*
X179821034Y-108671401D01*
X179541111Y-108586487D01*
X179322950Y-108565000D01*
X179177050Y-108565000D01*
X178958889Y-108586487D01*
X178678966Y-108671401D01*
X178420986Y-108809294D01*
X178194866Y-108994866D01*
X178009294Y-109220986D01*
X177980000Y-109275791D01*
X177950706Y-109220986D01*
X177765134Y-108994866D01*
X177539014Y-108809294D01*
X177281034Y-108671401D01*
X177001111Y-108586487D01*
X176782950Y-108565000D01*
X176637050Y-108565000D01*
X176418889Y-108586487D01*
X176138966Y-108671401D01*
X175880986Y-108809294D01*
X175654866Y-108994866D01*
X175469294Y-109220986D01*
X175440000Y-109275791D01*
X175410706Y-109220986D01*
X175225134Y-108994866D01*
X174999014Y-108809294D01*
X174741034Y-108671401D01*
X174461111Y-108586487D01*
X174242950Y-108565000D01*
X174097050Y-108565000D01*
X173878889Y-108586487D01*
X173598966Y-108671401D01*
X173340986Y-108809294D01*
X173114866Y-108994866D01*
X172929294Y-109220986D01*
X172900000Y-109275791D01*
X172870706Y-109220986D01*
X172685134Y-108994866D01*
X172459014Y-108809294D01*
X172201034Y-108671401D01*
X171921111Y-108586487D01*
X171702950Y-108565000D01*
X171557050Y-108565000D01*
X171338889Y-108586487D01*
X171058966Y-108671401D01*
X170800986Y-108809294D01*
X170574866Y-108994866D01*
X170389294Y-109220986D01*
X170360000Y-109275791D01*
X170330706Y-109220986D01*
X170145134Y-108994866D01*
X169919014Y-108809294D01*
X169661034Y-108671401D01*
X169381111Y-108586487D01*
X169162950Y-108565000D01*
X169017050Y-108565000D01*
X168798889Y-108586487D01*
X168518966Y-108671401D01*
X168260986Y-108809294D01*
X168034866Y-108994866D01*
X167849294Y-109220986D01*
X167820000Y-109275791D01*
X167790706Y-109220986D01*
X167605134Y-108994866D01*
X167379014Y-108809294D01*
X167121034Y-108671401D01*
X166841111Y-108586487D01*
X166622950Y-108565000D01*
X166477050Y-108565000D01*
X166258889Y-108586487D01*
X165978966Y-108671401D01*
X165720986Y-108809294D01*
X165494866Y-108994866D01*
X165309294Y-109220986D01*
X165280000Y-109275791D01*
X165250706Y-109220986D01*
X165065134Y-108994866D01*
X164839014Y-108809294D01*
X164581034Y-108671401D01*
X164301111Y-108586487D01*
X164082950Y-108565000D01*
X163937050Y-108565000D01*
X163718889Y-108586487D01*
X163438966Y-108671401D01*
X163180986Y-108809294D01*
X162954866Y-108994866D01*
X162769294Y-109220986D01*
X162740000Y-109275791D01*
X162710706Y-109220986D01*
X162525134Y-108994866D01*
X162299014Y-108809294D01*
X162041034Y-108671401D01*
X161761111Y-108586487D01*
X161542950Y-108565000D01*
X161397050Y-108565000D01*
X161178889Y-108586487D01*
X160898966Y-108671401D01*
X160640986Y-108809294D01*
X160414866Y-108994866D01*
X160229294Y-109220986D01*
X160200000Y-109275791D01*
X160170706Y-109220986D01*
X159985134Y-108994866D01*
X159759014Y-108809294D01*
X159501034Y-108671401D01*
X159221111Y-108586487D01*
X159002950Y-108565000D01*
X158857050Y-108565000D01*
X158638889Y-108586487D01*
X158358966Y-108671401D01*
X158100986Y-108809294D01*
X157874866Y-108994866D01*
X157689294Y-109220986D01*
X157660000Y-109275791D01*
X157630706Y-109220986D01*
X157445134Y-108994866D01*
X157219014Y-108809294D01*
X156961034Y-108671401D01*
X156681111Y-108586487D01*
X156462950Y-108565000D01*
X156317050Y-108565000D01*
X156098889Y-108586487D01*
X155818966Y-108671401D01*
X155560986Y-108809294D01*
X155334866Y-108994866D01*
X155149294Y-109220986D01*
X155120000Y-109275791D01*
X155090706Y-109220986D01*
X154905134Y-108994866D01*
X154679014Y-108809294D01*
X154421034Y-108671401D01*
X154141111Y-108586487D01*
X153922950Y-108565000D01*
X153777050Y-108565000D01*
X153558889Y-108586487D01*
X153278966Y-108671401D01*
X153020986Y-108809294D01*
X152794866Y-108994866D01*
X152609294Y-109220986D01*
X152580000Y-109275791D01*
X152550706Y-109220986D01*
X152365134Y-108994866D01*
X152139014Y-108809294D01*
X151881034Y-108671401D01*
X151601111Y-108586487D01*
X151382950Y-108565000D01*
X151237050Y-108565000D01*
X151018889Y-108586487D01*
X150738966Y-108671401D01*
X150480986Y-108809294D01*
X150254866Y-108994866D01*
X150069294Y-109220986D01*
X150040000Y-109275791D01*
X150010706Y-109220986D01*
X149825134Y-108994866D01*
X149599014Y-108809294D01*
X149341034Y-108671401D01*
X149061111Y-108586487D01*
X148842950Y-108565000D01*
X148697050Y-108565000D01*
X148478889Y-108586487D01*
X148198966Y-108671401D01*
X147940986Y-108809294D01*
X147714866Y-108994866D01*
X147529294Y-109220986D01*
X147500000Y-109275791D01*
X147470706Y-109220986D01*
X147285134Y-108994866D01*
X147059014Y-108809294D01*
X146801034Y-108671401D01*
X146521111Y-108586487D01*
X146302950Y-108565000D01*
X146157050Y-108565000D01*
X145938889Y-108586487D01*
X145658966Y-108671401D01*
X145400986Y-108809294D01*
X145174866Y-108994866D01*
X144989294Y-109220986D01*
X144960000Y-109275791D01*
X144930706Y-109220986D01*
X144745134Y-108994866D01*
X144519014Y-108809294D01*
X144261034Y-108671401D01*
X143981111Y-108586487D01*
X143762950Y-108565000D01*
X143617050Y-108565000D01*
X143398889Y-108586487D01*
X143118966Y-108671401D01*
X142860986Y-108809294D01*
X142634866Y-108994866D01*
X142449294Y-109220986D01*
X142420000Y-109275791D01*
X142390706Y-109220986D01*
X142205134Y-108994866D01*
X141979014Y-108809294D01*
X141721034Y-108671401D01*
X141441111Y-108586487D01*
X141222950Y-108565000D01*
X141077050Y-108565000D01*
X140858889Y-108586487D01*
X140578966Y-108671401D01*
X140320986Y-108809294D01*
X140094866Y-108994866D01*
X139909294Y-109220986D01*
X139880000Y-109275791D01*
X139850706Y-109220986D01*
X139665134Y-108994866D01*
X139439014Y-108809294D01*
X139181034Y-108671401D01*
X138901111Y-108586487D01*
X138682950Y-108565000D01*
X138537050Y-108565000D01*
X138318889Y-108586487D01*
X138038966Y-108671401D01*
X137780986Y-108809294D01*
X137554866Y-108994866D01*
X137369294Y-109220986D01*
X137340000Y-109275791D01*
X137310706Y-109220986D01*
X137125134Y-108994866D01*
X136899014Y-108809294D01*
X136641034Y-108671401D01*
X136361111Y-108586487D01*
X136142950Y-108565000D01*
X135997050Y-108565000D01*
X135778889Y-108586487D01*
X135498966Y-108671401D01*
X135240986Y-108809294D01*
X135014866Y-108994866D01*
X134829294Y-109220986D01*
X134800000Y-109275791D01*
X134770706Y-109220986D01*
X134585134Y-108994866D01*
X134359014Y-108809294D01*
X134101034Y-108671401D01*
X133821111Y-108586487D01*
X133602950Y-108565000D01*
X133457050Y-108565000D01*
X133238889Y-108586487D01*
X133191131Y-108600974D01*
X133045000Y-108454843D01*
X133045000Y-107954495D01*
X186805000Y-107954495D01*
X186805000Y-108345505D01*
X186881282Y-108729003D01*
X187030915Y-109090250D01*
X187248149Y-109415364D01*
X187524636Y-109691851D01*
X187849750Y-109909085D01*
X188210997Y-110058718D01*
X188594495Y-110135000D01*
X188985505Y-110135000D01*
X189369003Y-110058718D01*
X189730250Y-109909085D01*
X190055364Y-109691851D01*
X190331851Y-109415364D01*
X190549085Y-109090250D01*
X190698718Y-108729003D01*
X190775000Y-108345505D01*
X190775000Y-107954495D01*
X190698718Y-107570997D01*
X190549085Y-107209750D01*
X190331851Y-106884636D01*
X190055364Y-106608149D01*
X189730250Y-106390915D01*
X189369003Y-106241282D01*
X188985505Y-106165000D01*
X188594495Y-106165000D01*
X188210997Y-106241282D01*
X187849750Y-106390915D01*
X187524636Y-106608149D01*
X187248149Y-106884636D01*
X187030915Y-107209750D01*
X186881282Y-107570997D01*
X186805000Y-107954495D01*
X133045000Y-107954495D01*
X133045000Y-97034232D01*
X133089014Y-97010706D01*
X133315134Y-96825134D01*
X133500706Y-96599014D01*
X133524232Y-96555000D01*
X133535768Y-96555000D01*
X133559294Y-96599014D01*
X133744866Y-96825134D01*
X133970986Y-97010706D01*
X134228966Y-97148599D01*
X134508889Y-97233513D01*
X134727050Y-97255000D01*
X134872950Y-97255000D01*
X135091111Y-97233513D01*
X135371034Y-97148599D01*
X135629014Y-97010706D01*
X135855134Y-96825134D01*
X136040706Y-96599014D01*
X136075201Y-96534477D01*
X136144822Y-96651355D01*
X136339731Y-96867588D01*
X136573080Y-97041641D01*
X136835901Y-97166825D01*
X136983110Y-97211476D01*
X137213000Y-97090155D01*
X137213000Y-95897000D01*
X137193000Y-95897000D01*
X137193000Y-95643000D01*
X137213000Y-95643000D01*
X137213000Y-95623000D01*
X137467000Y-95623000D01*
X137467000Y-95643000D01*
X137487000Y-95643000D01*
X137487000Y-95897000D01*
X137467000Y-95897000D01*
X137467000Y-97090155D01*
X137696890Y-97211476D01*
X137844099Y-97166825D01*
X138106920Y-97041641D01*
X138340269Y-96867588D01*
X138535178Y-96651355D01*
X138604799Y-96534477D01*
X138639294Y-96599014D01*
X138824866Y-96825134D01*
X139050986Y-97010706D01*
X139150486Y-97063890D01*
X139155635Y-97116166D01*
X139165474Y-97148599D01*
X139197664Y-97254714D01*
X139265914Y-97382401D01*
X139357763Y-97494319D01*
X139385808Y-97517335D01*
X140882675Y-99014203D01*
X140905691Y-99042248D01*
X141017609Y-99134097D01*
X141145296Y-99202347D01*
X141241815Y-99231626D01*
X141283843Y-99244375D01*
X141298061Y-99245775D01*
X141391824Y-99255010D01*
X141391831Y-99255010D01*
X141427928Y-99258565D01*
X141464025Y-99255010D01*
X188108875Y-99255010D01*
X188144980Y-99258566D01*
X188181085Y-99255010D01*
X188289065Y-99244375D01*
X188427613Y-99202347D01*
X188555300Y-99134097D01*
X188667218Y-99042248D01*
X188690239Y-99014197D01*
X192748800Y-94955637D01*
X192748800Y-102903264D01*
G36*
X147627000Y-95643000D02*
G01*
X147647000Y-95643000D01*
X147647000Y-95897000D01*
X147627000Y-95897000D01*
X147627000Y-97090155D01*
X147856890Y-97211476D01*
X148004099Y-97166825D01*
X148266920Y-97041641D01*
X148500269Y-96867588D01*
X148695178Y-96651355D01*
X148764799Y-96534477D01*
X148799294Y-96599014D01*
X148984866Y-96825134D01*
X149210986Y-97010706D01*
X149468966Y-97148599D01*
X149748889Y-97233513D01*
X149967050Y-97255000D01*
X150112950Y-97255000D01*
X150331111Y-97233513D01*
X150611034Y-97148599D01*
X150869014Y-97010706D01*
X151095134Y-96825134D01*
X151280706Y-96599014D01*
X151310000Y-96544209D01*
X151339294Y-96599014D01*
X151524866Y-96825134D01*
X151750986Y-97010706D01*
X152008966Y-97148599D01*
X152288889Y-97233513D01*
X152507050Y-97255000D01*
X152652950Y-97255000D01*
X152871111Y-97233513D01*
X153151034Y-97148599D01*
X153409014Y-97010706D01*
X153635134Y-96825134D01*
X153820706Y-96599014D01*
X153855201Y-96534477D01*
X153924822Y-96651355D01*
X154119731Y-96867588D01*
X154353080Y-97041641D01*
X154615901Y-97166825D01*
X154763110Y-97211476D01*
X154993000Y-97090155D01*
X154993000Y-95897000D01*
X154973000Y-95897000D01*
X154973000Y-95643000D01*
X154993000Y-95643000D01*
X154993000Y-95623000D01*
X155247000Y-95623000D01*
X155247000Y-95643000D01*
X155267000Y-95643000D01*
X155267000Y-95897000D01*
X155247000Y-95897000D01*
X155247000Y-97090155D01*
X155476890Y-97211476D01*
X155624099Y-97166825D01*
X155886920Y-97041641D01*
X156120269Y-96867588D01*
X156315178Y-96651355D01*
X156384799Y-96534477D01*
X156419294Y-96599014D01*
X156604866Y-96825134D01*
X156830986Y-97010706D01*
X157088966Y-97148599D01*
X157368889Y-97233513D01*
X157587050Y-97255000D01*
X157732950Y-97255000D01*
X157951111Y-97233513D01*
X158231034Y-97148599D01*
X158489014Y-97010706D01*
X158715134Y-96825134D01*
X158900706Y-96599014D01*
X158930000Y-96544209D01*
X158959294Y-96599014D01*
X159144866Y-96825134D01*
X159370986Y-97010706D01*
X159628966Y-97148599D01*
X159908889Y-97233513D01*
X160127050Y-97255000D01*
X160272950Y-97255000D01*
X160491111Y-97233513D01*
X160771034Y-97148599D01*
X161029014Y-97010706D01*
X161255134Y-96825134D01*
X161440706Y-96599014D01*
X161470000Y-96544209D01*
X161499294Y-96599014D01*
X161684866Y-96825134D01*
X161910986Y-97010706D01*
X162168966Y-97148599D01*
X162448889Y-97233513D01*
X162667050Y-97255000D01*
X162812950Y-97255000D01*
X163031111Y-97233513D01*
X163311034Y-97148599D01*
X163569014Y-97010706D01*
X163795134Y-96825134D01*
X163980706Y-96599014D01*
X164010000Y-96544209D01*
X164039294Y-96599014D01*
X164224866Y-96825134D01*
X164450986Y-97010706D01*
X164708966Y-97148599D01*
X164988889Y-97233513D01*
X165207050Y-97255000D01*
X165352950Y-97255000D01*
X165571111Y-97233513D01*
X165851034Y-97148599D01*
X166109014Y-97010706D01*
X166335134Y-96825134D01*
X166520706Y-96599014D01*
X166555201Y-96534477D01*
X166624822Y-96651355D01*
X166819731Y-96867588D01*
X167053080Y-97041641D01*
X167315901Y-97166825D01*
X167463110Y-97211476D01*
X167693000Y-97090155D01*
X167693000Y-95897000D01*
X167673000Y-95897000D01*
X167673000Y-95643000D01*
X167693000Y-95643000D01*
X167693000Y-95623000D01*
X167947000Y-95623000D01*
X167947000Y-95643000D01*
X167967000Y-95643000D01*
X167967000Y-95897000D01*
X167947000Y-95897000D01*
X167947000Y-97090155D01*
X168176890Y-97211476D01*
X168324099Y-97166825D01*
X168586920Y-97041641D01*
X168820269Y-96867588D01*
X169015178Y-96651355D01*
X169084799Y-96534477D01*
X169119294Y-96599014D01*
X169304866Y-96825134D01*
X169530986Y-97010706D01*
X169788966Y-97148599D01*
X170068889Y-97233513D01*
X170287050Y-97255000D01*
X170432950Y-97255000D01*
X170651111Y-97233513D01*
X170931034Y-97148599D01*
X171189014Y-97010706D01*
X171415134Y-96825134D01*
X171600706Y-96599014D01*
X171635201Y-96534477D01*
X171704822Y-96651355D01*
X171899731Y-96867588D01*
X172133080Y-97041641D01*
X172395901Y-97166825D01*
X172543110Y-97211476D01*
X172773000Y-97090155D01*
X172773000Y-95897000D01*
X172753000Y-95897000D01*
X172753000Y-95643000D01*
X172773000Y-95643000D01*
X172773000Y-95623000D01*
X173027000Y-95623000D01*
X173027000Y-95643000D01*
X173047000Y-95643000D01*
X173047000Y-95897000D01*
X173027000Y-95897000D01*
X173027000Y-97090155D01*
X173256890Y-97211476D01*
X173404099Y-97166825D01*
X173666920Y-97041641D01*
X173900269Y-96867588D01*
X174095178Y-96651355D01*
X174164799Y-96534477D01*
X174199294Y-96599014D01*
X174384866Y-96825134D01*
X174610986Y-97010706D01*
X174868966Y-97148599D01*
X175148889Y-97233513D01*
X175367050Y-97255000D01*
X175512950Y-97255000D01*
X175731111Y-97233513D01*
X176011034Y-97148599D01*
X176269014Y-97010706D01*
X176495134Y-96825134D01*
X176680706Y-96599014D01*
X176710000Y-96544209D01*
X176739294Y-96599014D01*
X176924866Y-96825134D01*
X177150986Y-97010706D01*
X177408966Y-97148599D01*
X177688889Y-97233513D01*
X177907050Y-97255000D01*
X178052950Y-97255000D01*
X178271111Y-97233513D01*
X178551034Y-97148599D01*
X178809014Y-97010706D01*
X179035134Y-96825134D01*
X179220706Y-96599014D01*
X179250000Y-96544209D01*
X179279294Y-96599014D01*
X179464866Y-96825134D01*
X179690986Y-97010706D01*
X179948966Y-97148599D01*
X180228889Y-97233513D01*
X180447050Y-97255000D01*
X180592950Y-97255000D01*
X180811111Y-97233513D01*
X180913122Y-97202568D01*
X181495563Y-97785010D01*
X141732376Y-97785010D01*
X140845808Y-96898442D01*
X140935134Y-96825134D01*
X141120706Y-96599014D01*
X141150000Y-96544209D01*
X141179294Y-96599014D01*
X141364866Y-96825134D01*
X141590986Y-97010706D01*
X141848966Y-97148599D01*
X142128889Y-97233513D01*
X142347050Y-97255000D01*
X142492950Y-97255000D01*
X142711111Y-97233513D01*
X142991034Y-97148599D01*
X143249014Y-97010706D01*
X143475134Y-96825134D01*
X143660706Y-96599014D01*
X143690000Y-96544209D01*
X143719294Y-96599014D01*
X143904866Y-96825134D01*
X144130986Y-97010706D01*
X144388966Y-97148599D01*
X144668889Y-97233513D01*
X144887050Y-97255000D01*
X145032950Y-97255000D01*
X145251111Y-97233513D01*
X145531034Y-97148599D01*
X145789014Y-97010706D01*
X146015134Y-96825134D01*
X146200706Y-96599014D01*
X146235201Y-96534477D01*
X146304822Y-96651355D01*
X146499731Y-96867588D01*
X146733080Y-97041641D01*
X146995901Y-97166825D01*
X147143110Y-97211476D01*
X147373000Y-97090155D01*
X147373000Y-95897000D01*
X147353000Y-95897000D01*
X147353000Y-95643000D01*
X147373000Y-95643000D01*
X147373000Y-95623000D01*
X147627000Y-95623000D01*
X147627000Y-95643000D01*
X147627000Y-95643000D01*
G37*
X147627000Y-95643000D02*
X147647000Y-95643000D01*
X147647000Y-95897000D01*
X147627000Y-95897000D01*
X147627000Y-97090155D01*
X147856890Y-97211476D01*
X148004099Y-97166825D01*
X148266920Y-97041641D01*
X148500269Y-96867588D01*
X148695178Y-96651355D01*
X148764799Y-96534477D01*
X148799294Y-96599014D01*
X148984866Y-96825134D01*
X149210986Y-97010706D01*
X149468966Y-97148599D01*
X149748889Y-97233513D01*
X149967050Y-97255000D01*
X150112950Y-97255000D01*
X150331111Y-97233513D01*
X150611034Y-97148599D01*
X150869014Y-97010706D01*
X151095134Y-96825134D01*
X151280706Y-96599014D01*
X151310000Y-96544209D01*
X151339294Y-96599014D01*
X151524866Y-96825134D01*
X151750986Y-97010706D01*
X152008966Y-97148599D01*
X152288889Y-97233513D01*
X152507050Y-97255000D01*
X152652950Y-97255000D01*
X152871111Y-97233513D01*
X153151034Y-97148599D01*
X153409014Y-97010706D01*
X153635134Y-96825134D01*
X153820706Y-96599014D01*
X153855201Y-96534477D01*
X153924822Y-96651355D01*
X154119731Y-96867588D01*
X154353080Y-97041641D01*
X154615901Y-97166825D01*
X154763110Y-97211476D01*
X154993000Y-97090155D01*
X154993000Y-95897000D01*
X154973000Y-95897000D01*
X154973000Y-95643000D01*
X154993000Y-95643000D01*
X154993000Y-95623000D01*
X155247000Y-95623000D01*
X155247000Y-95643000D01*
X155267000Y-95643000D01*
X155267000Y-95897000D01*
X155247000Y-95897000D01*
X155247000Y-97090155D01*
X155476890Y-97211476D01*
X155624099Y-97166825D01*
X155886920Y-97041641D01*
X156120269Y-96867588D01*
X156315178Y-96651355D01*
X156384799Y-96534477D01*
X156419294Y-96599014D01*
X156604866Y-96825134D01*
X156830986Y-97010706D01*
X157088966Y-97148599D01*
X157368889Y-97233513D01*
X157587050Y-97255000D01*
X157732950Y-97255000D01*
X157951111Y-97233513D01*
X158231034Y-97148599D01*
X158489014Y-97010706D01*
X158715134Y-96825134D01*
X158900706Y-96599014D01*
X158930000Y-96544209D01*
X158959294Y-96599014D01*
X159144866Y-96825134D01*
X159370986Y-97010706D01*
X159628966Y-97148599D01*
X159908889Y-97233513D01*
X160127050Y-97255000D01*
X160272950Y-97255000D01*
X160491111Y-97233513D01*
X160771034Y-97148599D01*
X161029014Y-97010706D01*
X161255134Y-96825134D01*
X161440706Y-96599014D01*
X161470000Y-96544209D01*
X161499294Y-96599014D01*
X161684866Y-96825134D01*
X161910986Y-97010706D01*
X162168966Y-97148599D01*
X162448889Y-97233513D01*
X162667050Y-97255000D01*
X162812950Y-97255000D01*
X163031111Y-97233513D01*
X163311034Y-97148599D01*
X163569014Y-97010706D01*
X163795134Y-96825134D01*
X163980706Y-96599014D01*
X164010000Y-96544209D01*
X164039294Y-96599014D01*
X164224866Y-96825134D01*
X164450986Y-97010706D01*
X164708966Y-97148599D01*
X164988889Y-97233513D01*
X165207050Y-97255000D01*
X165352950Y-97255000D01*
X165571111Y-97233513D01*
X165851034Y-97148599D01*
X166109014Y-97010706D01*
X166335134Y-96825134D01*
X166520706Y-96599014D01*
X166555201Y-96534477D01*
X166624822Y-96651355D01*
X166819731Y-96867588D01*
X167053080Y-97041641D01*
X167315901Y-97166825D01*
X167463110Y-97211476D01*
X167693000Y-97090155D01*
X167693000Y-95897000D01*
X167673000Y-95897000D01*
X167673000Y-95643000D01*
X167693000Y-95643000D01*
X167693000Y-95623000D01*
X167947000Y-95623000D01*
X167947000Y-95643000D01*
X167967000Y-95643000D01*
X167967000Y-95897000D01*
X167947000Y-95897000D01*
X167947000Y-97090155D01*
X168176890Y-97211476D01*
X168324099Y-97166825D01*
X168586920Y-97041641D01*
X168820269Y-96867588D01*
X169015178Y-96651355D01*
X169084799Y-96534477D01*
X169119294Y-96599014D01*
X169304866Y-96825134D01*
X169530986Y-97010706D01*
X169788966Y-97148599D01*
X170068889Y-97233513D01*
X170287050Y-97255000D01*
X170432950Y-97255000D01*
X170651111Y-97233513D01*
X170931034Y-97148599D01*
X171189014Y-97010706D01*
X171415134Y-96825134D01*
X171600706Y-96599014D01*
X171635201Y-96534477D01*
X171704822Y-96651355D01*
X171899731Y-96867588D01*
X172133080Y-97041641D01*
X172395901Y-97166825D01*
X172543110Y-97211476D01*
X172773000Y-97090155D01*
X172773000Y-95897000D01*
X172753000Y-95897000D01*
X172753000Y-95643000D01*
X172773000Y-95643000D01*
X172773000Y-95623000D01*
X173027000Y-95623000D01*
X173027000Y-95643000D01*
X173047000Y-95643000D01*
X173047000Y-95897000D01*
X173027000Y-95897000D01*
X173027000Y-97090155D01*
X173256890Y-97211476D01*
X173404099Y-97166825D01*
X173666920Y-97041641D01*
X173900269Y-96867588D01*
X174095178Y-96651355D01*
X174164799Y-96534477D01*
X174199294Y-96599014D01*
X174384866Y-96825134D01*
X174610986Y-97010706D01*
X174868966Y-97148599D01*
X175148889Y-97233513D01*
X175367050Y-97255000D01*
X175512950Y-97255000D01*
X175731111Y-97233513D01*
X176011034Y-97148599D01*
X176269014Y-97010706D01*
X176495134Y-96825134D01*
X176680706Y-96599014D01*
X176710000Y-96544209D01*
X176739294Y-96599014D01*
X176924866Y-96825134D01*
X177150986Y-97010706D01*
X177408966Y-97148599D01*
X177688889Y-97233513D01*
X177907050Y-97255000D01*
X178052950Y-97255000D01*
X178271111Y-97233513D01*
X178551034Y-97148599D01*
X178809014Y-97010706D01*
X179035134Y-96825134D01*
X179220706Y-96599014D01*
X179250000Y-96544209D01*
X179279294Y-96599014D01*
X179464866Y-96825134D01*
X179690986Y-97010706D01*
X179948966Y-97148599D01*
X180228889Y-97233513D01*
X180447050Y-97255000D01*
X180592950Y-97255000D01*
X180811111Y-97233513D01*
X180913122Y-97202568D01*
X181495563Y-97785010D01*
X141732376Y-97785010D01*
X140845808Y-96898442D01*
X140935134Y-96825134D01*
X141120706Y-96599014D01*
X141150000Y-96544209D01*
X141179294Y-96599014D01*
X141364866Y-96825134D01*
X141590986Y-97010706D01*
X141848966Y-97148599D01*
X142128889Y-97233513D01*
X142347050Y-97255000D01*
X142492950Y-97255000D01*
X142711111Y-97233513D01*
X142991034Y-97148599D01*
X143249014Y-97010706D01*
X143475134Y-96825134D01*
X143660706Y-96599014D01*
X143690000Y-96544209D01*
X143719294Y-96599014D01*
X143904866Y-96825134D01*
X144130986Y-97010706D01*
X144388966Y-97148599D01*
X144668889Y-97233513D01*
X144887050Y-97255000D01*
X145032950Y-97255000D01*
X145251111Y-97233513D01*
X145531034Y-97148599D01*
X145789014Y-97010706D01*
X146015134Y-96825134D01*
X146200706Y-96599014D01*
X146235201Y-96534477D01*
X146304822Y-96651355D01*
X146499731Y-96867588D01*
X146733080Y-97041641D01*
X146995901Y-97166825D01*
X147143110Y-97211476D01*
X147373000Y-97090155D01*
X147373000Y-95897000D01*
X147353000Y-95897000D01*
X147353000Y-95643000D01*
X147373000Y-95643000D01*
X147373000Y-95623000D01*
X147627000Y-95623000D01*
X147627000Y-95643000D01*
G36*
X178390932Y-84892729D02*
G01*
X178461414Y-85062889D01*
X178563738Y-85216028D01*
X178693972Y-85346262D01*
X178847111Y-85448586D01*
X179017271Y-85519068D01*
X179197911Y-85555000D01*
X179382089Y-85555000D01*
X179562729Y-85519068D01*
X179732889Y-85448586D01*
X179872951Y-85355000D01*
X191585554Y-85355000D01*
X192048780Y-85818227D01*
X192048779Y-93081774D01*
X187695554Y-97435000D01*
X183224447Y-97435000D01*
X181952568Y-96163122D01*
X181983513Y-96061111D01*
X182012185Y-95770000D01*
X181983513Y-95478889D01*
X181898599Y-95198966D01*
X181760706Y-94940986D01*
X181575134Y-94714866D01*
X181349014Y-94529294D01*
X181291244Y-94498416D01*
X181520269Y-94327588D01*
X181541084Y-94304495D01*
X183405000Y-94304495D01*
X183405000Y-94695505D01*
X183481282Y-95079003D01*
X183630915Y-95440250D01*
X183848149Y-95765364D01*
X184124636Y-96041851D01*
X184449750Y-96259085D01*
X184810997Y-96408718D01*
X185194495Y-96485000D01*
X185585505Y-96485000D01*
X185969003Y-96408718D01*
X186330250Y-96259085D01*
X186655364Y-96041851D01*
X186931851Y-95765364D01*
X187149085Y-95440250D01*
X187298718Y-95079003D01*
X187375000Y-94695505D01*
X187375000Y-94304495D01*
X187298718Y-93920997D01*
X187149085Y-93559750D01*
X186931851Y-93234636D01*
X186655364Y-92958149D01*
X186330250Y-92740915D01*
X185969003Y-92591282D01*
X185585505Y-92515000D01*
X185194495Y-92515000D01*
X184810997Y-92591282D01*
X184449750Y-92740915D01*
X184124636Y-92958149D01*
X183848149Y-93234636D01*
X183630915Y-93559750D01*
X183481282Y-93920997D01*
X183405000Y-94304495D01*
X181541084Y-94304495D01*
X181715178Y-94111355D01*
X181864157Y-93861252D01*
X181961481Y-93586891D01*
X181840814Y-93357000D01*
X180647000Y-93357000D01*
X180647000Y-93377000D01*
X180393000Y-93377000D01*
X180393000Y-93357000D01*
X180373000Y-93357000D01*
X180373000Y-93103000D01*
X180393000Y-93103000D01*
X180393000Y-91909845D01*
X180647000Y-91909845D01*
X180647000Y-93103000D01*
X181840814Y-93103000D01*
X181961481Y-92873109D01*
X181864157Y-92598748D01*
X181715178Y-92348645D01*
X181520269Y-92132412D01*
X181286920Y-91958359D01*
X181024099Y-91833175D01*
X180876890Y-91788524D01*
X180647000Y-91909845D01*
X180393000Y-91909845D01*
X180163110Y-91788524D01*
X180015901Y-91833175D01*
X179753080Y-91958359D01*
X179519731Y-92132412D01*
X179324822Y-92348645D01*
X179255201Y-92465523D01*
X179220706Y-92400986D01*
X179035134Y-92174866D01*
X178809014Y-91989294D01*
X178551034Y-91851401D01*
X178271111Y-91766487D01*
X178052950Y-91745000D01*
X177907050Y-91745000D01*
X177688889Y-91766487D01*
X177455000Y-91837437D01*
X177455000Y-89284446D01*
X178967515Y-87771931D01*
X179132729Y-87739068D01*
X179302889Y-87668586D01*
X179456028Y-87566262D01*
X179586262Y-87436028D01*
X179688586Y-87282889D01*
X179759068Y-87112729D01*
X179795000Y-86932089D01*
X179795000Y-86747911D01*
X179759068Y-86567271D01*
X179688586Y-86397111D01*
X179586262Y-86243972D01*
X179456028Y-86113738D01*
X179302889Y-86011414D01*
X179132729Y-85940932D01*
X178952089Y-85905000D01*
X178767911Y-85905000D01*
X178587271Y-85940932D01*
X178417111Y-86011414D01*
X178263972Y-86113738D01*
X178133738Y-86243972D01*
X178031414Y-86397111D01*
X177960932Y-86567271D01*
X177928069Y-86732485D01*
X176225808Y-88434746D01*
X176197763Y-88457762D01*
X176175000Y-88485499D01*
X176175000Y-86974446D01*
X178368664Y-84780782D01*
X178390932Y-84892729D01*
X178390932Y-84892729D01*
G37*
X178390932Y-84892729D02*
X178461414Y-85062889D01*
X178563738Y-85216028D01*
X178693972Y-85346262D01*
X178847111Y-85448586D01*
X179017271Y-85519068D01*
X179197911Y-85555000D01*
X179382089Y-85555000D01*
X179562729Y-85519068D01*
X179732889Y-85448586D01*
X179872951Y-85355000D01*
X191585554Y-85355000D01*
X192048780Y-85818227D01*
X192048779Y-93081774D01*
X187695554Y-97435000D01*
X183224447Y-97435000D01*
X181952568Y-96163122D01*
X181983513Y-96061111D01*
X182012185Y-95770000D01*
X181983513Y-95478889D01*
X181898599Y-95198966D01*
X181760706Y-94940986D01*
X181575134Y-94714866D01*
X181349014Y-94529294D01*
X181291244Y-94498416D01*
X181520269Y-94327588D01*
X181541084Y-94304495D01*
X183405000Y-94304495D01*
X183405000Y-94695505D01*
X183481282Y-95079003D01*
X183630915Y-95440250D01*
X183848149Y-95765364D01*
X184124636Y-96041851D01*
X184449750Y-96259085D01*
X184810997Y-96408718D01*
X185194495Y-96485000D01*
X185585505Y-96485000D01*
X185969003Y-96408718D01*
X186330250Y-96259085D01*
X186655364Y-96041851D01*
X186931851Y-95765364D01*
X187149085Y-95440250D01*
X187298718Y-95079003D01*
X187375000Y-94695505D01*
X187375000Y-94304495D01*
X187298718Y-93920997D01*
X187149085Y-93559750D01*
X186931851Y-93234636D01*
X186655364Y-92958149D01*
X186330250Y-92740915D01*
X185969003Y-92591282D01*
X185585505Y-92515000D01*
X185194495Y-92515000D01*
X184810997Y-92591282D01*
X184449750Y-92740915D01*
X184124636Y-92958149D01*
X183848149Y-93234636D01*
X183630915Y-93559750D01*
X183481282Y-93920997D01*
X183405000Y-94304495D01*
X181541084Y-94304495D01*
X181715178Y-94111355D01*
X181864157Y-93861252D01*
X181961481Y-93586891D01*
X181840814Y-93357000D01*
X180647000Y-93357000D01*
X180647000Y-93377000D01*
X180393000Y-93377000D01*
X180393000Y-93357000D01*
X180373000Y-93357000D01*
X180373000Y-93103000D01*
X180393000Y-93103000D01*
X180393000Y-91909845D01*
X180647000Y-91909845D01*
X180647000Y-93103000D01*
X181840814Y-93103000D01*
X181961481Y-92873109D01*
X181864157Y-92598748D01*
X181715178Y-92348645D01*
X181520269Y-92132412D01*
X181286920Y-91958359D01*
X181024099Y-91833175D01*
X180876890Y-91788524D01*
X180647000Y-91909845D01*
X180393000Y-91909845D01*
X180163110Y-91788524D01*
X180015901Y-91833175D01*
X179753080Y-91958359D01*
X179519731Y-92132412D01*
X179324822Y-92348645D01*
X179255201Y-92465523D01*
X179220706Y-92400986D01*
X179035134Y-92174866D01*
X178809014Y-91989294D01*
X178551034Y-91851401D01*
X178271111Y-91766487D01*
X178052950Y-91745000D01*
X177907050Y-91745000D01*
X177688889Y-91766487D01*
X177455000Y-91837437D01*
X177455000Y-89284446D01*
X178967515Y-87771931D01*
X179132729Y-87739068D01*
X179302889Y-87668586D01*
X179456028Y-87566262D01*
X179586262Y-87436028D01*
X179688586Y-87282889D01*
X179759068Y-87112729D01*
X179795000Y-86932089D01*
X179795000Y-86747911D01*
X179759068Y-86567271D01*
X179688586Y-86397111D01*
X179586262Y-86243972D01*
X179456028Y-86113738D01*
X179302889Y-86011414D01*
X179132729Y-85940932D01*
X178952089Y-85905000D01*
X178767911Y-85905000D01*
X178587271Y-85940932D01*
X178417111Y-86011414D01*
X178263972Y-86113738D01*
X178133738Y-86243972D01*
X178031414Y-86397111D01*
X177960932Y-86567271D01*
X177928069Y-86732485D01*
X176225808Y-88434746D01*
X176197763Y-88457762D01*
X176175000Y-88485499D01*
X176175000Y-86974446D01*
X178368664Y-84780782D01*
X178390932Y-84892729D01*
G36*
X136099294Y-94059014D02*
G01*
X136284866Y-94285134D01*
X136510986Y-94470706D01*
X136568756Y-94501584D01*
X136339731Y-94672412D01*
X136144822Y-94888645D01*
X136075201Y-95005523D01*
X136040706Y-94940986D01*
X135855134Y-94714866D01*
X135629014Y-94529294D01*
X135574209Y-94500000D01*
X135629014Y-94470706D01*
X135855134Y-94285134D01*
X136040706Y-94059014D01*
X136070000Y-94004209D01*
X136099294Y-94059014D01*
X136099294Y-94059014D01*
G37*
X136099294Y-94059014D02*
X136284866Y-94285134D01*
X136510986Y-94470706D01*
X136568756Y-94501584D01*
X136339731Y-94672412D01*
X136144822Y-94888645D01*
X136075201Y-95005523D01*
X136040706Y-94940986D01*
X135855134Y-94714866D01*
X135629014Y-94529294D01*
X135574209Y-94500000D01*
X135629014Y-94470706D01*
X135855134Y-94285134D01*
X136040706Y-94059014D01*
X136070000Y-94004209D01*
X136099294Y-94059014D01*
G36*
X138639294Y-94059014D02*
G01*
X138824866Y-94285134D01*
X139050986Y-94470706D01*
X139105791Y-94500000D01*
X139050986Y-94529294D01*
X138824866Y-94714866D01*
X138639294Y-94940986D01*
X138604799Y-95005523D01*
X138535178Y-94888645D01*
X138340269Y-94672412D01*
X138111244Y-94501584D01*
X138169014Y-94470706D01*
X138395134Y-94285134D01*
X138580706Y-94059014D01*
X138610000Y-94004209D01*
X138639294Y-94059014D01*
X138639294Y-94059014D01*
G37*
X138639294Y-94059014D02*
X138824866Y-94285134D01*
X139050986Y-94470706D01*
X139105791Y-94500000D01*
X139050986Y-94529294D01*
X138824866Y-94714866D01*
X138639294Y-94940986D01*
X138604799Y-95005523D01*
X138535178Y-94888645D01*
X138340269Y-94672412D01*
X138111244Y-94501584D01*
X138169014Y-94470706D01*
X138395134Y-94285134D01*
X138580706Y-94059014D01*
X138610000Y-94004209D01*
X138639294Y-94059014D01*
G36*
X141224822Y-94111355D02*
G01*
X141419731Y-94327588D01*
X141648756Y-94498416D01*
X141590986Y-94529294D01*
X141364866Y-94714866D01*
X141179294Y-94940986D01*
X141150000Y-94995791D01*
X141120706Y-94940986D01*
X140935134Y-94714866D01*
X140709014Y-94529294D01*
X140654209Y-94500000D01*
X140709014Y-94470706D01*
X140935134Y-94285134D01*
X141120706Y-94059014D01*
X141155201Y-93994477D01*
X141224822Y-94111355D01*
X141224822Y-94111355D01*
G37*
X141224822Y-94111355D02*
X141419731Y-94327588D01*
X141648756Y-94498416D01*
X141590986Y-94529294D01*
X141364866Y-94714866D01*
X141179294Y-94940986D01*
X141150000Y-94995791D01*
X141120706Y-94940986D01*
X140935134Y-94714866D01*
X140709014Y-94529294D01*
X140654209Y-94500000D01*
X140709014Y-94470706D01*
X140935134Y-94285134D01*
X141120706Y-94059014D01*
X141155201Y-93994477D01*
X141224822Y-94111355D01*
G36*
X179324822Y-94111355D02*
G01*
X179519731Y-94327588D01*
X179748756Y-94498416D01*
X179690986Y-94529294D01*
X179464866Y-94714866D01*
X179279294Y-94940986D01*
X179250000Y-94995791D01*
X179220706Y-94940986D01*
X179035134Y-94714866D01*
X178809014Y-94529294D01*
X178754209Y-94500000D01*
X178809014Y-94470706D01*
X179035134Y-94285134D01*
X179220706Y-94059014D01*
X179255201Y-93994477D01*
X179324822Y-94111355D01*
X179324822Y-94111355D01*
G37*
X179324822Y-94111355D02*
X179519731Y-94327588D01*
X179748756Y-94498416D01*
X179690986Y-94529294D01*
X179464866Y-94714866D01*
X179279294Y-94940986D01*
X179250000Y-94995791D01*
X179220706Y-94940986D01*
X179035134Y-94714866D01*
X178809014Y-94529294D01*
X178754209Y-94500000D01*
X178809014Y-94470706D01*
X179035134Y-94285134D01*
X179220706Y-94059014D01*
X179255201Y-93994477D01*
X179324822Y-94111355D01*
G36*
X138083000Y-74590000D02*
G01*
X138085440Y-74614776D01*
X138092667Y-74638601D01*
X138104403Y-74660557D01*
X138120197Y-74679803D01*
X138139443Y-74695597D01*
X138161399Y-74707333D01*
X138185224Y-74714560D01*
X138210000Y-74717000D01*
X160447123Y-74717000D01*
X159369124Y-75795000D01*
X156522951Y-75795000D01*
X156382889Y-75701414D01*
X156212729Y-75630932D01*
X156032089Y-75595000D01*
X155847911Y-75595000D01*
X155667271Y-75630932D01*
X155497111Y-75701414D01*
X155343972Y-75803738D01*
X155213738Y-75933972D01*
X155111414Y-76087111D01*
X155040932Y-76257271D01*
X155005000Y-76437911D01*
X155005000Y-76622089D01*
X155040932Y-76802729D01*
X155111414Y-76972889D01*
X155213738Y-77126028D01*
X155343972Y-77256262D01*
X155497111Y-77358586D01*
X155667271Y-77429068D01*
X155847911Y-77465000D01*
X156032089Y-77465000D01*
X156212729Y-77429068D01*
X156382889Y-77358586D01*
X156522951Y-77265000D01*
X158394114Y-77265000D01*
X157754114Y-77905000D01*
X142392951Y-77905000D01*
X142252889Y-77811414D01*
X142082729Y-77740932D01*
X141902089Y-77705000D01*
X141717911Y-77705000D01*
X141537271Y-77740932D01*
X141367111Y-77811414D01*
X141213972Y-77913738D01*
X141083738Y-78043972D01*
X140981414Y-78197111D01*
X140910932Y-78367271D01*
X140875000Y-78547911D01*
X140875000Y-78732089D01*
X140910932Y-78912729D01*
X140981414Y-79082889D01*
X141035635Y-79164036D01*
X140897111Y-79221414D01*
X140743972Y-79323738D01*
X140613738Y-79453972D01*
X140511414Y-79607111D01*
X140440932Y-79777271D01*
X140405000Y-79957911D01*
X140405000Y-80142089D01*
X140440932Y-80322729D01*
X140511414Y-80492889D01*
X140613738Y-80646028D01*
X140743972Y-80776262D01*
X140897111Y-80878586D01*
X141067271Y-80949068D01*
X141247911Y-80985000D01*
X141432089Y-80985000D01*
X141612729Y-80949068D01*
X141782889Y-80878586D01*
X141922951Y-80785000D01*
X157107445Y-80785000D01*
X157143550Y-80788556D01*
X157179655Y-80785000D01*
X157287635Y-80774365D01*
X157426183Y-80732337D01*
X157553870Y-80664087D01*
X157665788Y-80572238D01*
X157688809Y-80544187D01*
X164504198Y-73728799D01*
X164532237Y-73705788D01*
X164555250Y-73677747D01*
X164555253Y-73677744D01*
X164624087Y-73593870D01*
X164692337Y-73466184D01*
X164734365Y-73327635D01*
X164748556Y-73183550D01*
X164745000Y-73147445D01*
X164745000Y-73034502D01*
X164767762Y-73062237D01*
X164795808Y-73085254D01*
X165538068Y-73827515D01*
X165570932Y-73992729D01*
X165641414Y-74162889D01*
X165743738Y-74316028D01*
X165873972Y-74446262D01*
X166027111Y-74548586D01*
X166197271Y-74619068D01*
X166377911Y-74655000D01*
X166562089Y-74655000D01*
X166742729Y-74619068D01*
X166912889Y-74548586D01*
X166931378Y-74536232D01*
X166971414Y-74632889D01*
X167073738Y-74786028D01*
X167203972Y-74916262D01*
X167357111Y-75018586D01*
X167527271Y-75089068D01*
X167707911Y-75125000D01*
X167892089Y-75125000D01*
X168072729Y-75089068D01*
X168242889Y-75018586D01*
X168396028Y-74916262D01*
X168526262Y-74786028D01*
X168628586Y-74632889D01*
X168699068Y-74462729D01*
X168731932Y-74297515D01*
X169584197Y-73445250D01*
X169612237Y-73422238D01*
X169635250Y-73394197D01*
X169635253Y-73394194D01*
X169685000Y-73333577D01*
X169685000Y-75945553D01*
X162855554Y-82775000D01*
X152336105Y-82775000D01*
X152300000Y-82771444D01*
X152155915Y-82785635D01*
X152017366Y-82827663D01*
X151889680Y-82895913D01*
X151777762Y-82987762D01*
X151754746Y-83015807D01*
X143205808Y-91564746D01*
X143177763Y-91587762D01*
X143085914Y-91699680D01*
X143035032Y-91794874D01*
X143017664Y-91827367D01*
X143004312Y-91871381D01*
X142924099Y-91833175D01*
X142776890Y-91788524D01*
X142547000Y-91909845D01*
X142547000Y-93103000D01*
X142567000Y-93103000D01*
X142567000Y-93357000D01*
X142547000Y-93357000D01*
X142547000Y-93377000D01*
X142293000Y-93377000D01*
X142293000Y-93357000D01*
X142273000Y-93357000D01*
X142273000Y-93103000D01*
X142293000Y-93103000D01*
X142293000Y-91909845D01*
X142063110Y-91788524D01*
X141915901Y-91833175D01*
X141653080Y-91958359D01*
X141419731Y-92132412D01*
X141224822Y-92348645D01*
X141155201Y-92465523D01*
X141120706Y-92400986D01*
X140935134Y-92174866D01*
X140709014Y-91989294D01*
X140615000Y-91939043D01*
X140615000Y-87624443D01*
X141408069Y-88417512D01*
X141440932Y-88582725D01*
X141511414Y-88752885D01*
X141613738Y-88906024D01*
X141743972Y-89036258D01*
X141897111Y-89138582D01*
X142067271Y-89209064D01*
X142247911Y-89244996D01*
X142432089Y-89244996D01*
X142612729Y-89209064D01*
X142782889Y-89138582D01*
X142936028Y-89036258D01*
X143066262Y-88906024D01*
X143168586Y-88752885D01*
X143239068Y-88582725D01*
X143275000Y-88402085D01*
X143275000Y-88217907D01*
X143239068Y-88037267D01*
X143168586Y-87867107D01*
X143066262Y-87713968D01*
X142967294Y-87615000D01*
X143006266Y-87576028D01*
X143108590Y-87422889D01*
X143179072Y-87252729D01*
X143215004Y-87072089D01*
X143215004Y-86887911D01*
X143179072Y-86707271D01*
X143108590Y-86537111D01*
X143006266Y-86383972D01*
X142930319Y-86308025D01*
X143066035Y-86217342D01*
X143196269Y-86087108D01*
X143298593Y-85933969D01*
X143369075Y-85763809D01*
X143405007Y-85583169D01*
X143405007Y-85398991D01*
X143369075Y-85218351D01*
X143298593Y-85048191D01*
X143196269Y-84895052D01*
X143066035Y-84764818D01*
X142912896Y-84662494D01*
X142742736Y-84592012D01*
X142562096Y-84556080D01*
X142377918Y-84556080D01*
X142197278Y-84592012D01*
X142027118Y-84662494D01*
X141873979Y-84764818D01*
X141873797Y-84765000D01*
X140924447Y-84765000D01*
X136475000Y-80315554D01*
X136475000Y-69690876D01*
X138083000Y-68082877D01*
X138083000Y-74590000D01*
X138083000Y-74590000D01*
G37*
X138083000Y-74590000D02*
X138085440Y-74614776D01*
X138092667Y-74638601D01*
X138104403Y-74660557D01*
X138120197Y-74679803D01*
X138139443Y-74695597D01*
X138161399Y-74707333D01*
X138185224Y-74714560D01*
X138210000Y-74717000D01*
X160447123Y-74717000D01*
X159369124Y-75795000D01*
X156522951Y-75795000D01*
X156382889Y-75701414D01*
X156212729Y-75630932D01*
X156032089Y-75595000D01*
X155847911Y-75595000D01*
X155667271Y-75630932D01*
X155497111Y-75701414D01*
X155343972Y-75803738D01*
X155213738Y-75933972D01*
X155111414Y-76087111D01*
X155040932Y-76257271D01*
X155005000Y-76437911D01*
X155005000Y-76622089D01*
X155040932Y-76802729D01*
X155111414Y-76972889D01*
X155213738Y-77126028D01*
X155343972Y-77256262D01*
X155497111Y-77358586D01*
X155667271Y-77429068D01*
X155847911Y-77465000D01*
X156032089Y-77465000D01*
X156212729Y-77429068D01*
X156382889Y-77358586D01*
X156522951Y-77265000D01*
X158394114Y-77265000D01*
X157754114Y-77905000D01*
X142392951Y-77905000D01*
X142252889Y-77811414D01*
X142082729Y-77740932D01*
X141902089Y-77705000D01*
X141717911Y-77705000D01*
X141537271Y-77740932D01*
X141367111Y-77811414D01*
X141213972Y-77913738D01*
X141083738Y-78043972D01*
X140981414Y-78197111D01*
X140910932Y-78367271D01*
X140875000Y-78547911D01*
X140875000Y-78732089D01*
X140910932Y-78912729D01*
X140981414Y-79082889D01*
X141035635Y-79164036D01*
X140897111Y-79221414D01*
X140743972Y-79323738D01*
X140613738Y-79453972D01*
X140511414Y-79607111D01*
X140440932Y-79777271D01*
X140405000Y-79957911D01*
X140405000Y-80142089D01*
X140440932Y-80322729D01*
X140511414Y-80492889D01*
X140613738Y-80646028D01*
X140743972Y-80776262D01*
X140897111Y-80878586D01*
X141067271Y-80949068D01*
X141247911Y-80985000D01*
X141432089Y-80985000D01*
X141612729Y-80949068D01*
X141782889Y-80878586D01*
X141922951Y-80785000D01*
X157107445Y-80785000D01*
X157143550Y-80788556D01*
X157179655Y-80785000D01*
X157287635Y-80774365D01*
X157426183Y-80732337D01*
X157553870Y-80664087D01*
X157665788Y-80572238D01*
X157688809Y-80544187D01*
X164504198Y-73728799D01*
X164532237Y-73705788D01*
X164555250Y-73677747D01*
X164555253Y-73677744D01*
X164624087Y-73593870D01*
X164692337Y-73466184D01*
X164734365Y-73327635D01*
X164748556Y-73183550D01*
X164745000Y-73147445D01*
X164745000Y-73034502D01*
X164767762Y-73062237D01*
X164795808Y-73085254D01*
X165538068Y-73827515D01*
X165570932Y-73992729D01*
X165641414Y-74162889D01*
X165743738Y-74316028D01*
X165873972Y-74446262D01*
X166027111Y-74548586D01*
X166197271Y-74619068D01*
X166377911Y-74655000D01*
X166562089Y-74655000D01*
X166742729Y-74619068D01*
X166912889Y-74548586D01*
X166931378Y-74536232D01*
X166971414Y-74632889D01*
X167073738Y-74786028D01*
X167203972Y-74916262D01*
X167357111Y-75018586D01*
X167527271Y-75089068D01*
X167707911Y-75125000D01*
X167892089Y-75125000D01*
X168072729Y-75089068D01*
X168242889Y-75018586D01*
X168396028Y-74916262D01*
X168526262Y-74786028D01*
X168628586Y-74632889D01*
X168699068Y-74462729D01*
X168731932Y-74297515D01*
X169584197Y-73445250D01*
X169612237Y-73422238D01*
X169635250Y-73394197D01*
X169635253Y-73394194D01*
X169685000Y-73333577D01*
X169685000Y-75945553D01*
X162855554Y-82775000D01*
X152336105Y-82775000D01*
X152300000Y-82771444D01*
X152155915Y-82785635D01*
X152017366Y-82827663D01*
X151889680Y-82895913D01*
X151777762Y-82987762D01*
X151754746Y-83015807D01*
X143205808Y-91564746D01*
X143177763Y-91587762D01*
X143085914Y-91699680D01*
X143035032Y-91794874D01*
X143017664Y-91827367D01*
X143004312Y-91871381D01*
X142924099Y-91833175D01*
X142776890Y-91788524D01*
X142547000Y-91909845D01*
X142547000Y-93103000D01*
X142567000Y-93103000D01*
X142567000Y-93357000D01*
X142547000Y-93357000D01*
X142547000Y-93377000D01*
X142293000Y-93377000D01*
X142293000Y-93357000D01*
X142273000Y-93357000D01*
X142273000Y-93103000D01*
X142293000Y-93103000D01*
X142293000Y-91909845D01*
X142063110Y-91788524D01*
X141915901Y-91833175D01*
X141653080Y-91958359D01*
X141419731Y-92132412D01*
X141224822Y-92348645D01*
X141155201Y-92465523D01*
X141120706Y-92400986D01*
X140935134Y-92174866D01*
X140709014Y-91989294D01*
X140615000Y-91939043D01*
X140615000Y-87624443D01*
X141408069Y-88417512D01*
X141440932Y-88582725D01*
X141511414Y-88752885D01*
X141613738Y-88906024D01*
X141743972Y-89036258D01*
X141897111Y-89138582D01*
X142067271Y-89209064D01*
X142247911Y-89244996D01*
X142432089Y-89244996D01*
X142612729Y-89209064D01*
X142782889Y-89138582D01*
X142936028Y-89036258D01*
X143066262Y-88906024D01*
X143168586Y-88752885D01*
X143239068Y-88582725D01*
X143275000Y-88402085D01*
X143275000Y-88217907D01*
X143239068Y-88037267D01*
X143168586Y-87867107D01*
X143066262Y-87713968D01*
X142967294Y-87615000D01*
X143006266Y-87576028D01*
X143108590Y-87422889D01*
X143179072Y-87252729D01*
X143215004Y-87072089D01*
X143215004Y-86887911D01*
X143179072Y-86707271D01*
X143108590Y-86537111D01*
X143006266Y-86383972D01*
X142930319Y-86308025D01*
X143066035Y-86217342D01*
X143196269Y-86087108D01*
X143298593Y-85933969D01*
X143369075Y-85763809D01*
X143405007Y-85583169D01*
X143405007Y-85398991D01*
X143369075Y-85218351D01*
X143298593Y-85048191D01*
X143196269Y-84895052D01*
X143066035Y-84764818D01*
X142912896Y-84662494D01*
X142742736Y-84592012D01*
X142562096Y-84556080D01*
X142377918Y-84556080D01*
X142197278Y-84592012D01*
X142027118Y-84662494D01*
X141873979Y-84764818D01*
X141873797Y-84765000D01*
X140924447Y-84765000D01*
X136475000Y-80315554D01*
X136475000Y-69690876D01*
X138083000Y-68082877D01*
X138083000Y-74590000D01*
G36*
X167037111Y-85461414D02*
G01*
X166883972Y-85563738D01*
X166753738Y-85693972D01*
X166651414Y-85847111D01*
X166580932Y-86017271D01*
X166545000Y-86197911D01*
X166545000Y-86365000D01*
X164366094Y-86365000D01*
X164329999Y-86361445D01*
X164293904Y-86365000D01*
X164293895Y-86365000D01*
X164185915Y-86375635D01*
X164047367Y-86417663D01*
X163919680Y-86485913D01*
X163807762Y-86577762D01*
X163784741Y-86605813D01*
X163525808Y-86864746D01*
X163497763Y-86887762D01*
X163405914Y-86999680D01*
X163351536Y-87101414D01*
X163337664Y-87127367D01*
X163295635Y-87265915D01*
X163281444Y-87410000D01*
X163285001Y-87446115D01*
X163285000Y-89863895D01*
X163281444Y-89900000D01*
X163285001Y-89936115D01*
X163285001Y-91852657D01*
X163244099Y-91833175D01*
X163096890Y-91788524D01*
X162867000Y-91909845D01*
X162867000Y-93103000D01*
X162887000Y-93103000D01*
X162887000Y-93357000D01*
X162867000Y-93357000D01*
X162867000Y-93377000D01*
X162613000Y-93377000D01*
X162613000Y-93357000D01*
X162593000Y-93357000D01*
X162593000Y-93103000D01*
X162613000Y-93103000D01*
X162613000Y-91909845D01*
X162383110Y-91788524D01*
X162235901Y-91833175D01*
X162205000Y-91847893D01*
X162205000Y-89522951D01*
X162298586Y-89382889D01*
X162369068Y-89212729D01*
X162405000Y-89032089D01*
X162405000Y-88847911D01*
X162369068Y-88667271D01*
X162298586Y-88497111D01*
X162196262Y-88343972D01*
X162066028Y-88213738D01*
X161912889Y-88111414D01*
X161742729Y-88040932D01*
X161562089Y-88005000D01*
X161377911Y-88005000D01*
X161197271Y-88040932D01*
X161027111Y-88111414D01*
X160873972Y-88213738D01*
X160819996Y-88267714D01*
X160786028Y-88233746D01*
X160632889Y-88131422D01*
X160462729Y-88060940D01*
X160282089Y-88025008D01*
X160097911Y-88025008D01*
X159917271Y-88060940D01*
X159747111Y-88131422D01*
X159593972Y-88233746D01*
X159463738Y-88363980D01*
X159361414Y-88517119D01*
X159290932Y-88687279D01*
X159255000Y-88867919D01*
X159255000Y-89052097D01*
X159290932Y-89232737D01*
X159361414Y-89402897D01*
X159463738Y-89556036D01*
X159465001Y-89557299D01*
X159465000Y-91939042D01*
X159370986Y-91989294D01*
X159144866Y-92174866D01*
X158959294Y-92400986D01*
X158930000Y-92455791D01*
X158900706Y-92400986D01*
X158715134Y-92174866D01*
X158489014Y-91989294D01*
X158395000Y-91939043D01*
X158395000Y-88512951D01*
X158488586Y-88372889D01*
X158559068Y-88202729D01*
X158595000Y-88022089D01*
X158595000Y-87837911D01*
X158559068Y-87657271D01*
X158488586Y-87487111D01*
X158386262Y-87333972D01*
X158256028Y-87203738D01*
X158102889Y-87101414D01*
X157932729Y-87030932D01*
X157752089Y-86995000D01*
X157567911Y-86995000D01*
X157387271Y-87030932D01*
X157217111Y-87101414D01*
X157063972Y-87203738D01*
X156933738Y-87333972D01*
X156831414Y-87487111D01*
X156760932Y-87657271D01*
X156725000Y-87837911D01*
X156725000Y-88022089D01*
X156760932Y-88202729D01*
X156831414Y-88372889D01*
X156925001Y-88512952D01*
X156925000Y-91939042D01*
X156830986Y-91989294D01*
X156604866Y-92174866D01*
X156419294Y-92400986D01*
X156390000Y-92455791D01*
X156360706Y-92400986D01*
X156175134Y-92174866D01*
X155949014Y-91989294D01*
X155855000Y-91939043D01*
X155855000Y-87194446D01*
X157654426Y-85395021D01*
X167197399Y-85395021D01*
X167037111Y-85461414D01*
X167037111Y-85461414D01*
G37*
X167037111Y-85461414D02*
X166883972Y-85563738D01*
X166753738Y-85693972D01*
X166651414Y-85847111D01*
X166580932Y-86017271D01*
X166545000Y-86197911D01*
X166545000Y-86365000D01*
X164366094Y-86365000D01*
X164329999Y-86361445D01*
X164293904Y-86365000D01*
X164293895Y-86365000D01*
X164185915Y-86375635D01*
X164047367Y-86417663D01*
X163919680Y-86485913D01*
X163807762Y-86577762D01*
X163784741Y-86605813D01*
X163525808Y-86864746D01*
X163497763Y-86887762D01*
X163405914Y-86999680D01*
X163351536Y-87101414D01*
X163337664Y-87127367D01*
X163295635Y-87265915D01*
X163281444Y-87410000D01*
X163285001Y-87446115D01*
X163285000Y-89863895D01*
X163281444Y-89900000D01*
X163285001Y-89936115D01*
X163285001Y-91852657D01*
X163244099Y-91833175D01*
X163096890Y-91788524D01*
X162867000Y-91909845D01*
X162867000Y-93103000D01*
X162887000Y-93103000D01*
X162887000Y-93357000D01*
X162867000Y-93357000D01*
X162867000Y-93377000D01*
X162613000Y-93377000D01*
X162613000Y-93357000D01*
X162593000Y-93357000D01*
X162593000Y-93103000D01*
X162613000Y-93103000D01*
X162613000Y-91909845D01*
X162383110Y-91788524D01*
X162235901Y-91833175D01*
X162205000Y-91847893D01*
X162205000Y-89522951D01*
X162298586Y-89382889D01*
X162369068Y-89212729D01*
X162405000Y-89032089D01*
X162405000Y-88847911D01*
X162369068Y-88667271D01*
X162298586Y-88497111D01*
X162196262Y-88343972D01*
X162066028Y-88213738D01*
X161912889Y-88111414D01*
X161742729Y-88040932D01*
X161562089Y-88005000D01*
X161377911Y-88005000D01*
X161197271Y-88040932D01*
X161027111Y-88111414D01*
X160873972Y-88213738D01*
X160819996Y-88267714D01*
X160786028Y-88233746D01*
X160632889Y-88131422D01*
X160462729Y-88060940D01*
X160282089Y-88025008D01*
X160097911Y-88025008D01*
X159917271Y-88060940D01*
X159747111Y-88131422D01*
X159593972Y-88233746D01*
X159463738Y-88363980D01*
X159361414Y-88517119D01*
X159290932Y-88687279D01*
X159255000Y-88867919D01*
X159255000Y-89052097D01*
X159290932Y-89232737D01*
X159361414Y-89402897D01*
X159463738Y-89556036D01*
X159465001Y-89557299D01*
X159465000Y-91939042D01*
X159370986Y-91989294D01*
X159144866Y-92174866D01*
X158959294Y-92400986D01*
X158930000Y-92455791D01*
X158900706Y-92400986D01*
X158715134Y-92174866D01*
X158489014Y-91989294D01*
X158395000Y-91939043D01*
X158395000Y-88512951D01*
X158488586Y-88372889D01*
X158559068Y-88202729D01*
X158595000Y-88022089D01*
X158595000Y-87837911D01*
X158559068Y-87657271D01*
X158488586Y-87487111D01*
X158386262Y-87333972D01*
X158256028Y-87203738D01*
X158102889Y-87101414D01*
X157932729Y-87030932D01*
X157752089Y-86995000D01*
X157567911Y-86995000D01*
X157387271Y-87030932D01*
X157217111Y-87101414D01*
X157063972Y-87203738D01*
X156933738Y-87333972D01*
X156831414Y-87487111D01*
X156760932Y-87657271D01*
X156725000Y-87837911D01*
X156725000Y-88022089D01*
X156760932Y-88202729D01*
X156831414Y-88372889D01*
X156925001Y-88512952D01*
X156925000Y-91939042D01*
X156830986Y-91989294D01*
X156604866Y-92174866D01*
X156419294Y-92400986D01*
X156390000Y-92455791D01*
X156360706Y-92400986D01*
X156175134Y-92174866D01*
X155949014Y-91989294D01*
X155855000Y-91939043D01*
X155855000Y-87194446D01*
X157654426Y-85395021D01*
X167197399Y-85395021D01*
X167037111Y-85461414D01*
M02*
