%TF.GenerationSoftware,KiCad,Pcbnew,5.1.4-e60b266~84~ubuntu18.04.1*%
%TF.CreationDate,2019-12-31T08:18:33+01:00*%
%TF.ProjectId,clock-dashboard,636c6f63-6b2d-4646-9173-68626f617264,rev?*%
%TF.SameCoordinates,Original*%
%TF.FileFunction,Profile,NP*%
%FSLAX46Y46*%
G04 Gerber Fmt 4.6, Leading zero omitted, Abs format (unit mm)*
G04 Created by KiCad (PCBNEW 5.1.4-e60b266~84~ubuntu18.04.1) date 2019-12-31 08:18:33*
%MOMM*%
%LPD*%
G04 APERTURE LIST*
%ADD10C,0.010000*%
G04 APERTURE END LIST*
D10*
X117668062Y-92867641D02*
X117653498Y-93068758D01*
X117705408Y-92659107D02*
X117668062Y-92867641D01*
X117772239Y-92465673D02*
X117705408Y-92659107D01*
X117869179Y-92279566D02*
X117772239Y-92465673D01*
X117980594Y-92108469D02*
X117869179Y-92279566D01*
X118114880Y-91951934D02*
X117980594Y-92108469D01*
X118270968Y-91810321D02*
X118114880Y-91951934D01*
X118449928Y-91698907D02*
X118270968Y-91810321D01*
X118636035Y-91601877D02*
X118449928Y-91698907D01*
X118829380Y-91534957D02*
X118636035Y-91601877D01*
X119030587Y-91497789D02*
X118829380Y-91534957D01*
X119239030Y-91482600D02*
X119030587Y-91497789D01*
X120512478Y-91482600D02*
X119239030Y-91482600D01*
X122083447Y-90105602D02*
X122098010Y-89897158D01*
X122046100Y-90306719D02*
X122083447Y-90105602D01*
X121979180Y-90507390D02*
X122046100Y-90306719D01*
X121889477Y-90693498D02*
X121979180Y-90507390D01*
X121770736Y-90865131D02*
X121889477Y-90693498D01*
X121636449Y-91021218D02*
X121770736Y-90865131D01*
X121480451Y-91155505D02*
X121636449Y-91021218D01*
X121301581Y-91274246D02*
X121480451Y-91155505D01*
X121115384Y-91363860D02*
X121301581Y-91274246D01*
X120922039Y-91430780D02*
X121115384Y-91363860D01*
X120720832Y-91468126D02*
X120922039Y-91430780D01*
X120512478Y-91482600D02*
X120720832Y-91468126D01*
X119030587Y-78453020D02*
X119239030Y-78468120D01*
X118829380Y-78408436D02*
X119030587Y-78453020D01*
X118636035Y-78341606D02*
X118829380Y-78408436D01*
X118449928Y-78252349D02*
X118636035Y-78341606D01*
X118270968Y-78140399D02*
X118449928Y-78252349D01*
X118114880Y-77998875D02*
X118270968Y-78140399D01*
X117980594Y-77842698D02*
X118114880Y-77998875D01*
X117869179Y-77671780D02*
X117980594Y-77842698D01*
X117772239Y-77485583D02*
X117869179Y-77671780D01*
X117705408Y-77291613D02*
X117772239Y-77485583D01*
X117668062Y-77083169D02*
X117705408Y-77291613D01*
X117653498Y-76874814D02*
X117668062Y-77083169D01*
X120512478Y-78468120D02*
X119239030Y-78468120D01*
X120720832Y-78483130D02*
X120512478Y-78468120D01*
X120922039Y-78520387D02*
X120720832Y-78483130D01*
X121115384Y-78587307D02*
X120922039Y-78520387D01*
X121301581Y-78676474D02*
X121115384Y-78587307D01*
X121480451Y-78795751D02*
X121301581Y-78676474D01*
X121636449Y-78929502D02*
X121480451Y-78795751D01*
X121770736Y-79086125D02*
X121636449Y-78929502D01*
X121889477Y-79257223D02*
X121770736Y-79086125D01*
X121979180Y-79443419D02*
X121889477Y-79257223D01*
X122046100Y-79644537D02*
X121979180Y-79443419D01*
X122083447Y-79845655D02*
X122046100Y-79644537D01*
X122098010Y-80054188D02*
X122083447Y-79845655D01*
X193373611Y-103485150D02*
X193388800Y-102911728D01*
X193336979Y-104050888D02*
X193373611Y-103485150D01*
X193261929Y-104616448D02*
X193336979Y-104050888D01*
X193165435Y-105174859D02*
X193261929Y-104616448D01*
X193046605Y-105733271D02*
X193165435Y-105174859D01*
X192890250Y-106277209D02*
X193046605Y-105733271D01*
X192711558Y-106820611D02*
X192890250Y-106277209D01*
X192510530Y-107349449D02*
X192711558Y-106820611D01*
X192279124Y-107870515D02*
X192510530Y-107349449D01*
X192019127Y-108376570D02*
X192279124Y-107870515D01*
X191743048Y-108875388D02*
X192019127Y-108376570D01*
X191438379Y-109351780D02*
X191743048Y-108875388D01*
X191110479Y-109821114D02*
X191438379Y-109351780D01*
X190760243Y-110267933D02*
X191110479Y-109821114D01*
X190387671Y-110699920D02*
X190760243Y-110267933D01*
X189993656Y-111109035D02*
X190387671Y-110699920D01*
X189584451Y-111503587D02*
X189993656Y-111109035D01*
X189152464Y-111875802D02*
X189584451Y-111503587D01*
X188705556Y-112225859D02*
X189152464Y-111875802D01*
X188236401Y-112553490D02*
X188705556Y-112225859D01*
X187759919Y-112858875D02*
X188236401Y-112553490D01*
X187261011Y-113134239D02*
X187759919Y-112858875D01*
X186754956Y-113395039D02*
X187261011Y-113134239D01*
X186233891Y-113625731D02*
X186754956Y-113395039D01*
X185705053Y-113826938D02*
X186233891Y-113625731D01*
X185161651Y-114005272D02*
X185705053Y-113826938D01*
X184617802Y-114154569D02*
X185161651Y-114005272D01*
X184059390Y-114281083D02*
X184617802Y-114154569D01*
X183500979Y-114377576D02*
X184059390Y-114281083D01*
X182935330Y-114452180D02*
X183500979Y-114377576D01*
X182369591Y-114489527D02*
X182935330Y-114452180D01*
X181796169Y-114504537D02*
X182369591Y-114489527D01*
X182369591Y-59906688D02*
X181796169Y-59891678D01*
X182935330Y-59943498D02*
X182369591Y-59906688D01*
X183500979Y-60018192D02*
X182935330Y-59943498D01*
X184059390Y-60115132D02*
X183500979Y-60018192D01*
X184617802Y-60241735D02*
X184059390Y-60115132D01*
X185161651Y-60390496D02*
X184617802Y-60241735D01*
X185705053Y-60569366D02*
X185161651Y-60390496D01*
X186233891Y-60769948D02*
X185705053Y-60569366D01*
X186754956Y-61001264D02*
X186233891Y-60769948D01*
X187261011Y-61261529D02*
X186754956Y-61001264D01*
X187759919Y-61536893D02*
X187261011Y-61261529D01*
X188236401Y-61842277D02*
X187759919Y-61536893D01*
X188705556Y-62169998D02*
X188236401Y-61842277D01*
X189152464Y-62519877D02*
X188705556Y-62169998D01*
X189584451Y-62892181D02*
X189152464Y-62519877D01*
X189993656Y-63286822D02*
X189584451Y-62892181D01*
X190387671Y-63696294D02*
X189993656Y-63286822D01*
X190760243Y-64128282D02*
X190387671Y-63696294D01*
X191110479Y-64574743D02*
X190760243Y-64128282D01*
X191438379Y-65043898D02*
X191110479Y-64574743D01*
X191743048Y-65520469D02*
X191438379Y-65043898D01*
X192019127Y-66019198D02*
X191743048Y-65520469D01*
X192279124Y-66525700D02*
X192019127Y-66019198D01*
X192510530Y-67046765D02*
X192279124Y-66525700D01*
X192711558Y-67575157D02*
X192510530Y-67046765D01*
X192890250Y-68119005D02*
X192711558Y-67575157D01*
X193046605Y-68662407D02*
X192890250Y-68119005D01*
X193165435Y-69220819D02*
X193046605Y-68662407D01*
X193261929Y-69779231D02*
X193165435Y-69220819D01*
X193336979Y-70344969D02*
X193261929Y-69779231D01*
X193373611Y-70911065D02*
X193336979Y-70344969D01*
X193388800Y-71476803D02*
X193373611Y-70911065D01*
X122098010Y-89897158D02*
X122098010Y-80054188D01*
X117653498Y-114504537D02*
X117653498Y-93068758D01*
X117653498Y-76874814D02*
X117653498Y-59891678D01*
X193388800Y-102911728D02*
X193388800Y-71476803D01*
X117653498Y-114504537D02*
X181796169Y-114504537D01*
X117668062Y-92867641D02*
X117653498Y-93068758D01*
X117705408Y-92659107D02*
X117668062Y-92867641D01*
X117772239Y-92465673D02*
X117705408Y-92659107D01*
X117869179Y-92279566D02*
X117772239Y-92465673D01*
X117980594Y-92108469D02*
X117869179Y-92279566D01*
X118114880Y-91951934D02*
X117980594Y-92108469D01*
X118270968Y-91810321D02*
X118114880Y-91951934D01*
X118449928Y-91698907D02*
X118270968Y-91810321D01*
X118636035Y-91601877D02*
X118449928Y-91698907D01*
X118829380Y-91534957D02*
X118636035Y-91601877D01*
X119030587Y-91497789D02*
X118829380Y-91534957D01*
X119239030Y-91482600D02*
X119030587Y-91497789D01*
X120512478Y-91482600D02*
X119239030Y-91482600D01*
X122083447Y-90105602D02*
X122098010Y-89897158D01*
X122046100Y-90306719D02*
X122083447Y-90105602D01*
X121979180Y-90507390D02*
X122046100Y-90306719D01*
X121889477Y-90693498D02*
X121979180Y-90507390D01*
X121770736Y-90865131D02*
X121889477Y-90693498D01*
X121636449Y-91021218D02*
X121770736Y-90865131D01*
X121480451Y-91155505D02*
X121636449Y-91021218D01*
X121301581Y-91274246D02*
X121480451Y-91155505D01*
X121115384Y-91363860D02*
X121301581Y-91274246D01*
X120922039Y-91430780D02*
X121115384Y-91363860D01*
X120720832Y-91468126D02*
X120922039Y-91430780D01*
X120512478Y-91482600D02*
X120720832Y-91468126D01*
X122098010Y-89897158D02*
X122098010Y-80054188D01*
X119030587Y-78453020D02*
X119239030Y-78468120D01*
X118829380Y-78408436D02*
X119030587Y-78453020D01*
X118636035Y-78341606D02*
X118829380Y-78408436D01*
X118449928Y-78252349D02*
X118636035Y-78341606D01*
X118270968Y-78140399D02*
X118449928Y-78252349D01*
X118114880Y-77998875D02*
X118270968Y-78140399D01*
X117980594Y-77842698D02*
X118114880Y-77998875D01*
X117869179Y-77671780D02*
X117980594Y-77842698D01*
X117772239Y-77485583D02*
X117869179Y-77671780D01*
X117705408Y-77291613D02*
X117772239Y-77485583D01*
X117668062Y-77083169D02*
X117705408Y-77291613D01*
X117653498Y-76874814D02*
X117668062Y-77083169D01*
X120720832Y-78483130D02*
X120512478Y-78468120D01*
X120922039Y-78520387D02*
X120720832Y-78483130D01*
X121115384Y-78587307D02*
X120922039Y-78520387D01*
X121301581Y-78676474D02*
X121115384Y-78587307D01*
X121480451Y-78795751D02*
X121301581Y-78676474D01*
X121636449Y-78929502D02*
X121480451Y-78795751D01*
X121770736Y-79086125D02*
X121636449Y-78929502D01*
X121889477Y-79257223D02*
X121770736Y-79086125D01*
X121979180Y-79443419D02*
X121889477Y-79257223D01*
X122046100Y-79644537D02*
X121979180Y-79443419D01*
X122083447Y-79845655D02*
X122046100Y-79644537D01*
X122098010Y-80054188D02*
X122083447Y-79845655D01*
X120512478Y-78468120D02*
X119239030Y-78468120D01*
X182369591Y-59906688D02*
X181796169Y-59891678D01*
X182935330Y-59943498D02*
X182369591Y-59906688D01*
X183500979Y-60018192D02*
X182935330Y-59943498D01*
X184059390Y-60115132D02*
X183500979Y-60018192D01*
X184617802Y-60241735D02*
X184059390Y-60115132D01*
X185161651Y-60390496D02*
X184617802Y-60241735D01*
X185705053Y-60569366D02*
X185161651Y-60390496D01*
X186233891Y-60769948D02*
X185705053Y-60569366D01*
X186754956Y-61001264D02*
X186233891Y-60769948D01*
X187261011Y-61261529D02*
X186754956Y-61001264D01*
X187759919Y-61536893D02*
X187261011Y-61261529D01*
X188236401Y-61842277D02*
X187759919Y-61536893D01*
X188705556Y-62169998D02*
X188236401Y-61842277D01*
X189152464Y-62519877D02*
X188705556Y-62169998D01*
X189584451Y-62892181D02*
X189152464Y-62519877D01*
X189993656Y-63286822D02*
X189584451Y-62892181D01*
X190387671Y-63696294D02*
X189993656Y-63286822D01*
X190760243Y-64128282D02*
X190387671Y-63696294D01*
X191110479Y-64574743D02*
X190760243Y-64128282D01*
X191438379Y-65043898D02*
X191110479Y-64574743D01*
X191743048Y-65520469D02*
X191438379Y-65043898D01*
X192019127Y-66019198D02*
X191743048Y-65520469D01*
X192279124Y-66525700D02*
X192019127Y-66019198D01*
X192510530Y-67046765D02*
X192279124Y-66525700D01*
X192711558Y-67575157D02*
X192510530Y-67046765D01*
X192890250Y-68119005D02*
X192711558Y-67575157D01*
X193046605Y-68662407D02*
X192890250Y-68119005D01*
X193165435Y-69220819D02*
X193046605Y-68662407D01*
X193261929Y-69779231D02*
X193165435Y-69220819D01*
X193336979Y-70344969D02*
X193261929Y-69779231D01*
X193373611Y-70911065D02*
X193336979Y-70344969D01*
X193388800Y-71476803D02*
X193373611Y-70911065D01*
X193373611Y-103485150D02*
X193388800Y-102911728D01*
X193336979Y-104050888D02*
X193373611Y-103485150D01*
X193261929Y-104616448D02*
X193336979Y-104050888D01*
X193165435Y-105174859D02*
X193261929Y-104616448D01*
X193046605Y-105733271D02*
X193165435Y-105174859D01*
X192890250Y-106277209D02*
X193046605Y-105733271D01*
X192711558Y-106820611D02*
X192890250Y-106277209D01*
X192510530Y-107349449D02*
X192711558Y-106820611D01*
X192279124Y-107870515D02*
X192510530Y-107349449D01*
X192019127Y-108376570D02*
X192279124Y-107870515D01*
X191743048Y-108875388D02*
X192019127Y-108376570D01*
X191438379Y-109351780D02*
X191743048Y-108875388D01*
X191110479Y-109821114D02*
X191438379Y-109351780D01*
X190760243Y-110267933D02*
X191110479Y-109821114D01*
X190387671Y-110699920D02*
X190760243Y-110267933D01*
X189993656Y-111109035D02*
X190387671Y-110699920D01*
X189584451Y-111503587D02*
X189993656Y-111109035D01*
X189152464Y-111875802D02*
X189584451Y-111503587D01*
X188705556Y-112225859D02*
X189152464Y-111875802D01*
X188236401Y-112553490D02*
X188705556Y-112225859D01*
X187759919Y-112858875D02*
X188236401Y-112553490D01*
X187261011Y-113134239D02*
X187759919Y-112858875D01*
X186754956Y-113395039D02*
X187261011Y-113134239D01*
X186233891Y-113625731D02*
X186754956Y-113395039D01*
X185705053Y-113826938D02*
X186233891Y-113625731D01*
X185161651Y-114005272D02*
X185705053Y-113826938D01*
X184617802Y-114154569D02*
X185161651Y-114005272D01*
X184059390Y-114281083D02*
X184617802Y-114154569D01*
X183500979Y-114377576D02*
X184059390Y-114281083D01*
X182935330Y-114452180D02*
X183500979Y-114377576D01*
X182369591Y-114489527D02*
X182935330Y-114452180D01*
X181796169Y-114504537D02*
X182369591Y-114489527D01*
X193388800Y-100372696D02*
X193388800Y-71476803D01*
X193388800Y-102911728D02*
X193388800Y-100372696D01*
X117653498Y-75765227D02*
X117653498Y-59891678D01*
X117653498Y-76874814D02*
X117653498Y-75765227D01*
X117653498Y-93545240D02*
X117653498Y-93068758D01*
X117653498Y-114504537D02*
X117653498Y-93545240D01*
X181796169Y-59891678D02*
X117653498Y-59891678D01*
X117653498Y-114504537D02*
X181796169Y-114504537D01*
M02*
