%TF.GenerationSoftware,KiCad,Pcbnew,5.1.4-e60b266~84~ubuntu18.04.1*%
%TF.CreationDate,2019-12-31T08:18:33+01:00*%
%TF.ProjectId,clock-dashboard,636c6f63-6b2d-4646-9173-68626f617264,rev?*%
%TF.SameCoordinates,Original*%
%TF.FileFunction,Copper,L1,Top*%
%TF.FilePolarity,Positive*%
%FSLAX46Y46*%
G04 Gerber Fmt 4.6, Leading zero omitted, Abs format (unit mm)*
G04 Created by KiCad (PCBNEW 5.1.4-e60b266~84~ubuntu18.04.1) date 2019-12-31 08:18:33*
%MOMM*%
%LPD*%
G04 APERTURE LIST*
%ADD10R,1.700000X1.700000*%
%ADD11O,1.700000X1.700000*%
%ADD12C,0.600000*%
%ADD13C,0.200000*%
G04 APERTURE END LIST*
D10*
X132260000Y-93230000D03*
D11*
X132260000Y-95770000D03*
X134800000Y-93230000D03*
X134800000Y-95770000D03*
X137340000Y-93230000D03*
X137340000Y-95770000D03*
X139880000Y-93230000D03*
X139880000Y-95770000D03*
X142420000Y-93230000D03*
X142420000Y-95770000D03*
X144960000Y-93230000D03*
X144960000Y-95770000D03*
X147500000Y-93230000D03*
X147500000Y-95770000D03*
X150040000Y-93230000D03*
X150040000Y-95770000D03*
X152580000Y-93230000D03*
X152580000Y-95770000D03*
X155120000Y-93230000D03*
X155120000Y-95770000D03*
X157660000Y-93230000D03*
X157660000Y-95770000D03*
X160200000Y-93230000D03*
X160200000Y-95770000D03*
X162740000Y-93230000D03*
X162740000Y-95770000D03*
X165280000Y-93230000D03*
X165280000Y-95770000D03*
X167820000Y-93230000D03*
X167820000Y-95770000D03*
X170360000Y-93230000D03*
X170360000Y-95770000D03*
X172900000Y-93230000D03*
X172900000Y-95770000D03*
X175440000Y-93230000D03*
X175440000Y-95770000D03*
X177980000Y-93230000D03*
X177980000Y-95770000D03*
X180520000Y-93230000D03*
X180520000Y-95770000D03*
X184330000Y-61790000D03*
X184330000Y-64330000D03*
X181790000Y-61790000D03*
X181790000Y-64330000D03*
X179250000Y-61790000D03*
X179250000Y-64330000D03*
X176710000Y-61790000D03*
X176710000Y-64330000D03*
X174170000Y-61790000D03*
X174170000Y-64330000D03*
X171630000Y-61790000D03*
X171630000Y-64330000D03*
X169090000Y-61790000D03*
X169090000Y-64330000D03*
X166550000Y-61790000D03*
X166550000Y-64330000D03*
X164010000Y-61790000D03*
X164010000Y-64330000D03*
X161470000Y-61790000D03*
X161470000Y-64330000D03*
X158930000Y-61790000D03*
X158930000Y-64330000D03*
X156390000Y-61790000D03*
X156390000Y-64330000D03*
X153850000Y-61790000D03*
X153850000Y-64330000D03*
X151310000Y-61790000D03*
X151310000Y-64330000D03*
X148770000Y-61790000D03*
X148770000Y-64330000D03*
X146230000Y-61790000D03*
X146230000Y-64330000D03*
X143690000Y-61790000D03*
X143690000Y-64330000D03*
X141150000Y-61790000D03*
X141150000Y-64330000D03*
X138610000Y-61790000D03*
X138610000Y-64330000D03*
X136070000Y-61790000D03*
X136070000Y-64330000D03*
X133530000Y-61790000D03*
X133530000Y-64330000D03*
X130990000Y-61790000D03*
X130990000Y-64330000D03*
X128450000Y-61790000D03*
D10*
X128450000Y-64330000D03*
X128450000Y-112590000D03*
D11*
X128450000Y-110050000D03*
X130990000Y-112590000D03*
X130990000Y-110050000D03*
X133530000Y-112590000D03*
X133530000Y-110050000D03*
X136070000Y-112590000D03*
X136070000Y-110050000D03*
X138610000Y-112590000D03*
X138610000Y-110050000D03*
X141150000Y-112590000D03*
X141150000Y-110050000D03*
X143690000Y-112590000D03*
X143690000Y-110050000D03*
X146230000Y-112590000D03*
X146230000Y-110050000D03*
X148770000Y-112590000D03*
X148770000Y-110050000D03*
X151310000Y-112590000D03*
X151310000Y-110050000D03*
X153850000Y-112590000D03*
X153850000Y-110050000D03*
X156390000Y-112590000D03*
X156390000Y-110050000D03*
X158930000Y-112590000D03*
X158930000Y-110050000D03*
X161470000Y-112590000D03*
X161470000Y-110050000D03*
X164010000Y-112590000D03*
X164010000Y-110050000D03*
X166550000Y-112590000D03*
X166550000Y-110050000D03*
X169090000Y-112590000D03*
X169090000Y-110050000D03*
X171630000Y-112590000D03*
X171630000Y-110050000D03*
X174170000Y-112590000D03*
X174170000Y-110050000D03*
X176710000Y-112590000D03*
X176710000Y-110050000D03*
X179250000Y-112590000D03*
X179250000Y-110050000D03*
X181790000Y-112590000D03*
X181790000Y-110050000D03*
X184330000Y-112590000D03*
X184330000Y-110050000D03*
D12*
X181711792Y-67435548D03*
X178860000Y-86840000D03*
X180590000Y-76720000D03*
X180590000Y-68550000D03*
X178130000Y-71430000D03*
X178130000Y-75410000D03*
X179290000Y-84620000D03*
X179290000Y-67410000D03*
X171660000Y-85480000D03*
X171650000Y-78370000D03*
X175450000Y-69310000D03*
X160190000Y-88960008D03*
X172120000Y-66280000D03*
X190815000Y-72635000D03*
X172900000Y-84450000D03*
X172920000Y-73750000D03*
X170360000Y-86390000D03*
X171264904Y-77724846D03*
X163210000Y-69220000D03*
X168880000Y-88820000D03*
X167480000Y-86290000D03*
X167800000Y-74190000D03*
X157660000Y-87930000D03*
X168280000Y-70750000D03*
X167030000Y-72400000D03*
X161470000Y-88940000D03*
X166470000Y-88980000D03*
X166470000Y-73720000D03*
X137330000Y-87880000D03*
X141340000Y-80050000D03*
X155940000Y-76530000D03*
X165300000Y-90660000D03*
X134800000Y-87870000D03*
X141810000Y-78640000D03*
X150565000Y-89975000D03*
X142280004Y-86980000D03*
X152050000Y-89960000D03*
X142470007Y-85491080D03*
X142340000Y-88309996D03*
X174250000Y-91300000D03*
D13*
X181710000Y-67430000D02*
X181710000Y-67430000D01*
X181711792Y-83988208D02*
X179159999Y-86540001D01*
X179159999Y-86540001D02*
X178860000Y-86840000D01*
X181711792Y-67435548D02*
X181711792Y-83988208D01*
X180590000Y-76720000D02*
X180590000Y-68550000D01*
X180590000Y-68550000D02*
X180590000Y-68550000D01*
X178130000Y-71430000D02*
X178130000Y-71430000D01*
X178130000Y-71430000D02*
X178130000Y-75410000D01*
X179290000Y-67410000D02*
X179290000Y-67410000D01*
X179290000Y-84620000D02*
X179310000Y-84600000D01*
X179310000Y-67430000D02*
X179290000Y-67410000D01*
X179310000Y-84600000D02*
X179310000Y-67430000D01*
X171660000Y-78940000D02*
X171660000Y-78940000D01*
X171660000Y-78380000D02*
X171650000Y-78370000D01*
X171660000Y-85480000D02*
X171660000Y-78380000D01*
X175450000Y-69310000D02*
X175450000Y-69310000D01*
X160190000Y-88535744D02*
X160190000Y-88960008D01*
X173150000Y-71610000D02*
X165583550Y-71610000D01*
X175450000Y-69310000D02*
X173150000Y-71610000D01*
X165583550Y-71610000D02*
X160190000Y-77003550D01*
X160190000Y-77003550D02*
X160190000Y-88535744D01*
X172120000Y-66280000D02*
X172120000Y-66280000D01*
X184460000Y-66280000D02*
X190515001Y-72335001D01*
X190515001Y-72335001D02*
X190815000Y-72635000D01*
X172120000Y-66280000D02*
X184460000Y-66280000D01*
X172900000Y-84025736D02*
X172920000Y-84005736D01*
X172900000Y-84450000D02*
X172900000Y-84025736D01*
X172920000Y-84005736D02*
X172920000Y-73750000D01*
X172920000Y-73750000D02*
X172920000Y-73750000D01*
X171400000Y-77790000D02*
X171330058Y-77790000D01*
X170360000Y-78629750D02*
X170964905Y-78024845D01*
X170360000Y-86390000D02*
X170360000Y-78629750D01*
X170964905Y-78024845D02*
X171264904Y-77724846D01*
X171330058Y-77790000D02*
X171264904Y-77724846D01*
X163210000Y-69220000D02*
X172610000Y-69220000D01*
X172610000Y-69220000D02*
X173880000Y-67950000D01*
X173880000Y-67950000D02*
X176060000Y-67950000D01*
X176060000Y-67950000D02*
X176850000Y-68740000D01*
X176850000Y-68740000D02*
X176850000Y-72920000D01*
X176850000Y-72920000D02*
X176850000Y-72920000D01*
X176850000Y-72920000D02*
X176850000Y-82960000D01*
X176850000Y-82960000D02*
X170990000Y-88820000D01*
X170990000Y-88820000D02*
X168880000Y-88820000D01*
X168880000Y-88820000D02*
X168880000Y-88820000D01*
X167800000Y-74190000D02*
X167800000Y-74190000D01*
X167480000Y-74510000D02*
X167800000Y-74190000D01*
X167480000Y-86290000D02*
X167480000Y-74510000D01*
X168280000Y-70750000D02*
X168280000Y-70750000D01*
X167855736Y-70750000D02*
X168280000Y-70750000D01*
X165948560Y-70750000D02*
X167855736Y-70750000D01*
X157660000Y-79038560D02*
X165948560Y-70750000D01*
X157660000Y-87930000D02*
X157660000Y-79038560D01*
X167030000Y-72400000D02*
X167090000Y-72400000D01*
X167030000Y-72400000D02*
X166605736Y-72400000D01*
X166605736Y-72400000D02*
X161470000Y-77535736D01*
X161470000Y-77535736D02*
X161470000Y-88515736D01*
X161470000Y-88515736D02*
X161470000Y-88940000D01*
X166470000Y-88980000D02*
X166470000Y-73720000D01*
X166470000Y-73720000D02*
X166470000Y-73720000D01*
X141340000Y-80050000D02*
X141340000Y-80050000D01*
X137330000Y-87880000D02*
X137330000Y-84060000D01*
X137330000Y-84060000D02*
X141340000Y-80050000D01*
X155940000Y-76530000D02*
X155940000Y-76530000D01*
X154600000Y-90660000D02*
X164875736Y-90660000D01*
X153570000Y-89630000D02*
X154600000Y-90660000D01*
X164875736Y-90660000D02*
X165300000Y-90660000D01*
X155940000Y-76530000D02*
X153570000Y-78900000D01*
X153570000Y-78900000D02*
X153570000Y-89630000D01*
X141510001Y-78939999D02*
X141810000Y-78640000D01*
X134800000Y-87870000D02*
X134800000Y-85650000D01*
X134800000Y-85650000D02*
X141510001Y-78939999D01*
X150565000Y-89975000D02*
X147570000Y-86980000D01*
X142704268Y-86980000D02*
X142280004Y-86980000D01*
X147570000Y-86980000D02*
X142704268Y-86980000D01*
X142894271Y-85491080D02*
X142470007Y-85491080D01*
X152050000Y-89960000D02*
X147581080Y-85491080D01*
X147581080Y-85491080D02*
X142894271Y-85491080D01*
X142340000Y-88309996D02*
X145330004Y-91300000D01*
X145330004Y-91300000D02*
X173825736Y-91300000D01*
X173825736Y-91300000D02*
X174250000Y-91300000D01*
M02*
