%TF.GenerationSoftware,KiCad,Pcbnew,5.1.4-e60b266~84~ubuntu18.04.1*%
%TF.CreationDate,2019-12-31T08:18:33+01:00*%
%TF.ProjectId,clock-dashboard,636c6f63-6b2d-4646-9173-68626f617264,rev?*%
%TF.SameCoordinates,Original*%
%TF.FileFunction,Legend,Bot*%
%TF.FilePolarity,Positive*%
%FSLAX46Y46*%
G04 Gerber Fmt 4.6, Leading zero omitted, Abs format (unit mm)*
G04 Created by KiCad (PCBNEW 5.1.4-e60b266~84~ubuntu18.04.1) date 2019-12-31 08:18:33*
%MOMM*%
%LPD*%
G04 APERTURE LIST*
%ADD10C,0.250000*%
%ADD11C,0.300000*%
%ADD12C,0.120000*%
%ADD13C,0.150000*%
G04 APERTURE END LIST*
D10*
X124257619Y-89329047D02*
X123543333Y-89329047D01*
X123400476Y-89376666D01*
X123305238Y-89471904D01*
X123257619Y-89614761D01*
X123257619Y-89710000D01*
X123257619Y-88376666D02*
X123257619Y-88852857D01*
X124257619Y-88852857D01*
X123352857Y-87471904D02*
X123305238Y-87519523D01*
X123257619Y-87662380D01*
X123257619Y-87757619D01*
X123305238Y-87900476D01*
X123400476Y-87995714D01*
X123495714Y-88043333D01*
X123686190Y-88090952D01*
X123829047Y-88090952D01*
X124019523Y-88043333D01*
X124114761Y-87995714D01*
X124210000Y-87900476D01*
X124257619Y-87757619D01*
X124257619Y-87662380D01*
X124210000Y-87519523D01*
X124162380Y-87471904D01*
X124257619Y-86757619D02*
X123543333Y-86757619D01*
X123400476Y-86805238D01*
X123305238Y-86900476D01*
X123257619Y-87043333D01*
X123257619Y-87138571D01*
X123257619Y-85805238D02*
X123257619Y-86281428D01*
X124257619Y-86281428D01*
X123352857Y-84900476D02*
X123305238Y-84948095D01*
X123257619Y-85090952D01*
X123257619Y-85186190D01*
X123305238Y-85329047D01*
X123400476Y-85424285D01*
X123495714Y-85471904D01*
X123686190Y-85519523D01*
X123829047Y-85519523D01*
X124019523Y-85471904D01*
X124114761Y-85424285D01*
X124210000Y-85329047D01*
X124257619Y-85186190D01*
X124257619Y-85090952D01*
X124210000Y-84948095D01*
X124162380Y-84900476D01*
X124257619Y-84186190D02*
X123543333Y-84186190D01*
X123400476Y-84233809D01*
X123305238Y-84329047D01*
X123257619Y-84471904D01*
X123257619Y-84567142D01*
X123257619Y-83233809D02*
X123257619Y-83710000D01*
X124257619Y-83710000D01*
X123352857Y-82329047D02*
X123305238Y-82376666D01*
X123257619Y-82519523D01*
X123257619Y-82614761D01*
X123305238Y-82757619D01*
X123400476Y-82852857D01*
X123495714Y-82900476D01*
X123686190Y-82948095D01*
X123829047Y-82948095D01*
X124019523Y-82900476D01*
X124114761Y-82852857D01*
X124210000Y-82757619D01*
X124257619Y-82614761D01*
X124257619Y-82519523D01*
X124210000Y-82376666D01*
X124162380Y-82329047D01*
X124257619Y-81614761D02*
X123543333Y-81614761D01*
X123400476Y-81662380D01*
X123305238Y-81757619D01*
X123257619Y-81900476D01*
X123257619Y-81995714D01*
X123257619Y-80662380D02*
X123257619Y-81138571D01*
X124257619Y-81138571D01*
X123352857Y-79757619D02*
X123305238Y-79805238D01*
X123257619Y-79948095D01*
X123257619Y-80043333D01*
X123305238Y-80186190D01*
X123400476Y-80281428D01*
X123495714Y-80329047D01*
X123686190Y-80376666D01*
X123829047Y-80376666D01*
X124019523Y-80329047D01*
X124114761Y-80281428D01*
X124210000Y-80186190D01*
X124257619Y-80043333D01*
X124257619Y-79948095D01*
X124210000Y-79805238D01*
X124162380Y-79757619D01*
D11*
X129000000Y-104458571D02*
X128500000Y-105958571D01*
X128000000Y-104458571D01*
X126642857Y-105815714D02*
X126714285Y-105887142D01*
X126928571Y-105958571D01*
X127071428Y-105958571D01*
X127285714Y-105887142D01*
X127428571Y-105744285D01*
X127500000Y-105601428D01*
X127571428Y-105315714D01*
X127571428Y-105101428D01*
X127500000Y-104815714D01*
X127428571Y-104672857D01*
X127285714Y-104530000D01*
X127071428Y-104458571D01*
X126928571Y-104458571D01*
X126714285Y-104530000D01*
X126642857Y-104601428D01*
X125142857Y-105815714D02*
X125214285Y-105887142D01*
X125428571Y-105958571D01*
X125571428Y-105958571D01*
X125785714Y-105887142D01*
X125928571Y-105744285D01*
X126000000Y-105601428D01*
X126071428Y-105315714D01*
X126071428Y-105101428D01*
X126000000Y-104815714D01*
X125928571Y-104672857D01*
X125785714Y-104530000D01*
X125571428Y-104458571D01*
X125428571Y-104458571D01*
X125214285Y-104530000D01*
X125142857Y-104601428D01*
X128142857Y-101500000D02*
X128285714Y-101428571D01*
X128500000Y-101428571D01*
X128714285Y-101500000D01*
X128857142Y-101642857D01*
X128928571Y-101785714D01*
X129000000Y-102071428D01*
X129000000Y-102285714D01*
X128928571Y-102571428D01*
X128857142Y-102714285D01*
X128714285Y-102857142D01*
X128500000Y-102928571D01*
X128357142Y-102928571D01*
X128142857Y-102857142D01*
X128071428Y-102785714D01*
X128071428Y-102285714D01*
X128357142Y-102285714D01*
X127428571Y-102928571D02*
X127428571Y-101428571D01*
X126571428Y-102928571D01*
X126571428Y-101428571D01*
X125857142Y-102928571D02*
X125857142Y-101428571D01*
X125500000Y-101428571D01*
X125285714Y-101500000D01*
X125142857Y-101642857D01*
X125071428Y-101785714D01*
X125000000Y-102071428D01*
X125000000Y-102285714D01*
X125071428Y-102571428D01*
X125142857Y-102714285D01*
X125285714Y-102857142D01*
X125500000Y-102928571D01*
X125857142Y-102928571D01*
D12*
X121520000Y-100880000D02*
X121520000Y-103280000D01*
X123920000Y-100880000D02*
X121520000Y-100880000D01*
X123920000Y-103280000D02*
X123920000Y-100880000D01*
X121520000Y-103280000D02*
X123920000Y-103280000D01*
X121520000Y-103970000D02*
X121520000Y-106370000D01*
X123920000Y-103970000D02*
X121520000Y-103970000D01*
X123920000Y-106370000D02*
X123920000Y-103970000D01*
X121520000Y-106370000D02*
X123920000Y-106370000D01*
X181850000Y-91900000D02*
X181850000Y-97100000D01*
X133530000Y-91900000D02*
X181850000Y-91900000D01*
X130930000Y-97100000D02*
X181850000Y-97100000D01*
X133530000Y-91900000D02*
X133530000Y-94500000D01*
X133530000Y-94500000D02*
X130930000Y-94500000D01*
X130930000Y-94500000D02*
X130930000Y-97100000D01*
X132260000Y-91900000D02*
X130930000Y-91900000D01*
X130930000Y-91900000D02*
X130930000Y-93230000D01*
D13*
X120693333Y-101512380D02*
X120693333Y-102226666D01*
X120740952Y-102369523D01*
X120836190Y-102464761D01*
X120979047Y-102512380D01*
X121074285Y-102512380D01*
X119740952Y-101512380D02*
X120217142Y-101512380D01*
X120264761Y-101988571D01*
X120217142Y-101940952D01*
X120121904Y-101893333D01*
X119883809Y-101893333D01*
X119788571Y-101940952D01*
X119740952Y-101988571D01*
X119693333Y-102083809D01*
X119693333Y-102321904D01*
X119740952Y-102417142D01*
X119788571Y-102464761D01*
X119883809Y-102512380D01*
X120121904Y-102512380D01*
X120217142Y-102464761D01*
X120264761Y-102417142D01*
X120633333Y-104622380D02*
X120633333Y-105336666D01*
X120680952Y-105479523D01*
X120776190Y-105574761D01*
X120919047Y-105622380D01*
X121014285Y-105622380D01*
X119728571Y-104955714D02*
X119728571Y-105622380D01*
X119966666Y-104574761D02*
X120204761Y-105289047D01*
X119585714Y-105289047D01*
M02*
