%TF.GenerationSoftware,KiCad,Pcbnew,5.1.4-e60b266~84~ubuntu18.04.1*%
%TF.CreationDate,2019-12-31T08:18:33+01:00*%
%TF.ProjectId,clock-dashboard,636c6f63-6b2d-4646-9173-68626f617264,rev?*%
%TF.SameCoordinates,Original*%
%TF.FileFunction,Legend,Top*%
%TF.FilePolarity,Positive*%
%FSLAX46Y46*%
G04 Gerber Fmt 4.6, Leading zero omitted, Abs format (unit mm)*
G04 Created by KiCad (PCBNEW 5.1.4-e60b266~84~ubuntu18.04.1) date 2019-12-31 08:18:33*
%MOMM*%
%LPD*%
G04 APERTURE LIST*
%ADD10C,0.150000*%
%ADD11C,0.010000*%
%ADD12C,0.120000*%
G04 APERTURE END LIST*
D10*
X144095714Y-101024761D02*
X144095714Y-99024761D01*
X144857619Y-99024761D01*
X145048095Y-99120000D01*
X145143333Y-99215238D01*
X145238571Y-99405714D01*
X145238571Y-99691428D01*
X145143333Y-99881904D01*
X145048095Y-99977142D01*
X144857619Y-100072380D01*
X144095714Y-100072380D01*
X146095714Y-101024761D02*
X146095714Y-99691428D01*
X146095714Y-99024761D02*
X146000476Y-99120000D01*
X146095714Y-99215238D01*
X146190952Y-99120000D01*
X146095714Y-99024761D01*
X146095714Y-99215238D01*
X147048095Y-101024761D02*
X147048095Y-99024761D01*
X147810000Y-99024761D01*
X148000476Y-99120000D01*
X148095714Y-99215238D01*
X148190952Y-99405714D01*
X148190952Y-99691428D01*
X148095714Y-99881904D01*
X148000476Y-99977142D01*
X147810000Y-100072380D01*
X147048095Y-100072380D01*
X149048095Y-101024761D02*
X149048095Y-99691428D01*
X149048095Y-100072380D02*
X149143333Y-99881904D01*
X149238571Y-99786666D01*
X149429047Y-99691428D01*
X149619523Y-99691428D01*
X150571904Y-101024761D02*
X150381428Y-100929523D01*
X150286190Y-100834285D01*
X150190952Y-100643809D01*
X150190952Y-100072380D01*
X150286190Y-99881904D01*
X150381428Y-99786666D01*
X150571904Y-99691428D01*
X150857619Y-99691428D01*
X151048095Y-99786666D01*
X151143333Y-99881904D01*
X151238571Y-100072380D01*
X151238571Y-100643809D01*
X151143333Y-100834285D01*
X151048095Y-100929523D01*
X150857619Y-101024761D01*
X150571904Y-101024761D01*
X152095714Y-99691428D02*
X152095714Y-101405714D01*
X152000476Y-101596190D01*
X151810000Y-101691428D01*
X151714761Y-101691428D01*
X152095714Y-99024761D02*
X152000476Y-99120000D01*
X152095714Y-99215238D01*
X152190952Y-99120000D01*
X152095714Y-99024761D01*
X152095714Y-99215238D01*
X153810000Y-100929523D02*
X153619523Y-101024761D01*
X153238571Y-101024761D01*
X153048095Y-100929523D01*
X152952857Y-100739047D01*
X152952857Y-99977142D01*
X153048095Y-99786666D01*
X153238571Y-99691428D01*
X153619523Y-99691428D01*
X153810000Y-99786666D01*
X153905238Y-99977142D01*
X153905238Y-100167619D01*
X152952857Y-100358095D01*
X155619523Y-100929523D02*
X155429047Y-101024761D01*
X155048095Y-101024761D01*
X154857619Y-100929523D01*
X154762380Y-100834285D01*
X154667142Y-100643809D01*
X154667142Y-100072380D01*
X154762380Y-99881904D01*
X154857619Y-99786666D01*
X155048095Y-99691428D01*
X155429047Y-99691428D01*
X155619523Y-99786666D01*
X156190952Y-99691428D02*
X156952857Y-99691428D01*
X156476666Y-99024761D02*
X156476666Y-100739047D01*
X156571904Y-100929523D01*
X156762380Y-101024761D01*
X156952857Y-101024761D01*
X157905238Y-101024761D02*
X157714761Y-100929523D01*
X157619523Y-100834285D01*
X157524285Y-100643809D01*
X157524285Y-100072380D01*
X157619523Y-99881904D01*
X157714761Y-99786666D01*
X157905238Y-99691428D01*
X158190952Y-99691428D01*
X158381428Y-99786666D01*
X158476666Y-99881904D01*
X158571904Y-100072380D01*
X158571904Y-100643809D01*
X158476666Y-100834285D01*
X158381428Y-100929523D01*
X158190952Y-101024761D01*
X157905238Y-101024761D01*
X159429047Y-101024761D02*
X159429047Y-99691428D01*
X159429047Y-100072380D02*
X159524285Y-99881904D01*
X159619523Y-99786666D01*
X159810000Y-99691428D01*
X160000476Y-99691428D01*
X162000476Y-99691428D02*
X162476666Y-101024761D01*
X162952857Y-99691428D01*
X164762380Y-101024761D02*
X163619523Y-101024761D01*
X164190952Y-101024761D02*
X164190952Y-99024761D01*
X164000476Y-99310476D01*
X163810000Y-99500952D01*
X163619523Y-99596190D01*
X165619523Y-100834285D02*
X165714761Y-100929523D01*
X165619523Y-101024761D01*
X165524285Y-100929523D01*
X165619523Y-100834285D01*
X165619523Y-101024761D01*
X166952857Y-99024761D02*
X167143333Y-99024761D01*
X167333809Y-99120000D01*
X167429047Y-99215238D01*
X167524285Y-99405714D01*
X167619523Y-99786666D01*
X167619523Y-100262857D01*
X167524285Y-100643809D01*
X167429047Y-100834285D01*
X167333809Y-100929523D01*
X167143333Y-101024761D01*
X166952857Y-101024761D01*
X166762380Y-100929523D01*
X166667142Y-100834285D01*
X166571904Y-100643809D01*
X166476666Y-100262857D01*
X166476666Y-99786666D01*
X166571904Y-99405714D01*
X166667142Y-99215238D01*
X166762380Y-99120000D01*
X166952857Y-99024761D01*
X140905238Y-102174761D02*
X142048095Y-102174761D01*
X141476666Y-104174761D02*
X141476666Y-102174761D01*
X142714761Y-104174761D02*
X142714761Y-102174761D01*
X143571904Y-104174761D02*
X143571904Y-103127142D01*
X143476666Y-102936666D01*
X143286190Y-102841428D01*
X143000476Y-102841428D01*
X142810000Y-102936666D01*
X142714761Y-103031904D01*
X144810000Y-104174761D02*
X144619523Y-104079523D01*
X144524285Y-103984285D01*
X144429047Y-103793809D01*
X144429047Y-103222380D01*
X144524285Y-103031904D01*
X144619523Y-102936666D01*
X144810000Y-102841428D01*
X145095714Y-102841428D01*
X145286190Y-102936666D01*
X145381428Y-103031904D01*
X145476666Y-103222380D01*
X145476666Y-103793809D01*
X145381428Y-103984285D01*
X145286190Y-104079523D01*
X145095714Y-104174761D01*
X144810000Y-104174761D01*
X146333809Y-104174761D02*
X146333809Y-102841428D01*
X146333809Y-103031904D02*
X146429047Y-102936666D01*
X146619523Y-102841428D01*
X146905238Y-102841428D01*
X147095714Y-102936666D01*
X147190952Y-103127142D01*
X147190952Y-104174761D01*
X147190952Y-103127142D02*
X147286190Y-102936666D01*
X147476666Y-102841428D01*
X147762380Y-102841428D01*
X147952857Y-102936666D01*
X148048095Y-103127142D01*
X148048095Y-104174761D01*
X149857619Y-104174761D02*
X149857619Y-103127142D01*
X149762380Y-102936666D01*
X149571904Y-102841428D01*
X149190952Y-102841428D01*
X149000476Y-102936666D01*
X149857619Y-104079523D02*
X149667142Y-104174761D01*
X149190952Y-104174761D01*
X149000476Y-104079523D01*
X148905238Y-103889047D01*
X148905238Y-103698571D01*
X149000476Y-103508095D01*
X149190952Y-103412857D01*
X149667142Y-103412857D01*
X149857619Y-103317619D01*
X150714761Y-104079523D02*
X150905238Y-104174761D01*
X151286190Y-104174761D01*
X151476666Y-104079523D01*
X151571904Y-103889047D01*
X151571904Y-103793809D01*
X151476666Y-103603333D01*
X151286190Y-103508095D01*
X151000476Y-103508095D01*
X150810000Y-103412857D01*
X150714761Y-103222380D01*
X150714761Y-103127142D01*
X150810000Y-102936666D01*
X151000476Y-102841428D01*
X151286190Y-102841428D01*
X151476666Y-102936666D01*
X154619523Y-103127142D02*
X154905238Y-103222380D01*
X155000476Y-103317619D01*
X155095714Y-103508095D01*
X155095714Y-103793809D01*
X155000476Y-103984285D01*
X154905238Y-104079523D01*
X154714761Y-104174761D01*
X153952857Y-104174761D01*
X153952857Y-102174761D01*
X154619523Y-102174761D01*
X154810000Y-102270000D01*
X154905238Y-102365238D01*
X155000476Y-102555714D01*
X155000476Y-102746190D01*
X154905238Y-102936666D01*
X154810000Y-103031904D01*
X154619523Y-103127142D01*
X153952857Y-103127142D01*
X156714761Y-104079523D02*
X156524285Y-104174761D01*
X156143333Y-104174761D01*
X155952857Y-104079523D01*
X155857619Y-103889047D01*
X155857619Y-103127142D01*
X155952857Y-102936666D01*
X156143333Y-102841428D01*
X156524285Y-102841428D01*
X156714761Y-102936666D01*
X156810000Y-103127142D01*
X156810000Y-103317619D01*
X155857619Y-103508095D01*
X156524285Y-102079523D02*
X156238571Y-102365238D01*
X157381428Y-102841428D02*
X158143333Y-102841428D01*
X157667142Y-102174761D02*
X157667142Y-103889047D01*
X157762380Y-104079523D01*
X157952857Y-104174761D01*
X158143333Y-104174761D01*
X158810000Y-104174761D02*
X158810000Y-102841428D01*
X158810000Y-103222380D02*
X158905238Y-103031904D01*
X159000476Y-102936666D01*
X159190952Y-102841428D01*
X159381428Y-102841428D01*
X160905238Y-104174761D02*
X160905238Y-103127142D01*
X160810000Y-102936666D01*
X160619523Y-102841428D01*
X160238571Y-102841428D01*
X160048095Y-102936666D01*
X160905238Y-104079523D02*
X160714761Y-104174761D01*
X160238571Y-104174761D01*
X160048095Y-104079523D01*
X159952857Y-103889047D01*
X159952857Y-103698571D01*
X160048095Y-103508095D01*
X160238571Y-103412857D01*
X160714761Y-103412857D01*
X160905238Y-103317619D01*
X161857619Y-102841428D02*
X161857619Y-104174761D01*
X161857619Y-103031904D02*
X161952857Y-102936666D01*
X162143333Y-102841428D01*
X162429047Y-102841428D01*
X162619523Y-102936666D01*
X162714761Y-103127142D01*
X162714761Y-104174761D01*
X164524285Y-104079523D02*
X164333809Y-104174761D01*
X163952857Y-104174761D01*
X163762380Y-104079523D01*
X163667142Y-103984285D01*
X163571904Y-103793809D01*
X163571904Y-103222380D01*
X163667142Y-103031904D01*
X163762380Y-102936666D01*
X163952857Y-102841428D01*
X164333809Y-102841428D01*
X164524285Y-102936666D01*
X165667142Y-104174761D02*
X165476666Y-104079523D01*
X165381428Y-103984285D01*
X165286190Y-103793809D01*
X165286190Y-103222380D01*
X165381428Y-103031904D01*
X165476666Y-102936666D01*
X165667142Y-102841428D01*
X165952857Y-102841428D01*
X166143333Y-102936666D01*
X166238571Y-103031904D01*
X166333809Y-103222380D01*
X166333809Y-103793809D01*
X166238571Y-103984285D01*
X166143333Y-104079523D01*
X165952857Y-104174761D01*
X165667142Y-104174761D01*
X168048095Y-102841428D02*
X168048095Y-104174761D01*
X167190952Y-102841428D02*
X167190952Y-103889047D01*
X167286190Y-104079523D01*
X167476666Y-104174761D01*
X167762380Y-104174761D01*
X167952857Y-104079523D01*
X168048095Y-103984285D01*
X169000476Y-104174761D02*
X169000476Y-102841428D01*
X169000476Y-103222380D02*
X169095714Y-103031904D01*
X169190952Y-102936666D01*
X169381428Y-102841428D01*
X169571904Y-102841428D01*
X169952857Y-102841428D02*
X170714761Y-102841428D01*
X170238571Y-102174761D02*
X170238571Y-103889047D01*
X170333809Y-104079523D01*
X170524285Y-104174761D01*
X170714761Y-104174761D01*
X147000476Y-105324761D02*
X147000476Y-106753333D01*
X146905238Y-107039047D01*
X146714761Y-107229523D01*
X146429047Y-107324761D01*
X146238571Y-107324761D01*
X148810000Y-107324761D02*
X148810000Y-106277142D01*
X148714761Y-106086666D01*
X148524285Y-105991428D01*
X148143333Y-105991428D01*
X147952857Y-106086666D01*
X148810000Y-107229523D02*
X148619523Y-107324761D01*
X148143333Y-107324761D01*
X147952857Y-107229523D01*
X147857619Y-107039047D01*
X147857619Y-106848571D01*
X147952857Y-106658095D01*
X148143333Y-106562857D01*
X148619523Y-106562857D01*
X148810000Y-106467619D01*
X149762380Y-105991428D02*
X149762380Y-107324761D01*
X149762380Y-106181904D02*
X149857619Y-106086666D01*
X150048095Y-105991428D01*
X150333809Y-105991428D01*
X150524285Y-106086666D01*
X150619523Y-106277142D01*
X150619523Y-107324761D01*
X151381428Y-105991428D02*
X151857619Y-107324761D01*
X152333809Y-105991428D01*
X153095714Y-107324761D02*
X153095714Y-105991428D01*
X153095714Y-105324761D02*
X153000476Y-105420000D01*
X153095714Y-105515238D01*
X153190952Y-105420000D01*
X153095714Y-105324761D01*
X153095714Y-105515238D01*
X154810000Y-107229523D02*
X154619523Y-107324761D01*
X154238571Y-107324761D01*
X154048095Y-107229523D01*
X153952857Y-107039047D01*
X153952857Y-106277142D01*
X154048095Y-106086666D01*
X154238571Y-105991428D01*
X154619523Y-105991428D01*
X154810000Y-106086666D01*
X154905238Y-106277142D01*
X154905238Y-106467619D01*
X153952857Y-106658095D01*
X155762380Y-107324761D02*
X155762380Y-105991428D01*
X155762380Y-106372380D02*
X155857619Y-106181904D01*
X155952857Y-106086666D01*
X156143333Y-105991428D01*
X156333809Y-105991428D01*
X158429047Y-105515238D02*
X158524285Y-105420000D01*
X158714761Y-105324761D01*
X159190952Y-105324761D01*
X159381428Y-105420000D01*
X159476666Y-105515238D01*
X159571904Y-105705714D01*
X159571904Y-105896190D01*
X159476666Y-106181904D01*
X158333809Y-107324761D01*
X159571904Y-107324761D01*
X160810000Y-105324761D02*
X161000476Y-105324761D01*
X161190952Y-105420000D01*
X161286190Y-105515238D01*
X161381428Y-105705714D01*
X161476666Y-106086666D01*
X161476666Y-106562857D01*
X161381428Y-106943809D01*
X161286190Y-107134285D01*
X161190952Y-107229523D01*
X161000476Y-107324761D01*
X160810000Y-107324761D01*
X160619523Y-107229523D01*
X160524285Y-107134285D01*
X160429047Y-106943809D01*
X160333809Y-106562857D01*
X160333809Y-106086666D01*
X160429047Y-105705714D01*
X160524285Y-105515238D01*
X160619523Y-105420000D01*
X160810000Y-105324761D01*
X162238571Y-105515238D02*
X162333809Y-105420000D01*
X162524285Y-105324761D01*
X163000476Y-105324761D01*
X163190952Y-105420000D01*
X163286190Y-105515238D01*
X163381428Y-105705714D01*
X163381428Y-105896190D01*
X163286190Y-106181904D01*
X162143333Y-107324761D01*
X163381428Y-107324761D01*
X164619523Y-105324761D02*
X164810000Y-105324761D01*
X165000476Y-105420000D01*
X165095714Y-105515238D01*
X165190952Y-105705714D01*
X165286190Y-106086666D01*
X165286190Y-106562857D01*
X165190952Y-106943809D01*
X165095714Y-107134285D01*
X165000476Y-107229523D01*
X164810000Y-107324761D01*
X164619523Y-107324761D01*
X164429047Y-107229523D01*
X164333809Y-107134285D01*
X164238571Y-106943809D01*
X164143333Y-106562857D01*
X164143333Y-106086666D01*
X164238571Y-105705714D01*
X164333809Y-105515238D01*
X164429047Y-105420000D01*
X164619523Y-105324761D01*
D11*
X140518364Y-91959172D02*
X138605111Y-91959172D01*
X130988016Y-97037235D02*
X130988016Y-94498203D01*
X130988016Y-94498203D02*
X130988016Y-91959172D01*
X130988016Y-91959172D02*
X131940890Y-91959172D01*
X131940890Y-91959172D02*
X132573995Y-91959172D01*
X132573995Y-91959172D02*
X133527048Y-91959172D01*
X133527048Y-91959172D02*
X181796169Y-91959172D01*
X181796169Y-91959172D02*
X181796169Y-97037235D01*
X181796169Y-97037235D02*
X130988016Y-97037235D01*
X181997287Y-67493227D02*
X181743813Y-67999818D01*
X173993413Y-67493227D02*
X181997287Y-67493227D01*
X174246441Y-67999818D02*
X173993413Y-67493227D01*
X181743813Y-73747708D02*
X181743813Y-67999818D01*
X174246441Y-73747708D02*
X181743813Y-73747708D01*
X174246441Y-67999818D02*
X174246441Y-73747708D01*
X174246441Y-67999818D02*
X181743813Y-67999818D01*
X173397655Y-67999818D02*
X174246441Y-67999818D01*
X169391832Y-67493227D02*
X169146130Y-67999818D01*
X161395731Y-67493227D02*
X169391832Y-67493227D01*
X161640986Y-67999818D02*
X161395731Y-67493227D01*
X169146130Y-73747708D02*
X169146130Y-67999818D01*
X161640986Y-73747708D02*
X169146130Y-73747708D01*
X161640986Y-67999818D02*
X161640986Y-73747708D01*
X161640986Y-67999818D02*
X169146130Y-67999818D01*
X160792200Y-67999818D02*
X161640986Y-67999818D01*
X138493072Y-67493227D02*
X138240044Y-67999818D01*
X130489198Y-67493227D02*
X138493072Y-67493227D01*
X130734989Y-67999818D02*
X130489198Y-67493227D01*
X138240044Y-73747708D02*
X138240044Y-67999818D01*
X130734989Y-73747708D02*
X138240044Y-73747708D01*
X130734989Y-67999818D02*
X130734989Y-73747708D01*
X123885107Y-94997021D02*
X123885107Y-70992995D01*
X126610335Y-97982961D02*
X126885699Y-97997435D01*
X126334614Y-97945525D02*
X126610335Y-97982961D01*
X126066576Y-97886021D02*
X126334614Y-97945525D01*
X125806222Y-97796764D02*
X126066576Y-97886021D01*
X125553194Y-97684814D02*
X125806222Y-97796764D01*
X125307315Y-97551063D02*
X125553194Y-97684814D01*
X125076177Y-97394440D02*
X125307315Y-97551063D01*
X124867733Y-97216195D02*
X125076177Y-97394440D01*
X124667062Y-97022225D02*
X124867733Y-97216195D01*
X124495428Y-96806544D02*
X124667062Y-97022225D01*
X124339430Y-96575674D02*
X124495428Y-96806544D01*
X124197817Y-96337299D02*
X124339430Y-96575674D01*
X124086403Y-96084182D02*
X124197817Y-96337299D01*
X124004383Y-95816145D02*
X124086403Y-96084182D01*
X123937017Y-95548107D02*
X124004383Y-95816145D01*
X123900295Y-95272743D02*
X123937017Y-95548107D01*
X123885107Y-94997021D02*
X123900295Y-95272743D01*
X185898486Y-97997435D02*
X126885699Y-97997435D01*
X188884426Y-95272743D02*
X188898900Y-94997021D01*
X188847080Y-95548107D02*
X188884426Y-95272743D01*
X188787486Y-95816145D02*
X188847080Y-95548107D01*
X188698229Y-96084182D02*
X188787486Y-95816145D01*
X188586368Y-96337299D02*
X188698229Y-96084182D01*
X188452528Y-96575674D02*
X188586368Y-96337299D01*
X188295994Y-96806544D02*
X188452528Y-96575674D01*
X188117660Y-97022225D02*
X188295994Y-96806544D01*
X187916363Y-97216195D02*
X188117660Y-97022225D01*
X187708009Y-97394440D02*
X187916363Y-97216195D01*
X187477228Y-97551063D02*
X187708009Y-97394440D01*
X187238854Y-97684814D02*
X187477228Y-97551063D01*
X186978500Y-97796764D02*
X187238854Y-97684814D01*
X186717610Y-97886021D02*
X186978500Y-97796764D01*
X186449572Y-97945525D02*
X186717610Y-97886021D01*
X186174208Y-97982961D02*
X186449572Y-97945525D01*
X185898486Y-97997435D02*
X186174208Y-97982961D01*
X188898900Y-70992995D02*
X188898900Y-94997021D01*
X186174208Y-68007144D02*
X185898486Y-67999818D01*
X186449572Y-68044491D02*
X186174208Y-68007144D01*
X186717610Y-68111322D02*
X186449572Y-68044491D01*
X186978500Y-68200936D02*
X186717610Y-68111322D01*
X187238854Y-68312529D02*
X186978500Y-68200936D01*
X187477228Y-68446816D02*
X187238854Y-68312529D01*
X187708009Y-68602903D02*
X187477228Y-68446816D01*
X187916363Y-68781684D02*
X187708009Y-68602903D01*
X188117660Y-68975118D02*
X187916363Y-68781684D01*
X188295994Y-69191335D02*
X188117660Y-68975118D01*
X188452528Y-69414342D02*
X188295994Y-69191335D01*
X188586368Y-69660044D02*
X188452528Y-69414342D01*
X188698229Y-69913071D02*
X188586368Y-69660044D01*
X188787486Y-70173872D02*
X188698229Y-69913071D01*
X188847080Y-70441909D02*
X188787486Y-70173872D01*
X188884426Y-70717274D02*
X188847080Y-70441909D01*
X188898900Y-70992995D02*
X188884426Y-70717274D01*
X138240044Y-67999818D02*
X185898486Y-67999818D01*
X130734989Y-67999818D02*
X138240044Y-67999818D01*
X126885699Y-67999818D02*
X130734989Y-67999818D01*
X123900295Y-70717274D02*
X123885107Y-70992995D01*
X123937017Y-70441909D02*
X123900295Y-70717274D01*
X124004383Y-70173872D02*
X123937017Y-70441909D01*
X124086403Y-69913071D02*
X124004383Y-70173872D01*
X124197817Y-69660044D02*
X124086403Y-69913071D01*
X124339430Y-69414342D02*
X124197817Y-69660044D01*
X124495428Y-69191335D02*
X124339430Y-69414342D01*
X124667062Y-68975118D02*
X124495428Y-69191335D01*
X124867733Y-68781684D02*
X124667062Y-68975118D01*
X125076177Y-68602903D02*
X124867733Y-68781684D01*
X125307315Y-68446816D02*
X125076177Y-68602903D01*
X125553194Y-68312529D02*
X125307315Y-68446816D01*
X125806222Y-68200936D02*
X125553194Y-68312529D01*
X126066576Y-68111322D02*
X125806222Y-68200936D01*
X126334614Y-68044491D02*
X126066576Y-68111322D01*
X126610335Y-68007144D02*
X126334614Y-68044491D01*
X126885699Y-67999818D02*
X126610335Y-68007144D01*
D12*
X127120000Y-65660000D02*
X127120000Y-64330000D01*
X128450000Y-65660000D02*
X127120000Y-65660000D01*
X127120000Y-63060000D02*
X127120000Y-60460000D01*
X129720000Y-63060000D02*
X127120000Y-63060000D01*
X129720000Y-65660000D02*
X129720000Y-63060000D01*
X127120000Y-60460000D02*
X185660000Y-60460000D01*
X129720000Y-65660000D02*
X185660000Y-65660000D01*
X185660000Y-65660000D02*
X185660000Y-60460000D01*
X185660000Y-113920000D02*
X185660000Y-108720000D01*
X129720000Y-113920000D02*
X185660000Y-113920000D01*
X127120000Y-108720000D02*
X185660000Y-108720000D01*
X129720000Y-113920000D02*
X129720000Y-111320000D01*
X129720000Y-111320000D02*
X127120000Y-111320000D01*
X127120000Y-111320000D02*
X127120000Y-108720000D01*
X128450000Y-113920000D02*
X127120000Y-113920000D01*
X127120000Y-113920000D02*
X127120000Y-112590000D01*
D10*
X129446666Y-97782380D02*
X129446666Y-98496666D01*
X129399047Y-98639523D01*
X129303809Y-98734761D01*
X129160952Y-98782380D01*
X129065714Y-98782380D01*
X129827619Y-97782380D02*
X130446666Y-97782380D01*
X130113333Y-98163333D01*
X130256190Y-98163333D01*
X130351428Y-98210952D01*
X130399047Y-98258571D01*
X130446666Y-98353809D01*
X130446666Y-98591904D01*
X130399047Y-98687142D01*
X130351428Y-98734761D01*
X130256190Y-98782380D01*
X129970476Y-98782380D01*
X129875238Y-98734761D01*
X129827619Y-98687142D01*
X125736666Y-66232380D02*
X125736666Y-66946666D01*
X125689047Y-67089523D01*
X125593809Y-67184761D01*
X125450952Y-67232380D01*
X125355714Y-67232380D01*
X126736666Y-67232380D02*
X126165238Y-67232380D01*
X126450952Y-67232380D02*
X126450952Y-66232380D01*
X126355714Y-66375238D01*
X126260476Y-66470476D01*
X126165238Y-66518095D01*
X125376666Y-107112380D02*
X125376666Y-107826666D01*
X125329047Y-107969523D01*
X125233809Y-108064761D01*
X125090952Y-108112380D01*
X124995714Y-108112380D01*
X125805238Y-107207619D02*
X125852857Y-107160000D01*
X125948095Y-107112380D01*
X126186190Y-107112380D01*
X126281428Y-107160000D01*
X126329047Y-107207619D01*
X126376666Y-107302857D01*
X126376666Y-107398095D01*
X126329047Y-107540952D01*
X125757619Y-108112380D01*
X126376666Y-108112380D01*
M02*
